<?xml version="1.0" encoding="UTF-8"?>
<svg xmlns="http://www.w3.org/2000/svg" width="489.42" height="511" viewBox="235.29 -2.5 489.42 511">
  <!-- Created using SVG Map Generator: dojo.amcharts.com/svg-map-generator -->
  <style>
    .land { fill: #ffffff; stroke: #000000; stroke-width: 0.5; }
  </style>
  <g id="polygons">
    <path d="M663.71,343.06L663.59,343.06L663.57,342.94L663.68,342.92Z" class="land" id="GO" title="Glorioso Islands"/>
    <path d="M634.5,381.63L634.41,381.62L634.4,381.46L634.53,381.56Z" class="land" id="JU" title="Juan De Nova Island"/>
    <path d="M564.24,419.05L554.74,417.26L552.96,417.59L551.17,414.9L545.39,413.22L543.35,409.65L543.7,405.9L534.92,398.92L529.99,386.67L533.55,387.78L540.44,387.83L546.16,380.37L551.2,377.81L552.26,374L557.23,371.59L561.21,371.58L561.36,374.05L566.12,374.25L570.2,377.09L576.13,379.08L575.86,390.64L573.99,395.15L575.4,401.28L571.94,407.18L571.07,411.55Z" class="land" id="ZW" title="Zimbabwe"/>
    <path d="M577.74,327.88L580.25,331.07L581.96,336.17L579.51,338.29L579.17,342.78L579.98,349.47L577.69,350.46L577.22,354.62L575.36,357.33L578.43,360.15L560.4,367L561.21,371.58L557.23,371.59L552.26,374L551.2,377.81L546.16,380.37L540.44,387.83L533.55,387.78L529.99,386.67L524.21,384.48L518.85,385.59L511.74,378.27L510.85,373.77L511.38,353.05L522.56,353.05L523.55,349L523.64,338.14L526.87,342.11L530.91,340.74L531.84,343.4L535.85,345.27L541.4,345.33L549.74,349.42L553.49,355.63L558.17,355.8L558.43,347.13L554.01,348.48L549.93,342.42L551.77,336.72L551.85,330.85L550.56,326.61L554.11,321.29L564.87,319.39L571.91,325.41Z" class="land" id="ZM" title="Zambia"/>
    <path d="M564.24,419.05L565.31,426.65L567.47,433.54L566.54,444.08L563.52,442.59L559.63,447.28L560.81,452.2L565.93,453.57L567.07,450.28L571.58,450.35L568.82,459.87L567.15,462.83L561.22,468.16L554.29,479.38L545.32,488.7L539.19,494.04L530.61,499.01L521.25,501.89L514.26,500.59L506.57,501.19L503.82,503.32L496.61,503.96L491.39,506L486.93,501.46L482.03,493.39L484.28,491.22L484.36,484.81L481.53,479.72L477.83,468.34L475.13,462.8L478.84,458.68L480.92,463.37L484.67,464.6L491.3,464.81L495.72,461.64L496.86,435.76L498.92,437.54L501.38,445.22L500.67,450.35L505.96,450.39L512.03,444.87L513.64,440.55L515.97,439.21L524.46,443.09L529.43,441.6L531.68,435.56L537.29,431.99L539.39,426.95L545.97,421.1L552.96,417.59L554.74,417.26ZM541.13,464.86L536.26,470.18L537.89,474.77L541.37,477.06L543.78,473.58L547.98,471.97L550,467.4L545.9,462.55Z" class="land" id="ZA" title="South Africa"/>
    <path d="M584.49,269.09L565.38,269.13L563.98,269.54L561.5,271.65L558.33,271.79L559.2,261.4L560.55,256.35L568.44,247.79L565.26,244.91L565.87,237.68L567.74,235.61L571.65,235.49L573.48,237.41L577.93,235.52L581.86,235.83L584.77,232.57L587.33,236.27L590.87,247.66L589.83,253.48L587.98,254.8L584.74,260.87Z" class="land" id="UG" title="Uganda"/>
    <path d="M584.49,269.09L592.29,273.82L607.01,283.38L607.89,287.78L616.4,294.89L613.83,303.19L614.11,306.36L617.63,310.19L616.42,314.66L616.35,321.14L618.94,331.44L622.91,335.28L619.97,337.78L610.83,341.93L607.42,341.1L605.05,343.77L598.9,344.05L594.55,342.21L589.57,343.09L587.51,339.3L587.28,332.24L586.11,330.16L577.74,327.88L571.91,325.41L564.87,319.39L562.36,312.46L558.79,308.36L557.46,304.22L558.19,301.6L556.73,296.93L557.14,293.19L561.65,290.65L565.59,284.98L563.94,282.48L564.2,278.86L565.87,278.43L565.8,273.01L563.98,269.54L565.38,269.13Z" class="land" id="TZ" title="Tanzania"/>
    <path d="M445.46,29.22L445.63,34.62L441.8,36.97L437.83,41.31L438.55,46.11L434.62,50.01L431.56,37.03L427.4,33.71L424.02,28.86L422.47,22.9L426.54,18.3L427.3,15L426.13,5.58L428.01,2.83L434.2,0L439.29,3.23L439.63,10.2L442.79,14.74L437.3,21.49L437.61,24.52Z" class="land" id="TN" title="Tunisia"/>
    <path d="M384.99,185.18L384.27,189.61L387.58,192.15L389.21,198.78L389.37,218.61L386.74,219.5L382.75,214.17L383.4,210.65L382.08,201.56L382.76,196.62L381.15,195.66L381.76,190.48L379.23,187.72L379.17,184.32Z" class="land" id="TG" title="Togo"/>
    <path d="M516.98,185.69L514.77,185.16L510.24,189.56L504.62,196.29L502.06,198.24L494.86,199.02L494.68,201.54L490.79,205.91L485.94,206.24L480.76,209.27L478.31,208.34L472.9,209.46L470.63,202.23L465.87,197.71L463.69,194.29L465.27,192.27L473.08,192.41L470.56,187.59L470.14,179.21L466.63,171.26L463.91,170.57L461.1,166.18L460.08,161.44L465.42,151.84L471.86,143.71L472.92,122.67L474.12,119.87L469.35,111.29L467.87,100.94L473.7,97.78L492.97,108.91L510.33,118.89L521.95,125.53L522.86,151.63L517.63,152.17L514.37,163.22L512.03,166L512.82,168.81L510.49,172.59L513.68,173.5L515.05,180.44L517.3,182.71Z" class="land" id="TD" title="Chad"/>
    <path d="M714.93,294.9L714,294.31L714.44,293.96Z" class="land" id="SC" title="Seychelles"/>
    <path d="M566.54,444.08L567.07,450.28L565.93,453.57L560.81,452.2L559.63,447.28L563.52,442.59Z" class="land" id="SZ" title="Eswatini"/>
    <path d="M419.83,261.24L419.01,259.7L419.99,259.26L420.38,260.38Z" class="land" id="ST" title="Sao Tome and Principe"/>
    <path d="M630.58,273.94L627.26,268.17L627.09,242.4L632.55,234.27L638,232.07L639.98,229.6L645.16,227.46L650.91,227.73L656.76,220.14L668.71,206.15L662.69,206.15L644.67,199.23L641.33,196.48L636.07,187.78L637.56,185.13L639.36,181.63L643.21,186.64L646.51,189.12L649.85,189.08L655,186.28L659.52,186.91L664.45,183.91L673.42,183.35L680.59,181.42L684.53,178.24L687.36,179.31L686.5,182.78L687.06,187.53L685.72,190.36L685.51,196.13L677.18,213.19L675.52,218.91L669.28,230.64L657.84,244.78L647.51,252.36L642.3,257.74L633.3,268.88Z" class="land" id="SO" title="Somalia"/>
    <path d="M317.63,202.73L315.4,207.81L310.18,213.78L304.3,210.43L301.95,207.13L299.54,198.79L302.79,196.52L304.36,193.1L312.16,192.29L315.22,196.93Z" class="land" id="SL" title="Sierra Leone"/>
    <path d="M345.58,374.07L345.09,373.78L345.49,373.42Z" class="land" id="SH" title="Saint Helena"/>
    <path d="M306.11,158.44L307.61,162.66L307.35,166.68L311.27,171.53L311.23,175.29L305.81,175.83L301.09,173.69L297.21,173.4L288.41,173.36L286.12,174.69L279.28,175.64L279.06,170.67L284.64,170.02L286.64,167.01L280.33,167L276.85,159.62L277.01,157.64L280.8,151.22L283.1,146.24L289.41,145.56L294.25,146.01L296.77,149.05L299.5,149.67L302.7,155.39Z" class="land" id="SN" title="Senegal"/>
    <path d="M584.7,195.9L584.95,202.06L579.8,203.36L578.53,206.47L582.51,208.43L588.95,215.5L592.45,223.67L584.77,232.57L581.86,235.83L577.93,235.52L573.48,237.41L571.65,235.49L567.74,235.61L565.87,237.68L561.95,234.24L558.78,230.01L555.62,231.4L549.83,231.66L545.01,226.35L543.02,221.69L539.56,219.64L538.59,215.68L532.6,210.8L529.34,205.17L525.93,204.09L525.02,201.47L527.31,199.92L528.72,193.71L530.56,189.95L534.72,189.19L539.39,195.45L547.41,194.93L548.43,196.83L553.22,196.85L560.04,190.19L564.56,193.93L567.47,193.54L574.32,184.72L573.78,180.11L578.85,176.6L578.23,180.99L578.98,186.18L583.44,190.74Z" class="land" id="SS" title="South Sudan"/>
    <path d="M597.38,107.96L599.44,114.24L600.68,124.93L602.32,130.29L609.41,136.01L607.46,138.96L602.63,142.63L600.24,142.65L599.93,148L597.4,156.17L598.25,162.31L596.18,173.03L593.16,174.36L590.43,179.41L589.55,186.08L585.68,188.43L584.7,195.9L583.44,190.74L578.98,186.18L578.23,180.99L578.85,176.6L573.78,180.11L574.32,184.72L567.47,193.54L564.56,193.93L560.04,190.19L553.22,196.85L548.43,196.83L547.41,194.93L539.39,195.45L534.72,189.19L530.56,189.95L528.72,193.71L527.31,199.92L525.02,201.47L521.33,200.42L521.86,193.37L516.98,185.69L517.3,182.71L515.05,180.44L513.68,173.5L510.49,172.59L512.82,168.81L512.03,166L514.37,163.22L517.63,152.17L522.86,151.63L521.95,125.53L521.81,122.03L527.66,122.03L527.14,107.97L549.71,107.98L565.27,107.97L576.06,107.97Z" class="land" id="SD" title="Sudan"/>
    <path d="M328.99,68.13L328.94,70.74L328.78,79.82L309.26,79.82L308.79,97.62L302.77,100.91L302.58,112.62L279.23,112.66L278.62,116.33L279.55,108.64L282.1,105.6L284.05,100.21L287.94,93.36L291.26,90.01L295.29,78.01L300.29,74.62L302.81,68.16Z" class="land" id="EH" title="Western Sahara"/>
    <path d="M563.98,269.54L565.8,273.01L565.87,278.43L564.2,278.86L560.44,278.44L560.05,281.08L554.89,281.1L555.62,275.09L558.33,271.79L561.5,271.65Z" class="land" id="RW" title="Rwanda"/>
    <path d="M709.64,411.58L707.11,411.12L707.05,408.52L709.13,408.54Z" class="land" id="RE" title="Reunion"/>
    <path d="M281.03,31.42L283.85,32.2L282.99,32.97L281.1,32.46Z" class="land" id="PT" title="Madeira"/>
    <path d="M461.1,166.18L463.91,170.57L464.78,175.43L467.39,177.36L467.04,181.68L463.06,184.15L457.41,196.15L456.7,199.93L454.29,201.96L449.26,215.25L446.86,217.06L443.54,212.69L440.75,213.15L434.25,220.06L431.24,228.83L429.66,230.21L422.78,230.51L416.27,232.08L413.32,229.58L408.91,219.94L404.47,217.25L395.91,217.54L395.77,207.01L396.29,198.79L397.91,198.54L402.63,187.88L400.53,182.36L401.17,180.25L401.46,174.41L403.26,172.69L404.44,167.91L412.48,165L417.85,166.89L421.18,171.06L426.26,168.75L432.06,171.76L437.26,172.45L440.63,169.23L447.98,168.64L454.31,170.46L455.44,168.83Z" class="land" id="NG" title="Nigeria"/>
    <path d="M467.87,100.94L469.35,111.29L474.12,119.87L472.92,122.67L471.86,143.71L465.42,151.84L460.08,161.44L461.1,166.18L455.44,168.83L454.31,170.46L447.98,168.64L440.63,169.23L437.26,172.45L432.06,171.76L426.26,168.75L421.18,171.06L417.85,166.89L412.48,165L404.44,167.91L403.26,172.69L401.46,174.41L401.17,180.25L396.85,175.55L393.92,178.85L391.31,173.17L388.97,173.67L385.5,170.82L385.44,167.25L383.28,166.19L380.56,160.62L380.88,157.72L385.32,157.19L387.35,155.19L400.53,154.6L402.74,151.8L404.83,143.09L404.69,128.02L414.23,125.66L423.88,115.86L441.02,103.71L450.03,97.26L459.01,99.64L463.53,103.59Z" class="land" id="NE" title="Niger"/>
    <path d="M518.85,385.59L524.21,384.48L529.99,386.67L524.59,387.97L519.84,391.3L518.26,388.31L504.36,390.36L503.45,416.23L497.59,416.23L496.86,435.76L495.72,461.64L491.3,464.81L484.67,464.6L480.92,463.37L478.84,458.68L475.13,462.8L471.07,458.22L469.02,454.14L467.09,446.61L466.61,437.57L464.81,431.72L465.25,421.17L464.14,417.56L459.21,408.61L457.66,403.46L453.62,394.63L449.68,388.13L449.57,382.85L454.38,382.59L457.7,380.87L462.64,383.83L480.37,383.85L489.2,383.9L491.69,386.47L507.07,388.12Z" class="land" id="NA" title="Namibia"/>
    <path d="M650.52,352.88L649.89,352.32L650.34,351.01L650.85,351.31Z" class="land" id="YT" title="Mayotte"/>
    <path d="M589.57,343.09L587.76,343.16L585.83,347.51L586.76,355.57L590.71,359.33L594.08,364.76L593.1,374.49L589.42,378.01L584.93,375.48L584.15,373.29L586.08,369.15L585.09,362.92L580.88,364.04L578.43,360.15L575.36,357.33L577.22,354.62L577.69,350.46L579.98,349.47L579.17,342.78L579.51,338.29L581.96,336.17L580.25,331.07L577.74,327.88L586.11,330.16L587.28,332.24L587.51,339.3Z" class="land" id="MW" title="Malawi"/>
    <path d="M721.19,405.57L719.79,403.77L721.07,402.15L722.21,403.66Z" class="land" id="MU" title="Mauritius"/>
    <path d="M306.11,158.44L302.7,155.39L299.5,149.67L296.77,149.05L294.25,146.01L289.41,145.56L283.1,146.24L280.8,151.22L280.87,148.07L283.79,139.23L283.91,132.39L281.51,126.48L283.47,120.4L282.26,117.41L278.62,116.33L279.23,112.66L302.58,112.62L302.77,100.91L308.79,97.62L309.26,79.82L328.78,79.82L328.94,70.74L338.7,77.75L351.29,86.86L340.9,86.87L343.08,112.96L344.14,125.2L345.99,146.09L347.58,148.1L346.63,153.61L324.73,153.62L315.64,154.13L314.43,156.04L310.84,152.63L308.57,157.13Z" class="land" id="MR" title="Mauritania"/>
    <path d="M571.58,450.35L567.07,450.28L566.54,444.08L567.47,433.54L565.31,426.65L564.24,419.05L571.07,411.55L571.94,407.18L575.4,401.28L573.99,395.15L575.86,390.64L576.13,379.08L570.2,377.09L566.12,374.25L561.36,374.05L561.21,371.58L560.4,367L578.43,360.15L580.88,364.04L585.09,362.92L586.08,369.15L584.15,373.29L584.93,375.48L589.42,378.01L593.1,374.49L594.08,364.76L590.71,359.33L586.76,355.57L585.83,347.51L587.76,343.16L589.57,343.09L594.55,342.21L598.9,344.05L605.05,343.77L607.42,341.1L610.83,341.93L619.97,337.78L622.91,335.28L622.33,341.36L623.04,350.5L622.85,362.79L623.88,365.61L621.99,370.39L617.38,377.14L612.64,380.91L606.94,382.8L601.39,386.29L596.9,391.75L586.93,400.85L585.22,405.01L588.06,413.77L588.01,419.02L589.28,423L586.05,434.1L575.08,439.17L571.64,441.87Z" class="land" id="MZ" title="Mozambique"/>
    <path d="M404.69,128.02L404.83,143.09L402.74,151.8L400.53,154.6L387.35,155.19L385.32,157.19L380.88,157.72L375.03,156.76L369,160.7L364.87,162.19L358.14,169.76L353.62,170.29L353,175.76L347.82,179.33L346.36,189.15L343.28,190.77L341.94,187.06L336.84,190.71L333.51,189.14L331.51,190.99L330.08,189.06L329.07,182.42L326.59,180.41L325.31,175.31L320.62,177.83L317.9,176.63L315.47,178.83L311.23,175.29L311.27,171.53L307.35,166.68L307.61,162.66L306.11,158.44L308.57,157.13L310.84,152.63L314.43,156.04L315.64,154.13L324.73,153.62L346.63,153.61L347.58,148.1L345.99,146.09L344.14,125.2L343.08,112.96L340.9,86.87L351.29,86.86L360.42,94L371.95,103.04L386.36,114.25L389.57,119.34L398.59,123.48L399.79,129.1Z" class="land" id="ML" title="Mali"/>
    <path d="M676.85,349.07L679.02,353.56L680.15,365.19L681.35,369.77L674.32,382.79L674.17,387.4L667.62,405.38L662.29,419.5L659.33,429.41L656.48,435.83L653.6,438.39L643.88,441.15L637.91,437.3L636.26,432.81L636.97,426.98L635.44,422.46L635.13,416.57L636.9,411.7L639.14,409.73L642.99,401.62L643.5,398.15L641.61,390.14L641.65,383.85L644.58,379.01L645.11,375.61L656.4,372.07L665.72,363.87L667.05,359.78L672.1,354.92L673.01,349.25Z" class="land" id="MG" title="Madagascar"/>
    <path d="M366.96,15.7L369.35,18.17L369.97,28.26L373.46,34.24L372.25,36.91L365.51,36.62L357.55,39.92L356.59,45.19L350.87,48.34L348.05,51.93L341.94,52.97L335.03,56.2L329.28,60.65L328.99,68.13L302.81,68.16L304.2,66.31L313.13,63.02L318.73,58.21L323.66,50.85L322.57,46.57L323.08,41.59L326.52,33.51L330.36,29.18L340.17,23.68L343.4,18.01L345.97,10.91L348.98,9.9L350.58,13.15L354.96,15.3L358.59,14.47Z" class="land" id="MA" title="Morocco"/>
    <path d="M541.13,464.86L545.9,462.55L550,467.4L547.98,471.97L543.78,473.58L541.37,477.06L537.89,474.77L536.26,470.18Z" class="land" id="LS" title="Lesotho"/>
    <path d="M524.34,39.97L522.77,42.22L523.72,46.15L522.5,50.69L524.47,57.39L525.3,71.62L526.47,93.75L527.14,107.97L527.66,122.03L521.81,122.03L521.95,125.53L510.33,118.89L492.97,108.91L473.7,97.78L467.87,100.94L463.53,103.59L459.01,99.64L450.03,97.26L447.2,91.66L439.8,89.71L438.2,84.5L434.86,79.32L437.19,75.91L436.41,70.42L437.33,67.22L436.7,58.9L434.62,50.01L438.55,46.11L437.83,41.31L441.8,36.97L445.63,34.62L445.46,29.22L449.97,31.49L455.71,31.1L466.72,34.79L468.77,39.96L472.5,42.72L479.62,44.01L484.57,46.15L489.05,49.58L493.47,48.18L495.78,44.03L494.21,38.82L497.9,33.46L503.57,30.94L512.06,33.18L513.36,36.03L521.48,37.42Z" class="land" id="LY" title="Libya"/>
    <path d="M328.42,209.22L329.55,212.61L327.68,216.57L331.98,218.48L334.59,221.23L334.01,231.66L324.45,226.74L317.57,219.58L310.18,213.78L315.4,207.81L317.63,202.73L322.23,203.71L324.6,211.62Z" class="land" id="LR" title="Liberia"/>
    <path d="M632.55,234.27L627.09,242.4L627.26,268.17L630.58,273.94L627.32,275.72L625.17,279.84L622.61,280.88L621.93,284.81L618.05,293.4L616.4,294.89L607.89,287.78L607.01,283.38L592.29,273.82L584.49,269.09L584.74,260.87L587.98,254.8L589.83,253.48L590.87,247.66L587.33,236.27L584.77,232.57L592.45,223.67L595.34,224.71L595.51,228.46L597.46,230.97L602.44,231.24L609.64,236.57L618.16,237.92L620.23,235.15L625.77,232.2L628.55,234.5Z" class="land" id="KE" title="Kenya"/>
    <path d="M437.54,254.87L438.8,245.97L439.89,246.93L448.04,246.93L448.09,255.09Z" class="land" id="GQ" title="Equatorial Guinea"/>
    <path d="M289.16,185.55L287.08,183.61L286.48,180.06L282.68,178.7L279.28,175.64L286.12,174.69L288.41,173.36L297.21,173.4L297.11,179.98L291.38,181.57Z" class="land" id="GW" title="Guinea-Bissau"/>
    <path d="M279.06,170.67L280.33,167L286.64,167.01L284.64,170.02Z" class="land" id="GM" title="Gambia"/>
    <path d="M311.23,175.29L315.47,178.83L317.9,176.63L320.62,177.83L325.31,175.31L326.59,180.41L329.07,182.42L330.08,189.06L331.51,190.99L332.45,202.86L329.95,209.23L328.42,209.22L324.6,211.62L322.23,203.71L317.63,202.73L315.22,196.93L312.16,192.29L304.36,193.1L302.79,196.52L299.54,198.79L297.14,193.17L292.8,190.39L290.77,185.61L289.16,185.55L291.38,181.57L297.11,179.98L297.21,173.4L301.09,173.69L305.81,175.83Z" class="land" id="GN" title="Guinea"/>
    <path d="M379.17,184.32L379.23,187.72L381.76,190.48L381.15,195.66L382.76,196.62L382.08,201.56L383.4,210.65L382.75,214.17L386.74,219.5L385.31,221.45L381.15,221.82L374.76,225.53L367.49,228.78L360.78,226.5L360.94,226.22L361.35,226.2L362.71,225.83L360.27,217.69L360.06,214.48L362.76,206.61L364.48,204.67L363.35,195.76L362.57,185.14L376.62,185.08Z" class="land" id="GH" title="Ghana"/>
    <path d="M459.91,246.97L459.8,253.41L465.28,252.5L466.82,256.41L463.5,260.75L463.35,263.51L467.1,266.4L466.5,275.3L464.7,279.33L458.09,278.26L449.52,278.85L449.29,281.92L451.68,285.29L446.8,289.47L442.09,283.15L437.74,278.63L435.57,274.84L432.9,267.03L435.77,264.54L437.54,254.87L448.09,255.09L448.04,246.93L448.15,246L459.47,246.31Z" class="land" id="GA" title="Gabon"/>
    <path d="M633.87,174.86L630.45,181L630.8,185.27L637.56,185.13L636.07,187.78L641.33,196.48L644.67,199.23L662.69,206.15L668.71,206.15L656.76,220.14L650.91,227.73L645.16,227.46L639.98,229.6L638,232.07L632.55,234.27L628.55,234.5L625.77,232.2L620.23,235.15L618.16,237.92L609.64,236.57L602.44,231.24L597.46,230.97L595.51,228.46L595.34,224.71L592.45,223.67L588.95,215.5L582.51,208.43L578.53,206.47L579.8,203.36L584.95,202.06L584.7,195.9L585.68,188.43L589.55,186.08L590.43,179.41L593.16,174.36L596.18,173.03L598.25,162.31L602.58,160.93L604.55,163.06L606.21,158.13L610.06,161.13L613.4,159.7L620.33,161.09L623.71,163.1Z" class="land" id="ET" title="Ethiopia"/>
    <path d="M296.99,64.52L298.24,60.73L299.24,61.59L298.58,63.92Z" class="land" id="ES" title="Canary Islands"/>
    <path d="M609.41,136.01L613.08,144.97L615.68,153.37L620.03,157L625.98,159.76L629.08,164.23L632.73,167L636.26,172.07L638.23,173.16L633.87,174.86L623.71,163.1L620.33,161.09L613.4,159.7L610.06,161.13L606.21,158.13L604.55,163.06L602.58,160.93L598.25,162.31L597.4,156.17L599.93,148L600.24,142.65L602.63,142.63L607.46,138.96Z" class="land" id="ER" title="Eritrea"/>
    <path d="M597.38,107.96L576.06,107.97L565.27,107.97L549.71,107.98L527.14,107.97L526.47,93.75L525.3,71.62L524.47,57.39L522.5,50.69L523.72,46.15L522.77,42.22L524.34,39.97L536.55,41.92L547.35,45.77L554.64,41.36L559.16,40.44L564.68,43.93L573.68,43.66L576.73,42.52L581.85,55.3L579.78,65.59L574.88,66.42L577.95,75.22L586.3,90.53L589.04,93.41L588.74,97.79L590.01,101.28Z" class="land" id="EG" title="Egypt"/>
    <path d="M428.01,2.83L426.13,5.58L427.3,15L426.54,18.3L422.47,22.9L424.02,28.86L427.4,33.71L431.56,37.03L434.62,50.01L436.7,58.9L437.33,67.22L436.41,70.42L437.19,75.91L434.86,79.32L438.2,84.5L439.8,89.71L447.2,91.66L450.03,97.26L441.02,103.71L423.88,115.86L414.23,125.66L404.69,128.02L399.79,129.1L398.59,123.48L389.57,119.34L386.36,114.25L371.95,103.04L360.42,94L351.29,86.86L338.7,77.75L328.94,70.74L328.99,68.13L329.28,60.65L335.03,56.2L341.94,52.97L348.05,51.93L350.87,48.34L356.59,45.19L357.55,39.92L365.51,36.62L372.25,36.91L373.46,34.24L369.97,28.26L369.35,18.17L366.96,15.7L368.7,15.77L374.37,11.74L379.85,10.11L386.69,5.76L394.24,5.19L400.92,3.12L406.45,3.11L408.95,4.65L416.19,1.79L418.7,2.95Z" class="land" id="DZ" title="Algeria"/>
    <path d="M639.36,181.63L637.56,185.13L630.8,185.27L630.45,181L633.87,174.86L638.23,173.16L640.15,176.79L636.61,179.95Z" class="land" id="DJ" title="Djibouti"/>
    <path d="M239.36,157.04L237.79,157.37L237.88,155.2Z" class="land" id="CV" title="Cape Verde"/>
    <path d="M640.57,345.35L639.18,344.3L640.13,343.34Z" class="land" id="KM" title="Comoros"/>
    <path d="M492,237.76L488.79,248.01L487.78,254.27L486.88,265.92L481.6,270.65L477.57,277.31L477.12,286.3L468.81,295.97L466.29,292.15L460.57,295.91L458.51,294.49L454.36,294.38L452.13,297.08L446.8,289.47L451.68,285.29L449.29,281.92L449.52,278.85L458.09,278.26L464.7,279.33L466.5,275.3L467.1,266.4L463.35,263.51L463.5,260.75L466.82,256.41L465.28,252.5L459.8,253.41L459.91,246.97L467.11,247.02L474.71,248.69L477.37,246.21L480.3,237.36L484.91,236.32Z" class="land" id="CG" title="Republic of Congo"/>
    <path d="M545.01,226.35L549.83,231.66L555.62,231.4L558.78,230.01L561.95,234.24L565.87,237.68L565.26,244.91L568.44,247.79L560.55,256.35L559.2,261.4L558.33,271.79L555.62,275.09L554.89,281.1L556.14,283.43L556.08,289.43L557.14,293.19L556.73,296.93L558.19,301.6L557.46,304.22L558.79,308.36L562.36,312.46L564.87,319.39L554.11,321.29L550.56,326.61L551.85,330.85L551.77,336.72L549.93,342.42L554.01,348.48L558.43,347.13L558.17,355.8L553.49,355.63L549.74,349.42L541.4,345.33L535.85,345.27L531.84,343.4L530.91,340.74L526.87,342.11L523.64,338.14L522.82,339.13L515.17,339.43L513.55,333.85L510.87,328.32L511.52,322.89L510.72,313.17L503.83,312.98L503.1,310.45L497.33,312.05L496.14,317.8L485.25,318.57L481.99,312.84L480.44,305.73L478.03,303.1L458.44,303.1L454.47,303.95L453.29,302.35L455.17,298.09L458.51,294.49L460.57,295.91L466.29,292.15L468.81,295.97L477.12,286.3L477.57,277.31L481.6,270.65L486.88,265.92L487.78,254.27L488.79,248.01L492,237.76L491.71,232.31L494.71,227.88L498.42,226.27L503.72,230.88L515,233.17L516.98,229.59L520.97,229.47L526.4,227.16L532.01,226.95L533.66,224.93L541.5,226.68Z" class="land" id="CD" title="Democratic Republic of Congo"/>
    <path d="M472.9,209.46L471.5,211.28L467.79,221.07L468.39,229.46L470.96,235.32L476.63,241.75L477.37,246.21L474.71,248.69L467.11,247.02L459.91,246.97L459.47,246.31L448.15,246L448.04,246.93L439.89,246.93L438.8,245.97L439.24,238.94L436.51,234.66L433.93,233.47L431.24,228.83L434.25,220.06L440.75,213.15L443.54,212.69L446.86,217.06L449.26,215.25L454.29,201.96L456.7,199.93L457.41,196.15L463.06,184.15L467.04,181.68L467.39,177.36L464.78,175.43L463.91,170.57L466.63,171.26L470.14,179.21L470.56,187.59L473.08,192.41L465.27,192.27L463.69,194.29L465.87,197.71L470.63,202.23Z" class="land" id="CM" title="Cameroon"/>
    <path d="M346.36,189.15L351.74,194.14L360.18,192.86L363.35,195.76L364.48,204.67L362.76,206.61L360.06,214.48L360.27,217.69L362.71,225.83L361.35,226.2L355.21,225.51L345.99,226.49L334.01,231.66L334.59,221.23L331.98,218.48L327.68,216.57L329.55,212.61L328.42,209.22L329.95,209.23L332.45,202.86L331.51,190.99L333.51,189.14L336.84,190.71L341.94,187.06L343.28,190.77Z" class="land" id="CI" title="Côte d'Ivoire"/>
    <path d="M516.98,185.69L521.86,193.37L521.33,200.42L525.02,201.47L525.93,204.09L529.34,205.17L532.6,210.8L538.59,215.68L539.56,219.64L543.02,221.69L545.01,226.35L541.5,226.68L533.66,224.93L532.01,226.95L526.4,227.16L520.97,229.47L516.98,229.59L515,233.17L503.72,230.88L498.42,226.27L494.71,227.88L491.71,232.31L492,237.76L484.91,236.32L480.3,237.36L477.37,246.21L476.63,241.75L470.96,235.32L468.39,229.46L467.79,221.07L471.5,211.28L472.9,209.46L478.31,208.34L480.76,209.27L485.94,206.24L490.79,205.91L494.68,201.54L494.86,199.02L502.06,198.24L504.62,196.29L510.24,189.56L514.77,185.16Z" class="land" id="CF" title="Central African Republic"/>
    <path d="M529.99,386.67L534.92,398.92L543.7,405.9L543.35,409.65L545.39,413.22L551.17,414.9L552.96,417.59L545.97,421.1L539.39,426.95L537.29,431.99L531.68,435.56L529.43,441.6L524.46,443.09L515.97,439.21L513.64,440.55L512.03,444.87L505.96,450.39L500.67,450.35L501.38,445.22L498.92,437.54L496.86,435.76L497.59,416.23L503.45,416.23L504.36,390.36L518.26,388.31L519.84,391.3L524.59,387.97Z" class="land" id="BW" title="Botswana"/>
    <path d="M380.88,157.72L380.56,160.62L383.28,166.19L385.44,167.25L385.5,170.82L388.97,173.67L391.31,173.17L393.92,178.85L391.47,182.2L388.15,182L384.99,185.18L379.17,184.32L376.62,185.08L362.57,185.14L363.35,195.76L360.18,192.86L351.74,194.14L346.36,189.15L347.82,179.33L353,175.76L353.62,170.29L358.14,169.76L364.87,162.19L369,160.7L375.03,156.76Z" class="land" id="BF" title="Burkina Faso"/>
    <path d="M401.17,180.25L400.53,182.36L402.63,187.88L397.91,198.54L396.29,198.79L395.77,207.01L395.91,217.54L389.37,218.61L389.21,198.78L387.58,192.15L384.27,189.61L384.99,185.18L388.15,182L391.47,182.2L393.92,178.85L396.85,175.55Z" class="land" id="BJ" title="Benin"/>
    <path d="M564.2,278.86L563.94,282.48L565.59,284.98L561.65,290.65L557.14,293.19L556.08,289.43L556.14,283.43L554.89,281.1L560.05,281.08L560.44,278.44Z" class="land" id="BI" title="Burundi"/>
    <path d="M453.29,302.35L452.13,297.08L454.36,294.38L458.51,294.49L455.17,298.09ZM523.64,338.14L523.55,349L522.56,353.05L511.38,353.05L510.85,373.77L511.74,378.27L518.85,385.59L507.07,388.12L491.69,386.47L489.2,383.9L480.37,383.85L462.64,383.83L457.7,380.87L454.38,382.59L449.57,382.85L449.77,372.9L451.09,371.52L454.8,356.12L457.46,351.48L460.08,349.69L462.36,344.73L462.8,339.42L457.85,325.37L460.18,320.62L453.81,304.69L458.44,303.1L478.03,303.1L480.44,305.73L481.99,312.84L485.25,318.57L496.14,317.8L497.33,312.05L503.1,310.45L503.83,312.98L510.72,313.17L511.52,322.89L510.87,328.32L513.55,333.85L515.17,339.43L522.82,339.13Z" class="land" id="AO" title="Angola"/>
  </g>
</svg>