<?xml version="1.0" encoding="UTF-8"?>
<svg xmlns="http://www.w3.org/2000/svg" width="965" height="332.28" viewBox="-2.5 86.86 965 332.28">
  <!-- Created using SVG Map Generator: dojo.amcharts.com/svg-map-generator -->
  <style>
    .land { fill: #ffffff; stroke: #000000; stroke-width: 0.5; }
  </style>
  <g id="polygons">
    <path d="M869.48,194.11L865.72,192.51L864.21,192.92L865.31,197.02L866.03,198.24L868.48,200.12L870.77,202.55L868.42,202.04L868.7,204.28L866.82,202.95L865.89,200.43L864.67,198.79L864.33,197.24L861.73,194.55L860.6,191.58L858.13,188.16L856.79,185.61L854.17,183.76L850.43,178.04L852.1,177.65L854.42,178.19L856.44,180.62L857.32,182.52L859.68,184.71L863.62,189L868.33,193.46ZM29.69,134.29L25.74,136.05L21.11,136.69L19.71,137.93L16.64,139.06L14.92,140.4L10.32,138.05L11.45,136.54L9.55,136.08L5.89,136.5L6.19,135.02L0,137.87L0.94,137.06L1.89,136.26L2.84,135.46L3.79,134.67L4.74,133.87L5.7,133.08L6.65,132.28L7.61,131.49L8.58,130.7L9.54,129.91L10.51,129.13L11.48,128.34L12.46,127.56L13.43,126.78L14.41,126L15.39,125.22L17.24,125.95L18.85,127.57L21.75,129.39L21.78,131.24L23.86,131.11L27.76,131.79ZM24.46,119.12L23.55,118.91L24.34,118.31L25.23,117.64L25.8,117.22L29.71,117.24L29.1,118.67ZM785.91,111.44L787.73,110.11L789.55,109.96L794.03,111.01L794.86,112.06ZM797.17,106.54L797.13,105.43L803.96,106.08L804.41,107.4L800.73,107.24ZM773.65,106.03L772.51,104.05L774.51,103.21L780.14,104.7L780.84,103.39L791.45,105L790.52,106.59L786,106.75L780.44,107.74L777.63,107.33ZM842.61,218.27L841.72,217.41L842.63,216.05L842.21,214.08L840.98,211.72L838.85,208.62L840.8,207.39L844.01,208.18L843.8,206.47L844.22,203.7L842.9,199.83L843.7,198.32L841.84,196.11L840.96,195.92L837.34,197.48L837.17,198.32L832.84,198.35L831.06,196.04L825.35,192.47L822.4,191.47L820.47,191.58L818.4,190.48L817.93,189.26L814.12,186.05L809.54,181.39L806.26,179.1L803.73,178.77L799.47,177.3L796.09,177.52L792.24,178.63L791.38,180L793.69,181.05L794.74,182.91L793.8,184.25L793.85,188.65L794.46,189.97L792.82,190.58L791.84,191.78L787.85,190.66L785.94,189.98L783.62,190.2L780.23,189.03L777.93,190.75L777.97,191.41L773.57,192.35L772.48,193.04L767.64,192.43L765.9,192.47L763.76,191.49L762.92,190.29L760.78,190.06L758.72,188.89L754.68,188.31L750.33,189.52L745.75,187.9L743.91,185.14L741.69,184.78L733.51,182.57L732.23,185.16L732.5,186.46L734.53,188.09L734.79,189.74L732.83,190.99L731.95,190.44L728.53,189.97L727.76,190.34L725.01,189.93L723.13,188.01L716.01,187.51L711.12,190.37L711.43,191.04L709.49,192.02L707.68,192L707.02,193.05L705.73,193.33L702.97,191.43L701.89,191.83L698.9,191.23L697.71,189.8L695.32,188.98L693.74,187.22L691.77,186.43L689.72,187.39L686.81,187.35L684.4,185.4L682.59,187.22L675.79,180.53L672.61,177.9L668.7,175.9L667.33,174.59L663.24,176.94L660.11,176.36L658.37,175.31L653.21,174.94L652.96,173.57L650.81,171.09L649.47,171.59L645.88,170.79L643.95,172.3L639.23,173.33L637.24,173.49L636.67,174.4L634.73,174.33L628.25,175.88L626.49,175.52L625.99,177.03L626.97,178.22L626.46,180.16L627.33,181.81L625.64,182.73L623.71,181.17L621.69,180.65L621,178.61L622.61,175.9L621.51,174.6L619.41,173.81L616.32,175.75L614.02,174.03L610.66,170.94L615.95,170.22L616.98,168.34L616.2,166.85L613.78,165.65L613.79,164.01L615.28,162.2L616.21,159.9L616.81,156.74L616.17,151.4L613.77,140.45L617.7,138.4L620.95,135.74L623.84,134.26L626.41,132.47L627.38,130.65L625.52,125.28L623.42,123.65L620.8,122.98L619.75,119.7L618.03,118.01L620.65,116.77L620.91,113.74L621.98,113.04L626.34,112.99L629.82,113.67L630.41,115.55L629.59,117.19L632.76,119.44L635.12,124.92L638.45,126.52L638.62,128.79L636.39,132.35L635.18,133.04L632.06,132.07L630.76,132.94L633.99,133.7L638.1,134.02L638.87,133L641.62,131.59L642.8,129.11L640.78,127.01L640.7,125.96L644.94,125.24L643.38,124.43L640.71,124.88L637.99,124.54L636.62,122.93L636.86,119.96L632.58,117.5L633.3,116.27L637.13,116.36L643.8,114.58L646.06,114.62L652.23,116.57L655.75,116.56L652.9,115.06L649.2,114.29L646.58,111.01L653.34,110.71L660.02,110.02L658.52,107.67L659.94,106.34L664.73,104.99L671.86,104.22L673.52,103.35L679.32,103.99L685.83,102.4L686.04,100.94L690.91,98.84L695.8,99.52L694.43,100.41L700.81,101.12L702.74,101.71L709.74,101.7L714.12,102.68L718.48,104.21L719.46,105.86L716.94,107.5L713.34,108.74L711.14,110.63L711.41,112.2L715.6,111.3L715.13,109.65L720.36,110.58L725.19,110.96L727.87,110.6L735.49,110.94L736.4,111.98L740.27,112.79L748.39,112.87L747.06,111.11L748.95,110.44L752.53,111.15L757.64,111.27L761.22,112.15L765.1,114.82L763.28,115.52L769.51,118.51L774.5,119.19L773.89,116.11L779.17,117.71L782.66,116.93L786.94,117.77L791.56,116.71L788.76,114.27L793.86,113.58L802.58,114.13L806.02,114.86L810.29,114.83L813.42,115.28L818.28,117.27L825.25,119.4L832.49,118.59L837.85,118.76L841.91,119.54L845.25,121.04L846.72,122.69L852.34,123.97L853.41,123.12L864.81,123.59L865.88,122.83L869.3,124.31L872.49,124.92L874.33,125.85L876.75,125.03L871.44,121.67L879.33,122.57L886.08,122.45L888.92,123.13L894.65,123.94L899.09,125.22L914.48,137.87L912.49,139.39L910.32,139.92L915.24,141.5L917.05,142.97L919.91,144.07L922.4,145.75L922.61,146.98L917.03,146.08L913.39,147.71L912.43,148.65L909.36,149.84L909.58,151.22L907.07,153.34L906.68,154.59L902.88,152.8L900.08,152.87L897.89,153.78L895.68,153.17L893.63,154.49L890.37,154.68L890.06,155.39L891.43,157.21L891.17,160.15L891.86,161.42L896.32,163.91L898.1,165.81L899.71,166.24L901.34,167.83L899.06,167.74L898.38,168.33L899.63,170.9L902.49,173.03L902.09,173.81L899.45,173.78L898.56,175.02L900.42,177.89L898.29,179.7L899.48,181.73L899.85,183.5L898.33,186.52L896.27,184.7L893.06,181L890.94,179.22L882.77,170.93L879.98,166.22L880.62,164.63L880.6,162.38L882.93,160.23L882.88,157.81L884.64,154.3L884.43,153.39L887.28,151.71L886.63,150.26L882.7,145.72L880.8,146.21L882.53,148.76L881.35,149.19L880.08,152.26L871.84,148.32L868.05,148.73L867.09,152.18L866.02,153.54L865.92,155.39L869.7,157.01L867.5,157.98L865.34,157.51L864.9,158.45L861.86,157.7L859.42,156.45L853.79,155.61L853.47,156.57L849.63,157.32L846.31,156.77L837.84,156.98L835.78,158.25L833.99,162.77L832.32,165.28L831.86,168.16L829.75,170.92L828.28,172.36L830.8,173.63L833.3,173.5L834.71,175.94L837.47,177.33L840.65,176.6L839.29,174.56L842.19,174.71L849.66,178.59L851.06,181.5L852.41,182.18L852.5,185.57L853.56,188.05L855.92,191.48L857.41,195.37L856.56,197.7L856.14,200.73L856.53,202.61L856.19,205.28L854.97,207.66L854.43,210.17L853.88,210.6L853.38,213.74L850.53,216.32L849.17,216.81L846.3,216.12L843.99,214.94ZM680.09,96.34L681.04,94.38L683.57,94.27L691.68,96.7L688.8,97.37L679.49,97.98ZM669.98,92.21L676.48,93.24L677.71,95.78L673.55,95.8L666.34,94.98L661.9,93.99L664.5,92.4ZM656.74,91.95L657.89,90.1L662.95,89.36L668.72,90.58L668.87,92.02L663.5,92.32L662.3,92.63Z" class="land" id="RU" title="Russia - Asia"/>
    <path d="M626.51,314.58L624.19,315.91L624,318.3L621.24,319.91L618.75,320.62L615.07,322.12L613.02,324.32L610.85,324.33L609.06,325.77L607.11,326.51L603.51,326.99L601.62,328.94L600.27,328.94L598.1,329.69L596.61,328.86L595.76,327.25L595.85,325.86L595.17,324.47L594.85,322.43L593.66,318.31L593.77,315.62L594.87,314.43L594.81,311.91L595.49,311.32L597.12,312.04L601.02,311.66L601.87,312.06L605.95,312.25L606.96,313.44L608.41,312.84L608.76,311.58L610.46,308.92L613.11,307.32L622.32,305.77L625.2,312.13Z" class="land" id="YE" title="Yemen"/>
    <path d="M566.36,258.82L564.77,258.36L564.59,256.25L565.19,254.85L566.34,255.37Z" class="land" id="PS" title="Palestinian Territories"/>
    <path d="M798.47,296.34L796.85,297.18L796.84,298.04L794.75,298.39L794.71,300.92L793.25,302.23L792.71,305.88L793.83,307.62L796.1,309.71L796.17,310.56L798.87,313.64L801.88,315.77L804.91,319.34L806.08,321.82L807.18,325.05L807.34,327.21L807.97,328.42L807.44,329.58L807.75,333.03L806.69,334.56L805.06,335.99L802,337.99L800.55,337.86L800.03,340.83L796.75,342.88L796.25,343.97L794.63,343.97L794.48,340.96L794.93,339.23L792.88,337.94L794.21,337.48L795.79,335.97L798.28,335.69L797.17,334.64L797.03,333.36L798.59,333.19L798.72,332.19L802.06,330.63L801.69,328.14L801.93,326.61L800.75,324.03L801.08,321.86L801.24,319.8L799.51,317.96L800.02,316.85L797.56,315.29L796.68,313.43L793.65,310.49L792.67,308.93L789.93,306.49L787,304.48L787.22,303.22L788.89,303.46L789.85,301.93L788.34,299.57L786.47,298.47L785.31,299.38L783.5,298.65L781.69,295.76L779.4,293.06L780.37,291.7L782.12,292.78L782.83,291.61L786.25,291.84L787.43,291.06L788.61,289.43L790.72,291.02L792.93,291.07L793.3,293L794.19,294.48L796.44,295.96Z" class="land" id="VN" title="Vietnam"/>
    <path d="M666.5,218.48L666.42,219.33L664.9,220.99L666.98,222.14L668.95,222.61L669.82,221.58L672.92,223.61L674.35,223.92L670.73,226.28L668.47,225.96L666.55,225.16L667.38,224.09L666.19,223.03L664.37,224.4L663.36,223.88L661.95,228.21L659.37,228.26L658.6,229.68L661.18,231.82L662.46,234.21L661.47,236.25L661.56,237.43L657.69,236.77L657.31,234.29L654.23,233.43L649.3,230.76L644.05,227.38L640.81,222.77L636.41,222.29L635.18,221.63L634.81,219.74L633.76,218.3L632.55,218.28L629.62,216.51L628.72,216.84L627.82,218.69L626.57,218.82L625.57,219.93L626.19,222.14L623.06,221.92L621.26,213.4L620.13,208.31L627.14,206.24L635.32,210.53L639,213.86L642.44,213.36L646.13,213.64L647.33,213.04L651.52,215.72L652.16,219.38L653.62,219.42L655.33,222.59L658.6,222.39L660.15,224.4L661.79,221.75Z" class="land" id="UZ" title="Uzbekistan"/>
    <path d="M838.76,292.15L837.63,293.15L836.67,292.45L835.36,290.17L835.14,288.06L836.71,283.08L838.21,282.17L839.55,283.31L839.37,290.85Z" class="land" id="TW" title="Taiwan"/>
    <path d="M859.56,412.43L859.29,410.3L860.21,409.2L862.28,408.61L864.92,408.49L865.78,409.45L860.74,411.55Z" class="land" id="TL" title="Timor-Leste"/>
    <path d="M657.69,236.77L655.23,235.94L654.85,237.13L652.72,237.58L652.4,240.55L650.68,241.78L648.54,242.51L648.66,243.91L646.35,244.64L643.09,243.25L641.93,239.41L639.58,239.43L638.5,238.21L636.84,237.4L635.63,236.12L633.12,235.68L629.85,234.52L628.97,233.52L626.69,233.39L626.18,234.05L624.2,233.95L622.83,234.69L622.1,236.19L619.7,236.79L619.05,234.6L618.49,230.78L615.94,228.97L616.81,228.09L615.15,226.9L614.11,225.36L615.03,223.77L617.31,224.43L619.63,223.53L619.05,222.4L617.34,221.19L616.18,219.06L613.68,219.49L612.42,220.22L614.34,218.63L616.81,218.15L619.43,219.7L621.83,222.14L623.06,221.92L626.19,222.14L625.57,219.93L626.57,218.82L627.82,218.69L628.72,216.84L629.62,216.51L632.55,218.28L633.76,218.3L634.81,219.74L635.18,221.63L636.41,222.29L640.81,222.77L644.05,227.38L649.3,230.76L654.23,233.43L657.31,234.29Z" class="land" id="TM" title="Turkmenistan"/>
    <path d="M668.47,225.96L667.13,226.67L665.55,226.09L664.35,226.49L663.75,227.74L665.02,228.44L670.39,228.35L672.53,229.27L677.18,228.91L678.48,232.06L681.4,232.42L683.01,237.21L680.94,236.52L679.57,237.21L678.55,236.31L676.96,237.07L674.16,239.22L672.68,237.6L672.48,234.84L671.11,233.18L669.85,232.62L668.31,234.75L668.54,235.89L666.83,235.85L666.15,237.67L665.06,236.86L662.67,238.26L661.56,237.43L661.47,236.25L662.46,234.21L661.18,231.82L658.6,229.68L659.37,228.26L661.95,228.21L663.36,223.88L664.37,224.4L666.19,223.03L667.38,224.09L666.55,225.16Z" class="land" id="TJ" title="Tajikistan"/>
    <path d="M774.43,300.81L775.9,301.67L775.65,302.92L776.52,303.88L778.15,303.58L778.93,305.84L778.51,307.98L779.2,311.46L781.96,308.72L784.1,309.91L785.15,308.99L786.25,307.94L787.78,308.31L791.11,312.13L791.26,314.58L792.46,316.41L794.53,318.14L794.35,319.41L794.62,322.52L793.77,323.21L792.44,322.9L787.43,323.26L784.96,326.23L785.89,329.49L786.8,330.4L787.64,333.1L786.98,331.95L783.39,329.42L780.62,329.32L780.66,326.63L779.64,326.3L777.66,326.93L778.02,331.36L777.11,334.01L776.85,336.15L776,338.29L776.16,340.48L777.06,342.43L778.09,342.05L779.03,344.46L780.16,345.96L781.4,350.05L782.86,351.23L784.4,351.21L786.47,353.54L785.81,355.1L783.83,355.23L783.09,353.54L780.75,352.39L780.04,352.79L778.59,351.17L776.29,347.39L774.66,345.68L773.54,345.38L773.75,342.14L774.55,338.77L774.58,337.01L775.83,335.35L776.96,332.82L776.01,329.95L775.34,329.23L774.69,325.57L771.37,321.45L771.02,320L772.13,319.25L772.1,315.87L770.97,313.35L768.54,310.71L767.13,307.65L767.91,307.18L767.63,304.03L768.84,303.16L770.94,302.85L773.63,300.41Z" class="land" id="TH" title="Thailand"/>
    <path d="M585,237.67L583.54,239.58L582.45,239.89L582.15,241.55L582.68,243.18L582.6,246.45L581.26,248.09L575.83,251.7L570.25,255.67L568.86,255.4L566.93,254.1L566.92,251.47L567.06,250.59L568.8,248.51L568.18,247.03L566.78,246.97L566.44,244.74L565.76,243.44L566.75,242.46L567.94,238.82L570.36,239.41L572.53,238.44L574.36,239.22L576.15,239.27L580.02,237.71Z" class="land" id="SY" title="Syria"/>
    <path d="M793.07,371.89L792.59,372.14L792.04,371.92L792.58,371.46Z" class="land" id="SG" title="Singapore"/>
    <path d="M601.52,267.79L604.36,268.19L605.3,269.91L607.69,269.87L609.53,273.31L611.27,275L613.23,276.32L614.15,278.28L613.66,279.03L615.72,282.88L616.61,284L618.14,284.68L619.2,285.89L619.36,286.67L622.82,290.98L630.97,292.15L631.2,291.84L632.9,294.48L631.52,302.02L622.32,305.77L613.11,307.32L610.46,308.92L608.76,311.58L608.41,312.84L606.96,313.44L605.95,312.25L601.87,312.06L601.02,311.66L597.12,312.04L595.49,311.32L594.81,311.91L594.87,314.43L593.77,315.62L591.93,311.63L590.1,309.94L588.26,306.96L586.51,302.92L582.69,300.06L580.84,297.08L580.36,294.93L580.57,293.01L579.94,291.17L578.21,288.05L576.37,286.27L575.15,285.87L573.87,283.88L573.63,282.11L571.42,279.05L570.43,277.21L566.66,271.79L564.87,271.36L565.53,266.82L568.89,267.44L570.95,264.89L573.11,264.41L574.51,262.51L570.99,258.77L577.07,256.83L577.47,256.39L581.31,257.09L586.91,260.32L589.57,262.52L595.86,267.42Z" class="land" id="SA" title="Saudi Arabia"/>
    <path d="M618.14,284.68L616.61,284L616.22,281.53L616.76,279.51L618.48,279.81L618.97,282.65Z" class="land" id="QA" title="Qatar"/>
    <path d="M841.72,217.41L842.61,218.27L841.94,218.28L840.93,220.47L842.29,223.65L839.51,226.71L837.74,227.66L838.17,229.81L839.54,230.27L842.05,231.99L841.55,233.17L838.94,233.19L838.15,235.15L835.93,234.8L834.67,235.34L833.42,234.19L831.77,233.84L832.24,232.24L832.1,229.51L831.57,228.62L828.75,227.63L827.82,226.83L828.64,225.13L831.17,223.47L832.37,220.21L833.62,221.14L836.63,221.67L835.38,219.45L837.89,219.26L838.36,217.86L839.45,217.63L839.02,215.69Z" class="land" id="KP" title="North Korea"/>
    <path d="M960,401.86L959.18,402.52L958.01,401.99L957.68,400.45L956.42,399.18L957.23,397.57ZM947.57,392.93L949.14,393.09L949.04,394.55L947.73,395.57L948.07,396.89L945.99,397.62L944.98,399L942.29,400.33L939.79,400.38L935.9,398.42L935.77,397.59L942.07,397.56L944.21,397.14L945.53,395.41L946.65,395.12L946.38,393.11ZM910.89,410.96L911.79,400.59L912.3,391.91L912.49,386.62L913.18,386.69L916.44,388.39L920.58,389.69L922.16,391.01L923.64,391.17L925.52,393.12L926.31,393.26L927.62,394.9L927.75,397.32L929.49,397.86L931.45,398.99L932.54,399.11L933.82,400.47L933.86,401.77L931.5,401.99L930.92,402.77L931.52,404.45L933.08,406.31L934.29,407.16L934.51,408.85L935.4,410.71L937.53,410.78L937.25,412.04L939.14,414.3L941.58,415.22L940.81,416.64L939.34,416.42L938.6,415.58L932.35,414.52L929.34,410.61L927.56,407.06L924.24,406.03L922.82,405.15L919.72,407.52L918.01,407.94L918.64,410.37L916.19,411.74L914.91,411.15L911.36,411.34ZM950.86,394.65L949.99,393.68L949.83,391.8L951.16,392.21L951.48,393.14Z" class="land" id="PG" title="Papua New Guinea"/>
    <path d="M862.65,342.02L863.82,343.81L864.52,347.59L865.15,349.78L863.67,351.7L862.69,349.46L861.47,351.47L862.53,354.53L861.91,355.7L859.19,354.45L857.3,352.93L856.85,350.73L857.46,349.22L856.62,348.22L855.04,347.68L854.83,349.18L850.66,347.67L851.26,346.86L853.07,346.38L854.58,344.34L857.27,345.95L857.89,344.7L858.8,344.86L859.11,343.33L861.19,342.7L860.93,340.39ZM857.94,340.28L855.88,340.89L856.46,338.98ZM853.49,342.99L851.52,341.42L851.05,339.63L852.24,339.16L851.96,337.6L852.34,336.17L854.26,336.56L853.31,339.99L853.96,341.89ZM834.95,345.32L834.99,344.3L837.25,341.93L839.82,338.16L840.4,336.32L841.87,337.42L840.47,339.26L839.2,339.8L838.31,342.27ZM857.26,334.46L858.39,334.35L858.9,336.54L859.88,338.5L858.4,338.86L858.18,336.56L857.02,336.03ZM850.48,333.44L852.63,333.74L851.68,336.4L849.92,337.15L849.07,336.22L849.2,333.33ZM858.87,330.02L859.97,331.28L859.83,332.18L860.74,335.25L859.46,335.2L858.07,332.84L856.49,331.43L855.81,329.87ZM843.87,326.46L845.49,326.63L846.66,327.76L846.95,329.61L846.17,331.18L845.03,330.08L843.35,327.28ZM842.12,307.2L844.7,308.4L846.07,308L846.03,310.42L847.61,312.79L846.97,316.32L845.4,317.26L845.1,319.54L846.39,321.74L847.06,324.08L849.16,323.3L850.37,323.57L851.83,325.45L855.11,328.12L855.06,329.87L852.44,328.09L851.77,326.6L849.71,324.85L849.32,326.41L847.08,324.74L845.39,325.86L843.23,323.8L843.82,321.82L841.17,321.32L839.53,315.79L840.75,316.83L841,313.43L840.4,310.87L840.59,307.6Z" class="land" id="PH" title="Philippines"/>
    <path d="M693.36,243.72L691.42,245.17L690.36,246.57L687.86,247.45L683.36,246.46L682.42,246.88L683.92,251.19L683.65,252.19L686.25,254.91L688.5,255.81L686.4,257.94L687.28,260.49L685.45,262.75L685.42,264.04L684.21,264.63L683.34,268.04L681.78,269.09L680.82,272.06L677.44,272.94L676.22,271.82L674.13,275.02L674.04,276.42L676.38,277.67L676.36,279.17L677.15,280.55L678.52,281.62L680.17,284.38L680.31,285.46L678.74,285.39L676.26,286.32L673.11,285.97L673.25,287.1L671.55,287.5L670.01,287.68L668.7,286.31L667.97,284.12L666.45,283.73L666.24,282.36L665.21,281.04L662.98,281.87L660.18,282.05L659.87,282.51L656.83,281.75L656.2,282.41L653.3,282.25L652.55,282.7L650.24,282.45L650.61,278.53L652.23,277.33L654.45,276.94L654.13,274.73L652.87,274.74L652.39,271.91L650.96,270.35L648.49,268.94L647.22,266.75L645.47,264.92L650.78,266.61L654.11,266.28L655.82,266.68L657.02,266.03L658.81,266.05L661.98,265.01L661.98,260.95L663.35,259.47L664.52,259.8L665.22,258.72L666.97,257.59L669.11,258.24L670.16,257.1L669.69,255.23L670.07,253.02L672.2,251.71L670.53,249.72L674.03,249.15L673.39,247.34L674.87,244.89L673.75,242.45L672.84,241.67L673.83,240.19L676.52,238.71L679.93,238.49L682.15,237.99L684.67,238.4L686.4,239.39L687.28,241.76L688.39,242.54L692.31,243.79Z" class="land" id="PK" title="Pakistan"/>
    <path d="M634.04,283.28L635.06,285.2L637.11,287.26L641.5,288.31L645.94,293.66L644.88,296.37L643.52,297.82L642.46,300.47L640.57,301.08L640.33,303.48L640.84,305.69L638.86,306.12L637.31,307.3L637.11,308.89L636.28,309.69L633.8,310.1L632.71,313.11L629.55,313.24L628.16,314.16L626.51,314.58L625.2,312.13L622.32,305.77L631.52,302.02L632.9,294.48L631.2,291.84L631.11,290.6L632.39,286.05L633.13,284.19Z" class="land" id="OM" title="Oman"/>
    <path d="M731.41,272.4L731.58,275.18L732.43,276.72L732.31,277.83L729.97,278.09L728.98,277.35L726.94,277.28L723.47,276.66L721.36,275.53L720.94,274.56L719.18,273.83L716.77,274.28L711.94,272.42L707.44,269.47L705.71,268.79L706.07,265.4L707.62,263.77L708.75,263.12L710.69,263.16L711.21,263.95L714.69,265.85L716.34,267.46L717.92,267.32L718.55,268.48L721.78,270.73L723.54,270.87L726.07,272.19L726.41,271.6L728.42,272.53Z" class="land" id="NP" title="Nepal"/>
    <path d="M786.47,353.54L789.44,356.22L790.95,358.74L791.18,360.45L790.92,362.78L791.26,365.91L792.49,367.23L794.1,371.34L792.18,371.45L789.04,369.94L784.34,366.09L784.32,364.71L782.35,362.05L781.94,359.48L780.95,355.99L780.85,354.5L780.04,352.79L780.75,352.39L783.09,353.54L783.83,355.23L785.81,355.1ZM836.75,361.28L835.19,360.66L831.3,360.62L830.3,362.15L830.04,365.53L828.87,366.25L829.2,367.44L827.96,368.46L828.12,369.47L827.23,371.39L825.15,371.51L824.26,372.25L820.54,371.04L818.28,373.13L815.6,373.07L814.2,373.65L811.42,370.83L811.32,369.29L812.48,370.45L815.58,371.2L816.26,370.37L816.5,367.77L818.03,366.2L822.24,364.89L824.95,361.01L825.35,359.71L827.19,361.83L827.89,360.45L827.53,359.24L828.41,358.56L828.77,358.56L829.97,358L829.58,356.64L830.78,356.18L831.76,353.96L832.82,352.49L835.36,351.91L836.42,352.53L836.57,354.67L837.79,354.25L839.79,355.97L841.86,356.64L841.62,357.81L838.61,358.82L839.7,360.57Z" class="land" id="MY" title="Malaysia"/>
    <path d="M787.85,190.66L788.22,197.48L789.68,198.43L791.81,197.76L793.91,198.55L794.48,197.33L796.57,197.34L801.63,200.39L802.64,202.38L798.4,201.98L796.24,203.28L794.14,203.54L794.09,205.36L793.06,206.6L789.84,206.94L788.19,209.23L782.74,208.05L782.45,210.62L785.07,213.05L782.95,214.42L782.06,216.53L779.73,217.71L776,217.74L772.11,218.33L768.27,220.37L766,219.86L763.86,220.32L761.61,219.38L758.06,218.6L756.95,217.67L751.55,216.88L750.18,217.29L743.22,216.47L740.9,216.72L738.85,214.92L735.72,210.95L733.75,210.69L729.91,208.66L727.19,208.16L723.63,208.01L721.41,207.57L720.34,206.35L720.62,204.48L718.94,201.1L716.31,198.47L713.68,197.27L712.21,197.27L708.37,195.26L707.02,193.05L707.68,192L709.49,192.02L711.43,191.04L711.12,190.37L716.01,187.51L723.13,188.01L725.01,189.93L727.76,190.34L728.53,189.97L731.95,190.44L732.83,190.99L734.79,189.74L734.53,188.09L732.5,186.46L732.23,185.16L733.51,182.57L741.69,184.78L743.91,185.14L745.75,187.9L750.33,189.52L754.68,188.31L758.72,188.89L760.78,190.06L762.92,190.29L763.76,191.49L765.9,192.47L767.64,192.43L772.48,193.04L773.57,192.35L777.97,191.41L777.93,190.75L780.23,189.03L783.62,190.2L785.94,189.98Z" class="land" id="MN" title="Mongolia"/>
    <path d="M776.84,296.11L775.8,297.07L774.57,299.26L774.43,300.81L773.63,300.41L770.94,302.85L768.84,303.16L767.63,304.03L767.91,307.18L767.13,307.65L768.54,310.71L770.97,313.35L772.1,315.87L772.13,319.25L771.02,320L771.37,321.45L774.69,325.57L775.34,329.23L776.01,329.95L776.96,332.82L775.83,335.35L774.58,337.01L774.55,338.77L773.64,336.95L774.22,335.79L774.23,333.53L773.12,327.65L771.83,325.51L769.97,321.29L768.57,315L767.8,315.05L766.9,313.03L765.38,314.9L762.83,316.38L761.84,318.05L760.37,317.69L759.02,315.93L757.9,316.54L758.4,311.12L757.57,308.75L756.06,306.16L754.83,305.66L755.53,304.1L753.16,301.78L752.01,301.72L750.88,299.89L749.45,299.03L748.69,297.14L749.9,296.49L749.52,294.57L750.73,294.47L751.13,293.13L750.64,291.79L751.27,290.23L750.48,286.88L753.16,287.43L754.14,283.02L753.61,281.66L754.72,279.29L754.28,277.2L756.69,274.86L758.48,274.4L760.06,272.15L759.78,271.1L760.2,270L762.26,271.38L763.39,273.61L764.46,273.53L765.54,277.25L765.84,279.75L763.58,283.08L763.41,285.12L764.33,287.35L765.83,286.55L767.56,286.53L768.54,290.01L770.11,290.37L770.52,292.62L770.32,294.01L772.67,294.38L773.99,296.51L775.82,295.78Z" class="land" id="MM" title="Myanmar"/>
    <path d="M694.52,361.31L694.4,361.28L694.49,361.04L694.57,361.01Z" class="land" id="MV" title="Maldives"/>
    <path d="M815.35,293.75L815.36,293.58L815.54,293.64Z" class="land" id="MO" title="Macau"/>
    <path d="M714.46,340.18L715.34,340.25L716.91,341.86L719.24,345.35L719.51,346.52L721.08,349.63L721.1,351.07L720.46,352.86L717.58,354.52L715.53,353.87L714.66,351.34L714.31,348.52L714.5,343.6L715.01,342Z" class="land" id="LK" title="Sri Lanka"/>
    <path d="M566.92,251.47L565.66,252.81L564.73,252.78L566.78,246.97L568.18,247.03L568.8,248.51L567.06,250.59Z" class="land" id="LB" title="Lebanon"/>
    <path d="M779.4,293.06L781.69,295.76L783.5,298.65L785.31,299.38L786.47,298.47L788.34,299.57L789.85,301.93L788.89,303.46L787.22,303.22L787,304.48L789.93,306.49L792.67,308.93L793.65,310.49L796.68,313.43L797.56,315.29L800.02,316.85L799.51,317.96L801.24,319.8L801.08,321.86L799.02,323.33L797.88,322.34L796.32,323.22L796.27,324.79L793.77,323.21L794.62,322.52L794.35,319.41L794.53,318.14L792.46,316.41L791.26,314.58L791.11,312.13L787.78,308.31L786.25,307.94L785.15,308.99L784.1,309.91L781.96,308.72L779.2,311.46L778.51,307.98L778.93,305.84L778.15,303.58L776.52,303.88L775.65,302.92L775.9,301.67L774.43,300.81L774.57,299.26L775.8,297.07L776.84,296.11L777.33,297.4L778.9,297.68L778.61,295.32L777.58,293.53Z" class="land" id="LA" title="Lao People's Democratic Republic"/>
    <path d="M607.69,269.87L605.3,269.91L604.36,268.19L601.52,267.79L602.95,264.53L604.62,264.03L605.61,264.45L605.75,265.83Z" class="land" id="KW" title="Kuwait"/>
    <path d="M842.05,231.99L843.5,233.67L847.07,237.04L848.32,239.04L849.15,241.63L849.79,242.02L849.87,244.9L847.85,245.2L847.98,246.07L845.64,245.75L844.05,247.06L842.54,247.48L841.03,245L841.43,242.69L839.88,240.03L838.29,238.56L839.4,237.35L838.15,235.15L838.94,233.19L841.55,233.17Z" class="land" id="KR" title="South Korea"/>
    <path d="M792.88,337.94L792.31,337.46L789.95,337.22L790.46,336.15L789.76,335.19L788.62,336.07L788.35,334.02L787.64,333.1L786.8,330.4L785.89,329.49L784.96,326.23L787.43,323.26L792.44,322.9L793.77,323.21L796.27,324.79L796.32,323.22L797.88,322.34L799.02,323.33L801.08,321.86L800.75,324.03L801.93,326.61L801.69,328.14L802.06,330.63L798.72,332.19L798.59,333.19L797.03,333.36L797.17,334.64L798.28,335.69L795.79,335.97L794.21,337.48Z" class="land" id="KH" title="Cambodia"/>
    <path d="M693.89,218.69L694.08,219.28L691.63,220.21L689.32,221.74L688.93,222.84L685.17,223.19L684.69,225.17L683.03,225.72L681.87,224.59L677.69,226.69L677.88,228.32L677.18,228.91L672.53,229.27L670.39,228.35L665.02,228.44L663.75,227.74L664.35,226.49L665.55,226.09L667.13,226.67L668.47,225.96L670.73,226.28L674.35,223.92L672.92,223.61L669.82,221.58L668.95,222.61L666.98,222.14L664.9,220.99L666.42,219.33L666.5,218.48L666.93,216.67L668.49,216.35L671.81,217.32L673.45,217.19L673.42,215.68L675.09,214.8L677.91,216.04L683.41,215.79L690.18,216.58L691.47,217.7Z" class="land" id="KG" title="Kyrgyzstan"/>
    <path d="M705.73,193.33L704.22,193.61L704.32,195.36L702.24,195.88L702.25,197.59L703.52,200.01L701.58,201.56L696.53,200.26L696.19,200.82L696.16,206.37L697.09,207.83L694.31,207.14L690.19,208.27L691.66,209.23L692.14,211.62L694.49,215.09L693.23,216.93L693.89,218.69L691.47,217.7L690.18,216.58L683.41,215.79L677.91,216.04L675.09,214.8L673.42,215.68L673.45,217.19L671.81,217.32L668.49,216.35L666.93,216.67L666.5,218.48L661.79,221.75L660.15,224.4L658.6,222.39L655.33,222.59L653.62,219.42L652.16,219.38L651.52,215.72L647.33,213.04L646.13,213.64L642.44,213.36L639,213.86L635.32,210.53L627.14,206.24L620.13,208.31L621.26,213.4L623.06,221.92L621.83,222.14L619.43,219.7L616.81,218.15L614.34,218.63L612.42,220.22L612,216.58L609.68,216.02L607.66,213.9L605.76,211.27L605.52,209.66L606.58,206.97L609.78,206.82L610.9,203.9L610.61,202.15L609.64,201.11L607.64,201.53L604.51,200.54L599.35,203.33L598.38,201.77L595.19,198.21L592.13,197.47L590.54,195.78L591.02,193.28L590.21,192.31L590.98,189.03L591.97,188.65L594.47,190.64L595.48,189.97L594.9,187.85L596.43,186.11L598.36,185.37L599.51,183.79L602.01,184.67L603.86,183.96L604.71,184.68L606.86,184.67L610.56,187.2L611.22,186.42L614.61,187.84L616.16,186.34L618.96,186.81L621.37,186.18L623.22,187.51L625.95,187.92L630.11,186.91L629.42,184.82L626.68,184.07L625.64,182.73L627.33,181.81L626.46,180.16L626.97,178.22L625.99,177.03L626.49,175.52L628.25,175.88L634.73,174.33L636.67,174.4L637.24,173.49L639.23,173.33L643.95,172.3L645.88,170.79L649.47,171.59L650.81,171.09L652.96,173.57L653.21,174.94L658.37,175.31L660.11,176.36L663.24,176.94L667.33,174.59L668.7,175.9L672.61,177.9L675.79,180.53L682.59,187.22L684.4,185.4L686.81,187.35L689.72,187.39L691.77,186.43L693.74,187.22L695.32,188.98L697.71,189.8L698.9,191.23L701.89,191.83L702.97,191.43Z" class="land" id="KZ" title="Kazakhstan"/>
    <path d="M858.11,250.83L859.28,250.64L860.8,252.14L861.62,253.69L861.21,254.63L861.59,259.1L859.57,259.95L857.17,256.52L857.83,254.53L853.74,252.21L857.05,249.82ZM866.88,248.37L868.68,250.01L867.8,252.17L865.75,251.18L864.9,251.75L864.69,253.69L863.1,253.41L861.87,251.17L862.47,249.37L864.87,249.27L865.87,247.99ZM875.51,221.73L877.65,224.57L880.61,227.43L881.72,230.17L881.24,230.68L881.68,232.82L880.72,233.06L880.86,234.52L882.6,238.07L882.4,239.94L883.12,241.6L884.43,242.86L883.51,243.66L883.64,245L882.39,245.74L881.22,244.04L880.21,244.54L880.3,246.71L878.47,245.26L878.04,247.1L873.75,246.31L874.39,248.12L873.01,248.67L872.66,250.99L871.25,251.02L869.1,248.26L869.65,247.46L867.29,246.46L863.11,248.2L860.46,248.49L859.2,249.14L856.8,249.43L856.46,247.86L857.5,247.79L860.64,243.66L864.52,243.56L867.11,242.78L869.02,243.69L870.14,239.04L872.04,238.93L872.26,238.26L874.25,237.26L874.9,234.91L875.94,233.79L875.6,229.05L873.09,224.62L873.69,223.69L876.11,223.56ZM877.63,211.55L880.85,212.2L882.1,212.85L884.05,215.03L882.42,215.88L880.61,216.12L880.04,217.18L880.22,219.4L874.99,217.25L872.9,218.13L870.94,218.16L872.97,220.08L872.73,221.19L869.38,217.96L869.07,216.99L870.57,214.89L872.11,214.95L871.46,211.91L870.41,209.34L868.9,207.71L869.17,206.41L872.88,208.96Z" class="land" id="JP" title="Japan"/>
    <path d="M577.47,256.39L577.07,256.83L570.99,258.77L574.51,262.51L573.11,264.41L570.95,264.89L568.89,267.44L565.53,266.82L565.54,266.06L566.36,258.82L566.34,255.37L566.93,254.1L568.86,255.4L570.25,255.67L575.83,251.7Z" class="land" id="JO" title="Jordan"/>
    <path d="M566.93,254.1L566.34,255.37L565.19,254.85L564.59,256.25L564.77,258.36L566.36,258.82L565.54,266.06L562.74,259.84L563.33,258.42L563.84,257.25L564.73,252.78L565.66,252.81L566.92,251.47Z" class="land" id="IL" title="Israel"/>
    <path d="M592.24,237.54L594.64,241.77L595.83,242.44L597.45,245.1L596.23,246.34L595.79,249.45L598.44,252.24L598.48,253.26L602.59,255.27L604.31,257.63L604.22,260.62L605.25,260.66L605.51,262.64L607.38,264.53L605.61,264.45L604.62,264.03L602.95,264.53L601.52,267.79L595.86,267.42L589.57,262.52L586.91,260.32L581.31,257.09L577.47,256.39L575.83,251.7L581.26,248.09L582.6,246.45L582.68,243.18L582.15,241.55L582.45,239.89L583.54,239.58L585,237.67L586.12,236.68L588.42,237.16L590.33,237.01L590.87,238.16Z" class="land" id="IQ" title="Iraq"/>
    <path d="M619.7,236.79L622.1,236.19L622.83,234.69L624.2,233.95L626.18,234.05L626.69,233.39L628.97,233.52L629.85,234.52L633.12,235.68L635.63,236.12L636.84,237.4L638.5,238.21L639.58,239.43L641.93,239.41L643.09,243.25L643.06,246.12L641.76,248.98L642.14,250.7L643.47,251.2L642.61,252.58L644,255.92L644.54,258.81L647.09,259.18L647.8,261.25L646.12,263.9L645.47,264.92L647.22,266.75L648.49,268.94L650.96,270.35L652.39,271.91L652.87,274.74L654.13,274.73L654.45,276.94L652.23,277.33L650.61,278.53L650.24,282.45L649.74,282.82L643.43,281.4L639.45,280.98L636.64,280.23L635.02,276.04L632.93,274.93L630.83,275.76L628.67,277.35L624.88,276.71L621.45,274.46L620.64,273.36L618.02,272.5L616.69,271.42L615.74,269.18L614.35,267.6L614.14,266.57L611.7,263.6L610.47,264.28L608.46,263.93L607.38,264.53L605.51,262.64L605.25,260.66L604.22,260.62L604.31,257.63L602.59,255.27L598.48,253.26L598.44,252.24L595.79,249.45L596.23,246.34L597.45,245.1L595.83,242.44L594.64,241.77L592.24,237.54L591.3,235.28L590.16,234.67L590.57,232.99L588.78,229.17L590.24,227.71L593.35,230.56L596.63,230.94L599.82,228.16L600.46,228.03L601.63,230.66L601.08,231.26L603.03,232.79L603.76,232.69L604.95,235.57L608.26,236.55L609.71,238.02L611.65,239.04L614.96,239.49L620.27,238.25Z" class="land" id="IR" title="Iran"/>
    <path d="M690.83,404.45L690.75,404.41L690.78,404.19L690.67,403.9L690.85,404.01Z" class="land" id="IO" title="British Indian Ocean Territory"/>
    <path d="M699.21,257.28L700.06,259.49L701.73,260.23L701.85,260.32L703.68,261.02L703.71,261.04L704.78,262.25L707.62,263.77L706.07,265.4L705.71,268.79L707.44,269.47L711.94,272.42L716.77,274.28L719.18,273.83L720.94,274.56L721.36,275.53L723.47,276.66L726.94,277.28L728.98,277.35L729.97,278.09L732.31,277.83L732.43,276.72L731.58,275.18L731.41,272.4L732.83,271.57L733.71,272.41L734.27,274.49L734.43,275.82L737.45,276.8L739.12,276.09L740.44,276.54L744.31,276.23L744.23,274.59L742.46,272.82L743.56,272.93L745.52,272.11L746.67,269.69L748.66,268.89L750.45,266.97L753.15,267.95L754.71,266.47L756.3,267.96L757.95,270.53L759.78,271.1L760.06,272.15L758.48,274.4L756.69,274.86L754.28,277.2L754.72,279.29L753.61,281.66L754.14,283.02L753.16,287.43L750.48,286.88L751.27,290.23L750.64,291.79L751.13,293.13L750.73,294.47L749.52,294.57L748.81,291.91L747.38,288.16L746.53,288.83L745.87,290.8L744.83,290.34L743.98,288.24L744.33,286.62L745.87,286.23L746.55,283.6L745.72,282.57L740.68,282.61L738.62,282.06L738.19,279.67L733.56,278.05L732.79,279.86L734.17,281.04L734.45,282.5L733.95,285.14L735.97,286.1L735.81,288.19L736.51,289.09L738.33,294.14L738.59,295.79L736.09,295.91L735,295.14L732.51,296.36L731.9,297.36L732.57,299.37L732.07,300.83L730.78,302.3L728.67,303.15L726.4,305.29L724.69,308.41L723.36,309.25L722.12,310.98L719.67,312.9L719.57,314.91L718.08,315.77L716.44,316.02L715.81,317.92L714.7,317.4L713.64,318.1L713.11,320.48L713.6,323.71L714.62,326.9L714.47,329.41L713.49,332.04L713.88,338.28L712.44,338.34L711.32,340.67L711.36,342.22L709.6,342.83L708.91,343.63L708.58,345.53L706.9,346.67L705.06,345.44L703.63,343.59L702.78,341.53L702.74,339.77L700.39,334.39L698.52,331.78L696.86,327.96L696.36,325.75L695.18,322.65L693.6,320.48L693.43,319.27L691.75,316.81L691.16,315.29L690.14,310.93L688.81,306.95L687.67,302.64L688.02,299.89L687.55,297.81L686.41,295.63L686.28,293.44L685.47,293.47L684.75,295.15L685.58,296.25L685,297.66L682.06,299.23L681.09,299.22L679.06,297.89L675.01,293.75L678.52,292.33L678.56,290.84L676.81,291.63L675.42,291.3L673.38,290.01L671.55,287.5L673.25,287.1L673.11,285.97L676.26,286.32L678.74,285.39L680.31,285.46L680.17,284.38L678.52,281.62L677.15,280.55L676.36,279.17L676.38,277.67L674.04,276.42L674.13,275.02L676.22,271.82L677.44,272.94L680.82,272.06L681.78,269.09L683.34,268.04L684.21,264.63L685.42,264.04L685.45,262.75L687.28,260.49L686.4,257.94L688.5,255.81L686.25,254.91L683.65,252.19L683.92,251.19L682.42,246.88L683.36,246.46L687.86,247.45L690.36,246.57L691.42,245.17L693.36,243.72L693.41,243.76L695.57,246.88L697.83,248.01L697.49,249.01L698.14,251.22L699.32,252.25L699.44,252.45L700.19,254.74L700.25,254.97L697.69,254.9Z" class="land" id="IN" title="India"/>
    <path d="M843.35,411.92L844.83,413.04L845.75,414.4L844.39,415.36L841.89,413.41L840.25,413.16L840.68,411.95ZM859.56,412.43L857.27,414.81L855.36,415.54L854.64,414.13L855.16,412.82L856.31,411.79L857.67,411.23L859.29,410.3ZM832.74,409.07L831.8,410.25L830.93,408.41L832.09,407.54ZM852.51,409.06L848.78,410.14L846.78,410.27L842.91,409.38L843.34,408.44L845.63,407.67L848.22,408.94L849.93,408.48L850.84,409.11ZM837.99,407.96L840.38,408.04L840.31,409.58L837.66,409.92L833.94,410.88L833.1,410.54L833.39,408.76L834.5,408.15L835.78,408.37L837.64,407.23ZM829.03,407.35L829.79,408.3L828.16,409.76L825.91,407.22ZM903.34,407.8L902.53,408.29L900.61,407.75L901.85,405.43L902.84,404.67L904.39,404.49L905,405.64ZM880.21,406.77L880.17,404.79L881.56,404.68ZM824.14,403.43L822.91,403.85L820.65,403.56L821.04,402.66L824.62,402.56ZM891.01,400.95L890.33,402.34L889.38,402.17L889.89,399.95ZM803.52,399.32L804.42,400.1L806.44,400.29L807.56,402.25L813.16,402.84L814.27,401.06L815.57,401.8L816.82,401.72L818.53,402.64L819.98,402.76L820.65,405.1L822.07,405.72L824.74,405.4L825.87,406.38L825.7,408.87L824.75,409.12L821.93,407.85L820.04,408.3L816.31,407.91L813.45,407.33L811.68,406.36L807.56,405.53L806.6,406.01L804.89,405.74L802.92,404.8L800.82,404.59L800.55,403.23L797.27,402.22L799.35,398.97L801.73,399.66ZM891.87,398.2L891.79,399.93L890.73,400.55L890.56,398.22ZM852.92,396.56L852.12,394.69L853.22,394.13ZM866.87,388.41L868.01,389.54L867.99,390.45L866.21,391.16L864.72,390.34L864.16,388.72ZM876.24,387.58L878.24,388.04L879.72,390.21L879.5,391.29L876.47,389.3L875.24,389.78L873.64,389.3L871.86,389.64L870.8,388.77L871.21,387.58L875.19,387.3ZM806.65,388.07L804.71,388.86L804.94,386.46L806.25,386.57ZM860.88,383.24L859.08,384.36L858.98,383.18ZM799.76,383.11L800.75,386.08L801.74,386.98L801.28,388.29L799.53,387.43L798.89,385.02L796.79,384.5L798.29,382.58ZM871.17,383.07L869.26,383.33L869.55,381.85ZM777.53,383.51L776.6,383.09L775.74,381.35L776.61,380.29L777.87,382.95ZM912.49,386.62L912.3,391.91L911.79,400.59L910.89,410.96L907.91,407.15L904.42,407.32L905.35,405.23L904.36,403.97L904.85,402.5L903.62,400.58L902.61,397.3L899.6,395.27L896.09,393.8L893.57,393.5L890.3,391.06L888.76,389.44L887.36,392.05L886.45,392.17L885.81,390.71L885.86,389.18L884.6,387.99L887.38,385.98L888.72,386.39L889.77,384.73L886.66,385.36L884.55,385.25L883.65,384.31L883.38,382.7L881.33,382.08L881.24,380.07L883.01,379.5L884.06,378.57L885.67,378.21L888.4,379.58L890.02,379.65L890.91,381.96L890.39,383.3L890.52,385.07L893.24,389.33L894.69,389.37L897.22,386.52L897.73,385.37L899.2,385.08L900.13,383.75L902.36,382.41L905.06,383.56L908.7,385.64L911.38,386.01ZM772.11,371.4L773.58,373.23L773.41,374.52L771.88,373.33ZM860.66,373.15L859.18,375.11L857.01,375.73L854.84,375.05L850.83,375.24L849.49,375.02L846.01,375.19L844.92,378.02L845.19,379.3L846.54,380.75L847.01,381.99L848.19,382.13L849.78,380.07L851.23,380.36L852.24,379.7L854.21,379.69L852.95,381.91L850.38,383.83L850.76,385.58L852.45,388.83L851.92,390.4L853.87,392.23L853.9,393.12L851.65,393.67L850.65,394.99L849.31,393.99L849.81,392.17L847.61,390.16L848.15,387.15L846.87,386.84L845.54,388.28L846.05,390.72L845.86,394.13L845.34,397.58L843.39,398.15L842.35,397.15L843.28,393.4L843.38,391.95L842.8,389.86L841.42,390.09L840.82,387.2L841.84,386.15L842.63,384.08L842.62,382.13L844.15,378.68L844.27,375.98L845.74,373.24L846.54,373.81L847.8,372.05L850.01,372.88L852.74,373.07L854.22,373.69L855.46,373.4L857.3,373.74L858.67,373.05L860.95,370.51L861.75,371.26ZM869.85,373.7L872.05,371.2L872.97,372.74L871.68,373.59L872.96,375.52L869.29,375.04L868.83,372.19L869.47,369.98L870.71,370.51L870.73,371.89ZM836.75,361.28L837,363.28L835.51,363.44L837,365.42L838.55,368.21L837.92,369.51L838.63,370.51L841.59,373.2L840.14,373.83L837.59,374.14L836.88,375.99L836.69,378.08L837,379.75L833.72,382.38L833.26,384.54L833.7,385.46L831.6,390.3L827.45,392.45L827.03,389.93L825.59,389.12L824.64,389.79L823.8,388.77L822.01,388.78L820.79,389.58L819.78,389.28L818.26,390.07L818.32,388.3L816.86,387.83L815.8,388.29L813.19,387.8L812.61,382.1L811.88,380.65L810.81,380.12L809.87,378.72L810.18,376.75L809.17,375.54L809.04,373.9L809.56,371.28L811.32,369.29L811.42,370.83L814.2,373.65L815.6,373.07L818.28,373.13L820.54,371.04L824.26,372.25L825.15,371.51L827.23,371.39L828.12,369.47L827.96,368.46L829.2,367.44L828.87,366.25L830.04,365.53L830.3,362.15L831.3,360.62L835.19,360.66ZM768.55,357.33L771.65,357.3L773.17,358.63L774.33,360.37L774.57,361.57L779.26,364.98L781.68,368.43L783.58,368.43L785.01,370.54L786,370.81L788.25,373.96L790.18,375.03L791.51,375.08L792.51,376.7L791.35,377.58L791.36,378.86L792.29,380.18L794.35,380.75L795.27,385.78L797.62,385.76L799.65,388.48L798.95,390.37L798.9,395.59L798.56,398.09L797.07,397.61L796.17,398.34L794.79,397.5L794.6,398.94L792.26,395.85L788.21,392.39L786.95,390.32L785.23,388.7L782.95,384.88L782.99,384.1L781.26,379.96L778.98,376.49L777.56,375.56L776.36,371.28L775.59,369.76L772.77,368.05L772.38,366.23L770.3,363.51L768.58,362.61L765.4,359.08L764.4,357.12L765.71,355.9L767.39,357.08Z" class="land" id="ID" title="Indonesia"/>
    <path d="M816.8,292.56L817.56,292.45L817.76,293.38Z" class="land" id="HK" title="Hong Kong"/>
    <path d="M808.76,302.03L809.38,303.3L808.3,305.11L808.18,306.7L805.55,308.69L802.76,307.5L802.23,304.49L804.84,302.06L807.75,301.73ZM841.72,217.41L839.02,215.69L839.45,217.63L838.36,217.86L837.89,219.26L835.38,219.45L836.63,221.67L833.62,221.14L832.37,220.21L831.17,223.47L828.64,225.13L827.82,226.83L827.32,227.44L825.19,227.73L822.79,229.22L821.09,229.09L819.92,228.2L820.73,224.83L819.01,223.71L816.88,223.49L815.89,225.99L813.76,227.21L812.87,229.96L809.54,230.08L809.62,231.99L811.64,233.64L814.63,234.17L815.58,235.45L815.7,236.83L817.49,237.61L820.38,234.95L823.61,236.35L826.56,236.48L827.01,238.27L825.22,238.23L822.9,239.58L821.1,242.35L819.72,245.54L821.4,247.15L823.63,248.12L827.37,253.04L827.76,254.37L829.81,255.46L830.29,257.39L833.05,260.94L830.76,262.29L831.56,263.25L834.45,264.79L834.47,267.19L835.09,270.54L833.61,270.82L832.31,275.31L831.48,280.98L830.21,282.37L829.35,284.79L827.82,284.61L828.06,286.04L824.2,290.05L824.18,290.93L821.31,291.78L817.56,292.45L816.8,292.56L815.27,291.25L815.54,293.64L815.36,293.58L815.35,293.75L813.93,294.04L812.85,295.33L810.77,295.05L809.91,296.14L807.41,296.79L805.83,298.1L807.2,300.05L806.15,301.01L804.24,298.56L804.68,296.44L799.45,295.64L798.47,296.34L796.44,295.96L794.19,294.48L793.3,293L792.93,291.07L790.72,291.02L788.61,289.43L787.43,291.06L786.25,291.84L782.83,291.61L782.12,292.78L780.37,291.7L779.4,293.06L777.58,293.53L778.61,295.32L778.9,297.68L777.33,297.4L776.84,296.11L775.82,295.78L773.99,296.51L772.67,294.38L770.32,294.01L770.52,292.62L770.11,290.37L768.54,290.01L767.56,286.53L765.83,286.55L764.33,287.35L763.41,285.12L763.58,283.08L765.84,279.75L765.54,277.25L764.46,273.53L763.39,273.61L762.26,271.38L760.2,270L759.78,271.1L757.95,270.53L756.3,267.96L754.71,266.47L753.15,267.95L750.45,266.97L748.66,268.89L746.67,269.69L745.52,272.11L743.56,272.93L742.46,272.82L742.22,272.1L738.22,271.61L736.88,270.75L735.66,271.51L734.27,274.49L733.71,272.41L732.83,271.57L731.41,272.4L728.42,272.53L726.41,271.6L726.07,272.19L723.54,270.87L721.78,270.73L718.55,268.48L717.92,267.32L716.34,267.46L714.69,265.85L711.21,263.95L710.69,263.16L708.75,263.12L707.62,263.77L704.78,262.25L703.71,261.04L703.68,261.02L701.85,260.32L701.73,260.23L700.06,259.49L699.21,257.28L697.69,254.9L700.25,254.97L700.19,254.74L699.44,252.45L699.32,252.25L698.14,251.22L697.49,249.01L697.83,248.01L695.57,246.88L693.41,243.76L693.36,243.72L692.31,243.79L688.39,242.54L687.28,241.76L686.4,239.39L684.67,238.4L682.15,237.99L683.01,237.21L681.4,232.42L678.48,232.06L677.18,228.91L677.88,228.32L677.69,226.69L681.87,224.59L683.03,225.72L684.69,225.17L685.17,223.19L688.93,222.84L689.32,221.74L691.63,220.21L694.08,219.28L693.89,218.69L693.23,216.93L694.49,215.09L692.14,211.62L691.66,209.23L690.19,208.27L694.31,207.14L697.09,207.83L696.16,206.37L696.19,200.82L696.53,200.26L701.58,201.56L703.52,200.01L702.25,197.59L702.24,195.88L704.32,195.36L704.22,193.61L705.73,193.33L707.02,193.05L708.37,195.26L712.21,197.27L713.68,197.27L716.31,198.47L718.94,201.1L720.62,204.48L720.34,206.35L721.41,207.57L723.63,208.01L727.19,208.16L729.91,208.66L733.75,210.69L735.72,210.95L738.85,214.92L740.9,216.72L743.22,216.47L750.18,217.29L751.55,216.88L756.95,217.67L758.06,218.6L761.61,219.38L763.86,220.32L766,219.86L768.27,220.37L772.11,218.33L776,217.74L779.73,217.71L782.06,216.53L782.95,214.42L785.07,213.05L782.45,210.62L782.74,208.05L788.19,209.23L789.84,206.94L793.06,206.6L794.09,205.36L794.14,203.54L796.24,203.28L798.4,201.98L802.64,202.38L801.63,200.39L796.57,197.34L794.48,197.33L793.91,198.55L791.81,197.76L789.68,198.43L788.22,197.48L787.85,190.66L791.84,191.78L792.82,190.58L794.46,189.97L793.85,188.65L793.8,184.25L794.74,182.91L793.69,181.05L791.38,180L792.24,178.63L796.09,177.52L799.47,177.3L803.73,178.77L806.26,179.1L809.54,181.39L814.12,186.05L817.93,189.26L818.4,190.48L820.47,191.58L822.4,191.47L825.35,192.47L831.06,196.04L832.84,198.35L837.17,198.32L837.34,197.48L840.96,195.92L841.84,196.11L843.7,198.32L842.9,199.83L844.22,203.7L843.8,206.47L844.01,208.18L840.8,207.39L838.85,208.62L840.98,211.72L842.21,214.08L842.63,216.05Z" class="land" id="CN" title="China"/>
    <path d="M742.46,272.82L744.23,274.59L744.31,276.23L740.44,276.54L739.12,276.09L737.45,276.8L734.43,275.82L734.27,274.49L735.66,271.51L736.88,270.75L738.22,271.61L742.22,272.1Z" class="land" id="BT" title="Bhutan"/>
    <path d="M828.41,358.56L827.53,359.24L827.89,360.45L827.19,361.83L825.35,359.71L827.8,358.38L828.41,358.56L828.77,358.56Z" class="land" id="BN" title="Brunei"/>
    <path d="M615.56,279.88L615.08,279.57L614.95,278.73L615.47,278.98Z" class="land" id="BH" title="Bahrain"/>
    <path d="M749.52,294.57L749.9,296.49L748.69,297.14L749.45,299.03L748.37,297.59L747.91,295.67L746.41,292.59L745.32,291.49L743.99,292.24L742.28,291.66L743.08,293.52L741.99,295.18L740.79,294.55L739.13,295.53L738.33,294.14L736.51,289.09L735.81,288.19L735.97,286.1L733.95,285.14L734.45,282.5L734.17,281.04L732.79,279.86L733.56,278.05L738.19,279.67L738.62,282.06L740.68,282.61L745.72,282.57L746.55,283.6L745.87,286.23L744.33,286.62L743.98,288.24L744.83,290.34L745.87,290.8L746.53,288.83L747.38,288.16L748.81,291.91Z" class="land" id="BD" title="Bangladesh"/>
    <path d="M633.46,280.76L634.04,283.28L633.13,284.19L632.39,286.05L631.11,290.6L631.2,291.84L630.97,292.15L622.82,290.98L619.36,286.67L619.2,285.89L620.38,287.02L622.65,286.39L626.59,286.68L628.09,285.92L628.97,283.92L632.28,280.22L632.6,279.21Z" class="land" id="AE" title="United Arab Emirates"/>
    <path d="M683.01,237.21L682.15,237.99L679.93,238.49L676.52,238.71L673.83,240.19L672.84,241.67L673.75,242.45L674.87,244.89L673.39,247.34L674.03,249.15L670.53,249.72L672.2,251.71L670.07,253.02L669.69,255.23L670.16,257.1L669.11,258.24L666.97,257.59L665.22,258.72L664.52,259.8L663.35,259.47L661.98,260.95L661.98,265.01L658.81,266.05L657.02,266.03L655.82,266.68L654.11,266.28L650.78,266.61L645.47,264.92L646.12,263.9L647.8,261.25L647.09,259.18L644.54,258.81L644,255.92L642.61,252.58L643.47,251.2L642.14,250.7L641.76,248.98L643.06,246.12L643.09,243.25L646.35,244.64L648.66,243.91L648.54,242.51L650.68,241.78L652.4,240.55L652.72,237.58L654.85,237.13L655.23,235.94L657.69,236.77L661.56,237.43L662.67,238.26L665.06,236.86L666.15,237.67L666.83,235.85L668.54,235.89L668.31,234.75L669.85,232.62L671.11,233.18L672.48,234.84L672.68,237.6L674.16,239.22L676.96,237.07L678.55,236.31L679.57,237.21L680.94,236.52Z" class="land" id="AF" title="Afghanistan"/>
  </g>
</svg>