<?xml version="1.0" encoding="UTF-8"?>
<svg xmlns="http://www.w3.org/2000/svg" width="649.38" height="511" viewBox="155.31 -2.5 649.38 511">
  <!-- Created using SVG Map Generator: dojo.amcharts.com/svg-map-generator -->
  <style>
    .land { fill: #ffffff; stroke: #000000; stroke-width: 0.5; }
  </style>
  <g id="polygons">
    <path d="M498.81,235.7L479.38,235.08L474.77,234.71L477.1,230.22L481.14,229.51L483.69,226.69L484.14,226.76L481.72,229.63L486.25,230.09L486.24,226.9L492.77,228.84L496.51,228.89L498.75,231.02ZM655.26,95.82L665.07,98.63L661.76,101.48L655.66,102.58L651.72,97.91ZM721.11,360.95L720.08,363.43L716.46,367.41L711.39,366.37L706.35,361.27L703.62,360.47L696.65,357.26L696.9,354.5L693.69,353.94L689.46,351.63L686.53,351.71L682.39,353.57L680.67,351.73L668.85,346.86L662.09,346.91L654.06,343.7L649.99,343.34L648.84,344.87L637.33,336.03L632.82,334.7L629.75,331.86L626.16,331.49L621.56,325.87L627.06,324.99L626.49,323.09L628.35,318.67L630.2,317.73L627.63,312.44L637.33,307.53L630.81,306.83L628.81,307.68L628.61,302.97L632.94,300L639.55,300.11L640.62,296.16L637.1,288.46L639.75,286.53L636.81,282.83L631.57,280L629.63,280.31L624.09,278.04L622.68,279.36L616.97,274.48L608.52,275.78L601.14,273.2L599.53,268.21L591.12,265.56L589.29,261.93L591.25,260.93L585.24,255.38L575.88,255.73L574.45,257.65L570.48,257.77L568.73,255.7L566.15,247.03L571.84,248.05L575.73,245.65L567.64,238.63L564.48,237.27L561.62,232.87L558.98,231.56L559.91,228.97L558.55,223.95L553.06,221.29L547.68,222.84L546.48,220.39L542.13,220.36L536.99,218.43L536.07,214.56L533.38,211.48L532.65,207.18L529.04,205.16L531.55,202.18L528.96,198.1L527.82,193.72L530.98,186.63L530.62,184.37L537.25,183.4L537.56,180L533.85,176.08L527.8,176.77L539.83,167.38L549.48,157.94L550.68,155.02L547.59,152.06L538.77,147.67L541.35,144.65L537.96,141.51L537.01,137.9L533.37,136.06L533,130.15L535.54,129.63L533.48,125.96L526.3,118.12L531.13,113.01L526.13,108.47L521.43,107.35L519.45,104.73L521.86,100.06L533.26,93.44L537.35,94.26L540.39,91.97L547.21,93.72L543.97,96.08L553.11,97.55L567.99,98.58L581.76,102.94L601.81,110.5L606.1,111.54L609.82,119.41L606.15,122.79L598.37,125.6L592.36,126.2L571.68,123.24L566.48,121.32L549.61,118.61L558.39,123.91L564.54,125.63L567.76,127.99L566.08,132.2L569.68,135.9L571.02,139.75L576.85,141.4L582.69,144.81L590.69,146.54L594.66,144.6L593.18,141.93L587.58,141.13L582.04,137.15L583.81,134.22L588.46,134.79L592.33,136.87L605.27,139.6L607.94,135.79L603.74,132.62L603.29,130.39L608.49,127.11L613.54,125.68L617.62,122.14L631.39,124.68L632.93,120.78L630.44,116.98L626.54,115.6L627.6,109.06L624.91,104.2L637.59,104.8L644.8,110.35L637.13,111.15L633.87,113.63L642.75,119.17L647.68,119.41L654.06,117.46L653.64,112.69L660.06,111.39L671.54,105.94L682.38,103.82L689.53,100.29L693.18,107.02L697.07,106.62L705.85,103.32L713.51,104.15L719.41,101.22L724.04,100.22L732.77,105.31L737.7,100.37L730.31,95.11L735,92.85L751.4,94.38L774.86,100.71L779.12,101.36L786.68,104.88L794.26,115.33L791.58,120.33L784.51,125.24L776.57,129.32L767.64,136.63L756.83,142.27L763.41,172.37L765.18,187.05L763.54,195.75L760.99,202.07L756.9,207.06L756.86,211.55L763.52,214.86L765.65,218.96L762.83,224.14L756.34,225.38L748.29,226.1L757.53,234.61L763.83,239.34L772.33,234L778.1,236.17L781.13,239.74L778.4,242.61L776.7,247.19L778.6,252.8L784.15,254.23L788.57,259.84L792.32,262.21L799.86,264.27L802.19,266.37L801.75,270.02L796.49,271.97L790.82,270.63L790.32,272.79L782.81,271.67L777.73,268.01L773.63,267.74L771.11,269.74L767.3,268L763.4,268.45L759.13,272.58L757.15,272.59L749.81,268.66L748,270.82L744.21,267.5L737.84,263.87L731.92,263.88L729.57,261.91L724.5,263.86L717.62,261.44L714.45,265.78L709.15,267.82L708.34,270.11L704.93,272.59L704.66,275.05L706.53,278.44L703.77,280.27L696.88,274.81L694.16,275.85L692.47,280.03L692.04,284.87L694.27,287.55L692.45,290.48L692.95,294.41L695.91,295.69L697.31,299.07L700.67,300.51L705.75,301.1L710.14,305.37L714.51,310.87L712.17,312.97L717.18,315.16L710.98,320.93L705.49,322.71L704.21,328.56L701.18,332.29L701.61,334.69L705.87,337.01L709.41,343.95L709.92,348.79ZM726.25,93.98L721.04,92.5L716.47,89.27L719.29,87.56L730.41,91.89ZM664.65,73.85L670.69,71.92L674.66,63.59L682.03,62.84L692.33,64.36L691.58,67.81L688,70.53L689.48,75L696.47,80.02L703.59,83.59L706.46,86.49L689.23,85.71L682.94,84.56L678.12,78.35L668.06,78.78L664.66,76.35ZM757.19,36.22L754.42,39.19L743.97,41.6L715.72,46.98L710.62,51.19L701.01,53.63L701.84,56.67L695.19,62.98L691.99,63.56L682.21,62.26L678,63.11L673.06,59.66L678.04,58.07L681.64,52.57L686.26,49.88L688.37,46.42L697.86,42.63L710.46,40.51L710.71,39.22L722.02,39.58L738.47,36.59L747.06,33.48L753.34,34.06ZM679.79,6.42L680.54,5.01L692.07,4.48L696.3,6.42L691.16,7.83ZM619.31,7.14L619.03,4.98L627.89,4.33L634.2,5.92L618.73,8.18L612.15,10.03L605.53,8.68ZM649.67,5.22L650.24,2.92L669.37,5.18L658.29,6.28ZM655.81,2.42L662.25,0L670.54,1.05L666.31,2.79Z" class="land" id="RU" title="Russia"/>
    <path d="M282.01,419.35L281.97,419.87L281.82,419.72L281.83,419.53Z" class="land" id="GI" title="Gibraltar"/>
    <path d="M359.03,264.82L356.57,266.59L352.27,264.91ZM359.03,264.82L354.09,264.15L360.82,255.73L362.86,249.52L364.82,249.43L365.69,254.95L369.01,252.92L367.46,248.01L372.61,244.96L378.34,244.63L381.3,246.18L380.38,255.03L378.28,259.64L372.22,261.11L374.18,263.81L372.02,268.8L372.86,271.12L371.33,271.07L370.53,270.87L371.46,267.4L368.96,265.92L361.15,263.95Z" class="land" id="NL" title="Netherlands"/>
    <path d="M427.47,360.4L427.4,360.41L427.4,360.32L427.46,360.31Z" class="land" id="VA" title="Vatican City"/>
    <path d="M628.81,307.68L623.53,307.85L622.17,309.43L614.18,312.04L610.64,312.38L603.53,316.77L605.63,321.71L610.47,325.66L615.15,324.22L618.47,324.82L617.51,328.15L613.42,328.75L610.1,327.81L607.45,330.81L604.47,330.76L598.59,335.02L594.68,333.34L594.77,327.82L589.34,325.28L585.98,324.72L594.45,319.22L590.45,316.91L584.81,317.84L581.06,316.05L579.96,311.53L570.83,313.11L569.14,317.62L567.12,320.03L562.43,321.9L563.79,326.17L559.76,324.73L556.26,326.43L551.63,324.25L556.77,318.18L556.15,314.4L557.76,313.37L563.48,315.15L563.18,310.32L560.59,308.96L560.05,306.11L556.7,304.01L556.43,299.73L552.81,297.35L549.24,296.92L542.74,293.76L535.69,295.94L532.41,298.62L527.01,299.44L522.72,301.38L520.01,299.24L516.88,299.49L509.01,297.7L506.59,299.08L500.27,294.48L502.79,287.81L503.18,283.15L510.55,274.82L512.54,274.49L513.08,270.18L508.45,263.52L513.88,260.07L525.85,259.62L535.43,261.21L536.59,262.58L546.93,263.28L550.97,262.54L552.92,264.86L561.77,262.75L564.55,258.31L570.48,257.77L574.45,257.65L575.88,255.73L585.24,255.38L591.25,260.93L589.29,261.93L591.12,265.56L599.53,268.21L601.14,273.2L608.52,275.78L616.97,274.48L622.68,279.36L624.09,278.04L629.63,280.31L631.57,280L636.81,282.83L639.75,286.53L637.1,288.46L640.62,296.16L639.55,300.11L632.94,300L628.61,302.97Z" class="land" id="UA" title="Ukraine"/>
    <path d="M664.24,364.29L672.14,365.09L674.56,363.82L680.6,368.49L683.53,372.46L682.66,374.9L685.13,379.12L689.26,379.43L693.72,382.89L694.21,383.43L691.05,385.78L688.11,386.24L693.04,396.73L691.9,401.35L695.04,403.03L695.61,406.22L697.65,407.72L693.86,410.94L692.92,408.62L687.12,408.19L680.8,406.88L678.5,409.38L676.74,407.86L670.75,409.79L664.03,409.7L658.67,412.5L653.38,413.99L648.46,413.87L643.42,411.73L637.47,414.38L630.81,412.75L630.22,416.3L627.53,422.77L624.35,417.83L627.08,414.23L625.62,411.63L621.74,414.87L613.75,412.93L609.44,417.51L606.88,419.15L599.54,420.66L595.92,419.13L592.59,415.51L586.76,412.76L580.81,412.1L580.03,417.82L573.57,419.41L568.79,416.93L567.64,413.87L562.93,412.74L559.82,410.4L553.32,410.51L554.53,408.14L551.91,406.7L550.47,403.62L551.48,400.63L546.74,398.37L548.05,396.57L546.93,393.1L548.83,391.28L545.72,387.11L546.65,384.33L540.88,385.31L540.95,379.95L545.12,375.74L549.54,375.17L551.23,376.56L557.8,375.71L561.74,374.37L566.16,371.54L563.35,369.51L565.36,367.26L570.32,368.05L573.73,367.58L577.65,368.72L581.25,368.49L582.66,366.31L589.07,362.12L597.45,359.18L608.65,359.8L610.59,358.71L613.4,362.13L619.59,362.6L620.97,365.22L623.89,366.9L625.93,365.87L628.53,367.7L639.61,370.37L647.88,368.5L654.94,369.99L660.22,367.42ZM553.92,359.67L557.16,364.81L563.2,367.24L561.22,369.86L556.14,368.76L550.77,369.87L549.09,372.79L539.74,373.57L539.09,372.39L541.26,370.06L540.98,367.15L543.21,365.48L540.43,362.25L542.57,359.71L547.97,358.54L550.08,360.16Z" class="land" id="TR" title="Türkiye"/>
    <path d="M494.09,128.53L486.88,129.15L476.62,132.09L477.04,134.64L474.39,137.5L477.21,141.39L472.89,146.04L461.4,151.79L457.71,154.93L453.74,155.53L451.42,165.57L449.52,167.1L451.23,175.24L456.44,176.27L461.14,179.42L464.66,184.07L457.16,188.64L460.32,190.17L454.49,192.53L448.97,196.55L450.03,198.64L448.81,202.46L449.26,209.55L446.02,217.66L436.98,218.24L432.99,221.42L434.16,224.36L426.62,226.11L423.3,225.48L423.81,222.75L420.62,218.48L422.48,213.87L418.84,211.1L410.87,199.55L408.12,191.3L409.86,190.85L412.7,188.46L411.64,185.62L417.17,180.79L417.67,177.57L415.16,172.42L419.14,169.18L413.67,165.76L414.33,160.54L412.78,157.72L413.23,153.97L411.47,151.3L415.7,145.38L420.08,144.16L424.79,144.71L425.24,140.62L422.15,139.56L427.36,133.05L427.09,125.62L433.43,124.04L432.85,122.4L439.06,117.37L436.8,114.09L444.28,108.1L448.46,109.33L450.94,104.08L461.97,105.88L465.54,99.93L475.52,104.44L481.02,105.58L487.46,109.42L487.01,113.87L491.49,119.54L489.98,122.48ZM467.42,202.23L465.61,203.47L465.23,207.89L462.31,209.41L460.75,204.89L463.44,202.28Z" class="land" id="SE" title="Sweden"/>
    <path d="M457.53,313.64L450.74,316.66L450.89,320.37L448.19,321.39L448.86,324.08L443.99,323.66L437.22,324.46L434.77,323.57L435.86,322.86L432.89,315.48L435.16,313.43L441.61,314.47L445.42,312.36L452.97,311.85L453.92,309.97Z" class="land" id="SI" title="Slovenia"/>
    <path d="M502.79,287.81L500.27,294.48L497.47,295.15L494.79,293.01L487.26,293.27L486.25,295.58L482.97,297.23L474.37,298.54L474.02,300.68L466.44,300.85L461.42,298.49L458.85,294.12L459.44,292.54L461.09,289.92L465.53,289.65L468.38,285.96L473.41,283.44L478.09,282.57L481.27,286.61L487.45,284.62L495.42,284.42Z" class="land" id="SK" title="Slovakia"/>
    <path d="M487.45,317.59L492,321.21L492.22,323.9L498.27,327.57L497.64,330.13L503.6,333.45L506.93,333.99L508.79,336.55L506.72,338.89L508.29,344.51L511.93,347.23L508.12,350.75L508.93,354.85L507.58,356.15L501.3,356.83L502.49,352.52L499.49,351.68L496.51,348.21L493.06,348.8L490.97,350.9L484.26,346.99L481.13,343.71L483.37,341.98L480.2,335.89L481.41,330.24L478.6,330.13L478.47,323.47L476.95,319.38L481.75,317.12Z" class="land" id="RS" title="Serbia"/>
    <path d="M426.87,339.96L426.14,339.63L426.47,339.14L427.08,339.44Z" class="land" id="SM" title="San Marino"/>
    <path d="M551.63,324.25L556.26,326.43L559.76,324.73L563.79,326.17L563.11,330.39L559.13,331.27L556.44,335.96L556.59,341.59L552.19,340.77L550.68,339.09L544.06,337.26L537.24,338.89L531.8,342.31L513.3,340.25L508.79,336.55L506.93,333.99L503.6,333.45L497.64,330.13L498.27,327.57L492.22,323.9L492,321.21L487.45,317.59L494.51,315.61L502.18,301.28L506.59,299.08L509.01,297.7L516.88,299.49L520.01,299.24L522.72,301.38L527.01,299.44L532.41,298.62L535.69,295.94L538.66,296.99L542.08,302.16L548.69,308.81L550.69,314.13L550.11,318.96Z" class="land" id="RO" title="Romania"/>
    <path d="M265.01,408.86L261.42,410.65L255.11,409.46L253.41,406.27L252.9,395.14L248.36,392.89L249.53,387.57L254.04,378.66L255.82,369.28L254.76,362.91L255.13,359.96L259.77,357.99L262.06,360.55L266.25,361.06L272.66,359.95L273.21,362.71L275.86,364.14L269.9,369.5L270.7,376.33L268.99,377.71L268.68,382.78L265.29,384.6L268.41,391.08L265.85,395.7L267.04,400.34L264.3,404.68Z" class="land" id="PT" title="Portugal"/>
    <path d="M474.77,234.71L479.38,235.08L498.81,235.7L504.27,237.78L504.74,239.76L508.88,248.68L508.98,252.24L504.48,256.24L507.74,257.75L508.45,263.52L513.08,270.18L512.54,274.49L510.55,274.82L503.18,283.15L502.79,287.81L495.42,284.42L487.45,284.62L481.27,286.61L478.09,282.57L473.41,283.44L470.99,279.77L465.56,278.84L459.61,274.81L456.16,277.6L450.54,272.49L445.34,270.5L441.09,270.04L442.41,266.14L438.8,260.42L439.79,257.96L438.45,253.57L434.44,250.14L436.34,246.17L434.84,241.81L434.4,240.43L434.32,239.66L449.04,236.35L451.65,233.79L456.81,232.08L464.72,231.03L467.72,234.98L470.12,235.78Z" class="land" id="PL" title="Poland"/>
    <path d="M451.55,9.04L460.58,7.95L487.44,9.68L490.01,11.52L481.64,15.21L471.76,16.75L452.71,15.24L439.26,12.58L436.53,10.41ZM427.38,11.51L438.66,13.96L442.33,17.03L450.69,17.24L456.96,20.15L447.25,21.03L439.93,25.58L439.29,29.46L435.7,30.42L430.94,36.86L415.66,31.7L413.21,30.06L418.63,28.17L410.63,25.56L418.58,24.62L416.11,22.61L407.16,23.96L398.3,20.33L394.5,17.23L391.86,12.32L403.25,12.47L407.36,14.63L421.82,13.16ZM458.53,21.24L468.78,25.84L475.85,26.56L474.09,29.65L468.01,31.38L463.03,29.63L459.61,26.42L450.27,22.13Z" class="land" id="SJ" title="Svalbard and Jan Mayen"/>
    <path d="M455.1,90.99L457.47,91.83L452.52,95.21L449.38,93.58ZM443.9,95.07L447.34,98.53L440.81,99.05ZM533.26,93.44L521.86,100.06L523.53,96.13L521.88,94.41L512.81,91.03L503.94,92.3L500.92,94.58L500.2,100.34L495.36,103.81L487.69,101.95L484.33,103.32L478.05,102.7L471.98,97.89L465.54,99.93L461.97,105.88L450.94,104.08L448.46,109.33L444.28,108.1L436.8,114.09L439.06,117.37L432.85,122.4L433.43,124.04L427.09,125.62L427.36,133.05L422.15,139.56L425.24,140.62L424.79,144.71L420.08,144.16L415.7,145.38L411.47,151.3L413.23,153.97L412.78,157.72L414.33,160.54L413.67,165.76L419.14,169.18L415.16,172.42L417.67,177.57L417.17,180.79L411.64,185.62L412.7,188.46L409.86,190.85L405.71,189.46L396.94,191.71L386.64,199.29L378.12,200.44L368.39,195.7L366.93,193.78L369.33,191.58L369.14,187.87L363.96,189.06L365.11,185.15L363.7,183.35L364.4,176.46L362.95,175.17L361.79,165.85L365.95,160.31L371.7,157.54L378.33,157.62L376.23,154.36L383.93,153.14L385.82,149.08L394.96,148.26L394.91,146.06L400.62,141.04L405.08,138.67L405.8,136.62L411.27,134.16L411.78,130.65L416.32,126.61L416.81,121.96L427.34,113.44L427.37,110.7L430.65,108.41L435.62,107.26L439.18,103.52L444,102L448.41,98.89L449.34,96.12L453.93,95.37L455.09,93.75L460.77,92.58L468.08,92.52L469.29,90.06L477.58,88.33L480.38,90.69L488.65,85.52L489.77,82.96L497.36,84.23L509.08,82.19L519.47,84.16L532.82,89.2L524.41,91.77L526.14,93.92Z" class="land" id="NO" title="Norway"/>
    <path d="M481.13,343.71L484.26,346.99L490.97,350.9L488.92,353.77L485.54,352.94L482.85,357.59L483.57,360.69L479.66,356.81L476.47,354.93L475.72,353.64L475.49,349.47L479.11,344.08Z" class="land" id="ME" title="Montenegro"/>
    <path d="M447.81,422.54L446.75,422.86L446.02,422.34L446.78,421.47Z" class="land" id="MT" title="Malta"/>
    <path d="M507.58,356.15L511.86,359.42L513.47,362.25L513.06,366.14L509.81,368.38L505.22,368.49L502.52,370.93L497.55,371.13L495.41,370.33L492.83,364.25L493.51,360.65L497.28,357.6L501.3,356.83Z" class="land" id="MK" title="North Macedonia"/>
    <path d="M551.63,324.25L550.11,318.96L550.69,314.13L548.69,308.81L542.08,302.16L538.66,296.99L535.69,295.94L542.74,293.76L549.24,296.92L552.81,297.35L556.43,299.73L556.7,304.01L560.05,306.11L560.59,308.96L563.18,310.32L563.48,315.15L557.76,313.37L556.15,314.4L556.77,318.18Z" class="land" id="MD" title="Moldova"/>
    <path d="M386.31,341.5L385.83,341.69L386.11,341.29Z" class="land" id="MC" title="Monaco"/>
    <path d="M529.04,205.16L532.65,207.18L533.38,211.48L536.07,214.56L536.99,218.43L533.21,221.74L529.24,221.43L526.02,223.01L512.39,215.97L506.71,217.26L504.33,216.64L491.33,215.89L483.94,219.13L483.3,211.89L485.16,210.04L487.33,204.75L493.27,203.29L502.3,210.48L507.46,207.1L506.16,201.9L511.72,200.07L518.53,202.21L522.97,205.13Z" class="land" id="LV" title="Latvia"/>
    <path d="M373.98,277.36L376.97,280.57L375.95,284.02L371.6,283.16L371.14,279.36Z" class="land" id="LU" title="Luxembourg"/>
    <path d="M526.02,223.01L523.77,229.43L521.5,230.24L519.9,235.94L514.45,239.42L504.74,239.76L504.27,237.78L498.81,235.7L498.75,231.02L496.51,228.89L492.77,228.84L486.24,226.9L483.94,219.13L491.33,215.89L504.33,216.64L506.71,217.26L512.39,215.97Z" class="land" id="LT" title="Lithuania"/>
    <path d="M402.24,308.02L401.51,307.97L401.74,305.87Z" class="land" id="LI" title="Liechtenstein"/>
    <path d="M501.3,356.83L497.28,357.6L493.51,360.65L492.58,357.07L488.92,353.77L490.97,350.9L493.06,348.8L496.51,348.21L499.49,351.68L502.49,352.52Z" class="land" id="XK" title="Kosovo"/>
    <path d="M310.63,286.22L308.93,286.77L309.06,285.87Z" class="land" id="JE" title="Jersey"/>
    <path d="M455.02,398.14L451.47,405.99L453.31,410.57L451.96,413.93L446.84,412.79L443.71,409.64L441.74,409.67L429.26,402.26L436.67,398.55L439.48,400.4L446.27,399.94L449.01,398.64ZM405.03,370.8L406.58,374.72L405.05,388.41L400.87,387.66L399.53,391.02L395.63,388L395.74,376.84L393.33,373.16L402.07,367.52ZM435.16,313.43L432.89,315.48L435.86,322.86L431.66,321L430.33,322.35L424.4,324.29L424.12,326.36L426.64,329.14L424.56,331.63L425.99,336.69L428.48,339.02L435.73,343.33L439.81,352.31L447.1,358.82L449.62,360.03L456.08,359.98L456.78,365.13L465.89,368.96L473.11,373.12L477.82,378.76L474.58,380.49L472.62,376.97L464.84,375.15L461.94,381.29L462.63,383.55L467.03,386.21L467.75,390.14L462.85,393.05L462.92,396.19L459.14,401.01L456.39,401.03L458.02,393.07L459.84,392.59L458.08,386.49L455.01,379.95L448.79,377.39L447.05,372.99L444.56,373.35L441.55,371.36L438.32,367.18L433.07,367.09L429.23,364.78L420.79,356.42L416.87,353.89L412.98,349.8L407.21,338.76L401,335.72L396.76,334.67L391.43,339.79L386.74,341.33L388.13,338.12L382.37,336.11L382.75,331.68L379.41,327.61L383.53,324.74L380.63,320.56L382.32,319.44L390.03,318.53L393.66,316.2L397.75,320.4L399.94,315.79L405.38,315.03L409.23,309.96L413.8,310.64L415.45,308.84L422.68,309.25L424.65,311.59ZM426.87,339.96L427.08,339.44L426.47,339.14L426.14,339.63Z" class="land" id="IT" title="Italy"/>
    <path d="M218.92,124.74L224.58,126.6L223.93,128.97L231.64,131.38L229.49,137.02L220.81,142.15L213.34,143.82L209.02,146.06L200.57,147.45L194.32,150.25L183.55,148.89L176.61,145.42L166.88,146.32L172.81,142.97L172.38,140.16L167.91,135.53L173.26,131.33L167.14,130.54L159.95,132.1L157.81,131.38L162.02,126.16L171.58,122.93L178.63,127.89L177.23,131.5L180.21,131.77L185.01,129.3L185.39,126.48L196.48,125.27L210.48,125.6L212.23,122.79L216.13,122.18Z" class="land" id="IS" title="Iceland"/>
    <path d="M279.25,238.31L280.34,249.66L276.03,256.91L268.58,257.79L267.48,258.97L258.48,262.86L254.71,263.72L252.62,261.83L246.55,260.06L249.93,257.42L252.97,253.27L255.41,247.99L251.77,245.08L250.68,236.49L261.11,235.8L260.19,232.55L264.09,228.04L271.91,226.04L272.02,228.57L264.96,235.14L270.63,237.99L273.9,235.53L275.96,238.6Z" class="land" id="IE" title="Ireland"/>
    <path d="M292.97,237.37L290.42,238.02L292.28,235.51Z" class="land" id="IM" title="Isle of Man"/>
    <path d="M500.27,294.48L506.59,299.08L502.18,301.28L494.51,315.61L487.45,317.59L481.75,317.12L476.95,319.38L473.36,321.04L469.58,321.01L464.21,318.72L457.53,313.64L453.92,309.97L456.67,308.53L456.27,304.9L458.51,301.7L461.01,301.48L461.42,298.49L466.44,300.85L474.02,300.68L474.37,298.54L482.97,297.23L486.25,295.58L487.26,293.27L494.79,293.01L497.47,295.15Z" class="land" id="HU" title="Hungary"/>
    <path d="M469.27,350.2L475.72,353.64L476.47,354.93ZM476.95,319.38L478.47,323.47L478.6,330.13L475.68,328.02L468.89,328.02L458.53,326.61L456.78,328.72L452.62,326.99L452.48,331.18L455.82,334.15L456.67,336.78L468.82,348.71L468.57,349.78L462.76,345.15L454.84,342.46L447.88,336.35L448.98,335.06L445.78,331.79L445.23,327.99L441.32,325.34L438.26,330.48L435.41,327.71L434.77,323.57L437.22,324.46L443.99,323.66L448.86,324.08L448.19,321.39L450.89,320.37L450.74,316.66L457.53,313.64L464.21,318.72L469.58,321.01L473.36,321.04Z" class="land" id="HR" title="Croatia"/>
    <path d="M525.44,425.82L528.02,425.21L529.42,427.59L532.78,426.96L539.18,428.19L541.55,429.88L533.81,432.03L530.83,429.69L523.2,428.3ZM519.14,390.54L525.01,393.5L522.43,396.27L517.92,392.16ZM543.45,386.73L544.26,390.4L539.48,388.69ZM539.09,372.39L537.48,371.19L531.21,369.65L528.8,371.05L526.13,370.12L521.6,374.26L520.13,377.55L517.25,377.62L511.44,374.76L511.5,379.46L514.52,383.65L515.38,389.8L513.99,392.17L518.04,393.6L524.25,397.58L525.44,403.4L521.27,400.3L518.12,400.83L518.33,407.27L515,406.66L518.03,413.03L514.16,412.98L509.6,410.41L508.25,413.42L505.43,409.88L505.01,405.14L501.21,401.24L503.15,398.38L506.53,397.03L514.84,400.6L517.43,399.65L511.37,395.89L503.62,397.1L500.61,396.45L497.53,392.1L497.41,390.03L493.25,386.75L490.51,382.82L495.59,378.64L498.24,373.09L497.55,371.13L502.52,370.93L505.22,368.49L509.81,368.38L513.06,366.14L518.88,365.63L522.18,364.19L532.18,367.09L539.24,365.64L540.43,362.25L543.21,365.48L540.98,367.15L541.26,370.06Z" class="land" id="GR" title="Greece"/>
    <path d="M306.8,283.6L306.52,284.26L305.76,283.86Z" class="land" id="GG" title="Guernsey"/>
    <path d="M703.62,360.47L702.01,362.86L706.11,366.07L705.27,368.87L695.04,364.99L693.03,366.61L680.6,368.49L674.56,363.82L672.14,365.09L664.24,364.29L665.58,359.66L662.26,352.62L656.34,348.5L653.72,347.91L648.84,344.87L649.99,343.34L654.06,343.7L662.09,346.91L668.85,346.86L680.67,351.73L682.39,353.57L686.53,351.71L689.46,351.63L693.69,353.94L696.9,354.5L696.65,357.26Z" class="land" id="GE" title="Georgia"/>
    <path d="M403.1,351.13L403.92,358.03L401.22,365.65L398.07,363.57L396.98,353.74ZM371.6,283.16L375.95,284.02L379.1,286.93L384.7,287.02L390.11,288.8L387.9,292.17L386.11,297.9L386.51,302.64L381.74,305.35L374.54,314.36L380.09,314.49L382.32,319.44L380.63,320.56L383.53,324.74L379.41,327.61L382.75,331.68L382.37,336.11L388.13,338.12L386.74,341.33L386.31,341.5L386.11,341.29L385.83,341.69L378.86,347.42L375.82,348.41L370.06,346.81L367.22,344.62L364.42,345.34L359.07,343.1L352.73,347.18L351.09,350.01L352.44,354.95L342.89,355.74L340.23,354.21L337.98,353.27L332.05,350.73L331.53,352.31L326.08,352.32L323.99,350.93L316.03,348.54L311.95,344.99L314.45,343.4L316.43,333.27L317.92,320.65L317.31,315.54L312.23,313.49L310.09,310.51L310.43,308.22L301.5,301.61L295.67,300.18L292.43,300.32L289.99,297.69L291.9,294.86L289.36,293.14L301.09,290.13L305.28,293.17L307.23,292.05L315.14,292.12L314.04,286.51L311.94,281.71L316.6,281.75L317.52,284.66L325.14,285.57L328.58,283.91L327.87,281.52L336.11,278.58L338.47,275.64L338.65,271.23L341.21,268.74L345.94,267.68L348.42,271.5L358.86,276.11L358.93,278.96L362.65,278.54L364.35,280.67L369.4,283.44Z" class="land" id="FR" title="France"/>
    <path d="M279.01,161.07L276.22,162.31L275.16,160.54Z" class="land" id="FO" title="Faroe Islands"/>
    <path d="M521.86,100.06L519.45,104.73L521.43,107.35L526.13,108.47L531.13,113.01L526.3,118.12L533.48,125.96L535.54,129.63L533,130.15L533.37,136.06L537.01,137.9L537.96,141.51L541.35,144.65L538.77,147.67L547.59,152.06L550.68,155.02L549.48,157.94L539.83,167.38L527.8,176.77L523.76,176.75L512.57,178.67L509.13,179.97L499.01,182.11L492.12,181.07L490.19,178.43L481.63,176.21L480.65,172.75L481.66,166.96L478.67,163.27L479.08,161.11L476.81,157.43L483.9,149.96L490.4,145.78L496.78,140.16L498.34,137.57L503.73,135.69L502.86,131.45L494.09,128.53L489.98,122.48L491.49,119.54L487.01,113.87L487.46,109.42L481.02,105.58L475.52,104.44L465.54,99.93L471.98,97.89L478.05,102.7L484.33,103.32L487.69,101.95L495.36,103.81L500.2,100.34L500.92,94.58L503.94,92.3L512.81,91.03L521.88,94.41L523.53,96.13Z" class="land" id="FI" title="Finland"/>
    <path d="M530.98,186.63L527.82,193.72L528.96,198.1L531.55,202.18L529.04,205.16L522.97,205.13L518.53,202.21L511.72,200.07L506.16,201.9L507.04,197.31L501.43,197.24L499.15,194.42L498.35,189.35L504.47,186.74L512.17,186.29L512.48,185.18L523.45,186.95ZM492.64,194.78L497.78,196.08L489.83,199.57L488.87,196.13Z" class="land" id="EE" title="Estonia"/>
    <path d="M194.75,502.24L194.74,505.06L191.96,506L192.34,502.17ZM186.85,499.83L183.94,503.69L181.96,500.25ZM205.05,502.02L206.88,496.45L208.34,497.71L207.37,501.14ZM352.21,382L354.82,382.95L351.67,387.02L345.88,383.82L349.25,381.34ZM311.95,344.99L316.03,348.54L323.99,350.93L326.08,352.32L331.53,352.31L332.05,350.73L337.98,353.27L338.46,354.92L340.23,354.21L342.89,355.74L352.44,354.95L352.8,359.93L343.38,366.64L334.84,368.96L332.25,371.41L329.39,376.57L323.73,384.78L324.73,389.47L328.08,392.59L323.27,395.92L321.07,398.84L319.61,404.72L315.43,404.93L311.51,408.31L308.88,413.01L303.26,413.65L299.35,413.23L290.14,413.61L287.56,415.8L283.41,416.65L279.56,420.76L276.14,419.08L272.54,411.18L269.34,408.71L265.01,408.86L264.3,404.68L267.04,400.34L265.85,395.7L268.41,391.08L265.29,384.6L268.68,382.78L268.99,377.71L270.7,376.33L269.9,369.5L275.86,364.14L273.21,362.71L272.66,359.95L266.25,361.06L262.06,360.55L259.77,357.99L255.13,359.96L255.93,356.55L251.77,349.38L254.82,345.74L257.54,345.71L259.88,343.24L264.44,341.36L267.9,343.09L280.76,343.21L289.94,344.91L297.36,343.86L301.85,345.36L307.56,345.8Z" class="land" id="ES" title="Spain"/>
    <path d="M279.25,238.31L275.96,238.6L273.9,235.53L270.63,237.99L264.96,235.14L272.02,228.57L280.27,227.36L285.03,234.31L283.93,236.52ZM303.54,195.78L302.75,197.62L296.95,201.06L297.77,204.47L301.24,203.45L311.07,203.5L313.24,205.49L306.59,216.74L302.63,219.03L310.33,220.74L313.98,223.94L316.66,231.65L321.34,234.27L324.86,238.96L330.69,249.27L334.48,249.35L339.09,251.36L339.81,254.15L338.4,257.91L333.77,260.66L331.72,264.82L337.34,265.05L333.85,269.38L328,270.99L314.66,271.14L306.66,272.44L303.17,271.45L300.02,272.29L296.93,276.29L294.02,274.68L284.9,276.12L290.91,270.86L294.05,266.78L302.18,266.62L292.64,261.32L288.63,262.45L287.29,258.81L292.76,256.83L295.92,253.44L295.05,246.8L303.07,244.77L304.17,241.78L302.41,237.93L299.41,234.63L300.52,229.81L296.53,231.58L287.66,230.84L290.92,225.39L287.11,220.48L284.42,219.27L286.18,214.86L282.15,213.98L285.12,207.98L283.28,206.04L287.07,198.4L291.73,195.83L303.98,194.65Z" class="land" id="GB" title="United Kingdom"/>
    <path d="M406.34,223.56L407.66,228.17L401.65,227.88L400.5,224.47ZM420.68,221.87L418.22,224.95L417.39,231.25L414.17,227.65L411.4,227.48L408.79,222.49L417.84,218.66ZM399.94,231.15L391.83,230.39L391.19,225.42L387.48,223.66L387.29,213.97L390.45,209.14L397.34,207.98L400.19,204.66L404.52,205.92L402.98,210.21L403.09,213.84L407.34,214.79L407.55,216.96L403.57,217.76L402.74,221.1L398.49,224.69Z" class="land" id="DK" title="Denmark"/>
    <path d="M399.94,231.15L404.83,234.91L412.97,239.71L418.24,237.54L421.57,234.63L425.04,235.18L431.76,240.6L434.84,241.81L436.34,246.17L434.44,250.14L438.45,253.57L439.79,257.96L438.8,260.42L442.41,266.14L441.09,270.04L437.65,269.65L423.13,275.09L421.87,276.76L423,281.16L425.04,283.93L434.71,290.87L431.76,294.59L427.22,296.93L428.47,299.64L426.48,301.87L418.88,302.72L415.65,304.32L408.75,303.15L407.93,305.44L403.35,302.81L401.6,303.32L394.36,300.89L391.11,302.49L386.51,302.64L386.11,297.9L387.9,292.17L390.11,288.8L384.7,287.02L379.1,286.93L375.95,284.02L376.97,280.57L373.98,277.36L375.86,275.42L372.86,271.12L372.02,268.8L374.18,263.81L372.22,261.11L378.28,259.64L380.38,255.03L381.3,246.18L381.83,242.28L387.33,242.19L391.42,243.5L394.03,240.78L394.16,233.94L391.83,230.39Z" class="land" id="DE" title="Germany"/>
    <path d="M441.09,270.04L445.34,270.5L450.54,272.49L456.16,277.6L459.61,274.81L465.56,278.84L470.99,279.77L473.41,283.44L468.38,285.96L465.53,289.65L461.09,289.92L459.44,292.54L455.56,290.53L452.3,290.98L447.03,288.96L443.64,288.7L441.7,292.54L436.66,292.51L434.71,290.87L425.04,283.93L423,281.16L421.87,276.76L423.13,275.09L437.65,269.65Z" class="land" id="CZ" title="Czechia"/>
    <path d="M613.92,425.22L609.89,428.34L611.12,431.47L602.27,435.73L597.99,434.15L596.66,431.84L601.44,427.32L605.81,427.88Z" class="land" id="CY" title="Cyprus"/>
    <path d="M401.6,303.32L401.74,305.87L401.51,307.97L402.24,308.02L405.61,309.75L409.23,309.96L405.38,315.03L399.94,315.79L397.75,320.4L393.66,316.2L390.03,318.53L382.32,319.44L380.09,314.49L374.54,314.36L381.74,305.35L386.51,302.64L391.11,302.49L394.36,300.89Z" class="land" id="CH" title="Switzerland"/>
    <path d="M370.53,270.87L371.33,271.07L372.86,271.12L375.86,275.42L373.98,277.36L371.14,279.36L371.6,283.16L369.4,283.44L364.35,280.67L362.65,278.54L358.93,278.96L358.86,276.11L348.42,271.5L345.94,267.68L352.27,264.91L356.57,266.59L359.03,264.82L361.15,263.95L368.96,265.92L371.46,267.4Z" class="land" id="BE" title="Belgium"/>
    <path d="M536.99,218.43L542.13,220.36L546.48,220.39L547.68,222.84L553.06,221.29L558.55,223.95L559.91,228.97L558.98,231.56L561.62,232.87L564.48,237.27L567.64,238.63L575.73,245.65L571.84,248.05L566.15,247.03L568.73,255.7L570.48,257.77L564.55,258.31L561.77,262.75L552.92,264.86L550.97,262.54L546.93,263.28L536.59,262.58L535.43,261.21L525.85,259.62L513.88,260.07L508.45,263.52L507.74,257.75L504.48,256.24L508.98,252.24L508.88,248.68L504.74,239.76L514.45,239.42L519.9,235.94L521.5,230.24L523.77,229.43L526.02,223.01L529.24,221.43L533.21,221.74Z" class="land" id="BY" title="Belarus"/>
    <path d="M478.6,330.13L481.41,330.24L480.2,335.89L483.37,341.98L481.13,343.71L479.11,344.08L475.49,349.47L475.72,353.64L469.27,350.2L468.57,349.78L468.82,348.71L456.67,336.78L455.82,334.15L452.48,331.18L452.62,326.99L456.78,328.72L458.53,326.61L468.89,328.02L475.68,328.02Z" class="land" id="BA" title="Bosnia and Herzegovina"/>
    <path d="M556.59,341.59L556.02,345.18L551.92,347.25L552.07,351.7L549.1,354.57L553.92,359.67L550.08,360.16L547.97,358.54L542.57,359.71L540.43,362.25L539.24,365.64L532.18,367.09L522.18,364.19L518.88,365.63L513.06,366.14L513.47,362.25L511.86,359.42L507.58,356.15L508.93,354.85L508.12,350.75L511.93,347.23L508.29,344.51L506.72,338.89L508.79,336.55L513.3,340.25L531.8,342.31L537.24,338.89L544.06,337.26L550.68,339.09L552.19,340.77Z" class="land" id="BG" title="Bulgaria"/>
    <path d="M706.11,391.37L700.68,390.05L694.21,383.43L693.72,382.89L695.78,382.26L702.43,386.23ZM721.11,360.95L726.45,366.5L727.93,369.32L733.22,373.86L737.88,375.61L732.09,377.85L731.27,383.87L732.04,386.53L729.54,388.74L728.74,392.02L729.53,395.92L727.3,396.18L721.92,391.98L723.45,390.33L720.23,383.09L718.47,383.45L709.16,391.08L709.16,388.05L705.66,384.01L701.81,381.06L702.66,377.44L697.18,373.3L698.55,371.16L693.03,366.61L695.04,364.99L705.27,368.87L706.11,366.07L702.01,362.86L703.62,360.47L706.35,361.27L711.39,366.37L716.46,367.41L720.08,363.43Z" class="land" id="AZ" title="Azerbaijan"/>
    <path d="M459.44,292.54L458.85,294.12L461.42,298.49L461.01,301.48L458.51,301.7L456.27,304.9L456.67,308.53L453.92,309.97L452.97,311.85L445.42,312.36L441.61,314.47L435.16,313.43L424.65,311.59L422.68,309.25L415.45,308.84L413.8,310.64L409.23,309.96L405.61,309.75L402.24,308.02L401.74,305.87L401.6,303.32L403.35,302.81L407.93,305.44L408.75,303.15L415.65,304.32L418.88,302.72L426.48,301.87L428.47,299.64L427.22,296.93L431.76,294.59L434.71,290.87L436.66,292.51L441.7,292.54L443.64,288.7L447.03,288.96L452.3,290.98L455.56,290.53Z" class="land" id="AT" title="Austria"/>
    <path d="M709.16,391.08L706.11,391.37L702.43,386.23L695.78,382.26L693.72,382.89L689.26,379.43L685.13,379.12L682.66,374.9L683.53,372.46L680.6,368.49L693.03,366.61L698.55,371.16L697.18,373.3L702.66,377.44L701.81,381.06L705.66,384.01L709.16,388.05Z" class="land" id="AM" title="Armenia"/>
    <path d="M340.23,354.21L338.46,354.92L337.98,353.27Z" class="land" id="AD" title="Andorra"/>
    <path d="M471.43,178.5L473.49,179.35L469.94,180.86L469.33,179.28Z" class="land" id="AX" title="Aland Islands"/>
    <path d="M488.92,353.77L492.58,357.07L493.51,360.65L492.83,364.25L495.41,370.33L497.55,371.13L498.24,373.09L495.59,378.64L490.51,382.82L489.05,379.4L485.16,376.92L484.4,373.04L485.22,370.28L484.69,365.24L485.54,361.53L483.57,360.69L482.85,357.59L485.54,352.94Z" class="land" id="AL" title="Albania"/>
  </g>
</svg>