<?xml version="1.0" encoding="UTF-8"?>
<svg xmlns="http://www.w3.org/2000/svg" width="895.94" height="499.02" viewBox="32.03 3.49 895.94 499.02">
  <!-- Created using SVG Map Generator: dojo.amcharts.com/svg-map-generator -->
  <style>
    .land { fill: #ffffff; stroke: #000000; stroke-width: 0.5; }
  </style>
  <g id="polygons">
    <path d="M555.01,463.65L554.74,463.74L554.06,462.99L554.62,462.84Z" class="land" id="AW" title="Aruba"/>
    <path d="M606.09,431.73L605.23,431.9L605.57,430.81Z" class="land" id="AG" title="Antigua and Barbuda"/>
    <path d="M599.23,423.48L598.26,423.83L598.32,423.63L599.12,423.14Z" class="land" id="AI" title="Anguilla"/>
    <path d="M522.69,369.86L523.49,365.77L524.28,366.86L523.43,367.5ZM518.33,378.22L518.05,379.92L516.11,381.15L515.15,377.89L517.13,375.17ZM518.33,381.41L518.73,384.07L517.13,384.89L516.97,382.88ZM542.44,402.76L541.44,404.25L538.49,404.54L539.52,402.77Z" class="land" id="BS" title="Bahamas"/>
    <path d="M600.01,425.88L599.84,425.59L600.22,425.66Z" class="land" id="BL" title="Saint Barthelemy"/>
    <path d="M444.3,439.72L442.26,439.69L444.34,426.31L445.16,425.03L446.58,425.27L448.69,421.92L450.06,421.73L450.91,424.18L449.42,427.74L448.34,434.55L445.76,437.23Z" class="land" id="BZ" title="Belize"/>
    <path d="M602.32,325.19L601.76,325.43L602.64,324.54Z" class="land" id="BM" title="Bermuda"/>
    <path d="M617.26,459.26L616.56,459.13L616.77,457.63L617.68,458.77Z" class="land" id="BB" title="Barbados"/>
    <path d="M682.52,192.82L680.04,195.12L679.24,197.02L673.43,202.7L675.83,202.5L678.14,203.37L676.81,205.92L679.37,206.53L680.91,207.77L683.58,206.53L686.77,206.86L688.3,208.88L686.28,211.11L686.13,213.03L690.31,212.73L687.05,215.02L685.68,217.13L689.79,216.4L688.02,218.95L690.64,219.65L687.08,225.55L684.15,225.56L684.75,222.45L683.91,220.75L683.85,218.25L682.94,217.55L681.01,220.24L678.63,220.77L675.41,224.02L672.82,224.29L672.88,222.9L674.88,222.29L676.95,220.33L673.51,219.78L671.83,218.82L667.77,219.48L660.58,218.79L656.22,219.5L655.43,217.51L659.71,214.4L660.16,212.55L664.23,207.22L665.55,206.17L670.1,199.99L675.31,194.56L679.62,192.6ZM305.25,198.8L307.35,199.64L312.96,200.97L313.92,206.94L316.55,208.32L316.77,212.65L315.32,214.34L310.51,212.55L306.36,209.22L307.04,207.96L305.53,206.85L303.83,207.01L304.91,203.93L302.66,203.91L301.93,202L299.7,202.24L300.76,200.11L299.52,199.01L302.37,197.33ZM644.74,209.2L642.51,209.3L638.44,208.32L636.01,207.14L634.11,203.49L640.34,205.08L645.02,207.92ZM567.61,237.01L574.7,234.13L578.05,230.13L586.1,225.89L589.79,225.04L594.33,223.16L605.06,214.73L609.75,212.36L613.82,210.81L621.85,208.39L625.42,208.04L628.9,208.54L631.4,210.36L630.72,212.87L627.38,215.05L624.35,216.45L621.13,215.32L621.55,218.66L624.11,217.87L626.74,218.46L624.94,220.88L622.26,222.69L624.07,224.14L624.81,228.56L630.63,231.89L633.8,231.97L634.76,232.78L638.04,231.1L640.21,232.33L640.56,235.42L633.24,238.11L625.87,240.56L624.85,239.47L623.13,240.12L622.2,241.81L618.81,244.8L613.51,246.91L611.85,245.17L612.98,241.37L616.09,238.68L620.82,236.2L623.51,235.28L621.76,232.75L615.7,235.51L610.08,236.57L608.91,235.88L607.23,235.15L608.06,232.91L606.36,232.23L608.93,222.82L606.78,220.97L603.71,222L602.02,220.24L596.4,225.36L594.19,228.48L593.24,230.84L588.72,235.24L586.46,235.05L584.87,236.98L578.12,236.99ZM629.15,227L630.02,226.37L632.72,227.32L638.02,226.87L633.31,230.19L632.48,228.47L629.98,228.77ZM642.74,230.57L644,231.98L646.15,230.56L646.42,228.81L649.78,229.11L648.5,231.01L646.12,232.56L641.14,233.11L640.64,230.6L645.5,224.77L647.17,223.55L648.33,224.96L645.98,229.02ZM701.36,8.42L712.32,8.73L730.66,10.9L726.12,12.67L715.5,14.07L710.23,16.14L688.23,20.34L680.8,23.44L672.85,24.02L671.32,24.76L663.71,25.13L663.55,26.22L658.02,27.21L664.45,28.64L655.85,32.31L646.68,32.64L644.8,34.87L637.63,36.57L637.81,37.94L641.89,37.72L640.4,39.89L634.25,41.28L628.75,42.01L627.98,40.2L616.26,40.52L610.36,41.31L592.36,40.31L594.07,38.52L599.88,37.05L606.68,36.54L603.75,33.82L608.98,32.92L607.97,31.45L613.64,28.38L625.4,27.45L626.32,26.11L624.36,24.18L619.99,23.03L622.62,20.72L632.65,21.16L648.8,19.71L656.6,18.49L656.75,17.26L645.51,19.1L636.14,18.82L627.61,19.72L613.96,18.27L612.11,16.66L617.83,14.95L607.97,14.3L613.57,13.42L630.6,12.03L638.55,10.87L646.81,11.76L650.18,10.2L660.57,8.75L669.19,8.93L677.19,8.29L699.92,8ZM604.16,16.85L606.44,19.4L617.34,20.46L617.95,22.79L616.22,23.93L622.32,24.59L623.22,25.6L609,28.73L602.9,31.36L595.14,31.58L587.67,30.35L584.38,27.27L592.38,25.82L581.95,25.79L582.94,23.98L579.17,23.02L579.38,21.61L584.85,18.93L589.94,17.47L602.81,16.17ZM548.01,25.66L553.18,26.8L559.94,29.36L557.96,30.79L558.22,33.1L552.47,32.92L551.94,31.36L545.96,30.45L538.84,30.97L544.76,28.41L537.85,27.08L540.02,25.62ZM573.75,29.62L578.32,30.58L575.84,32.4L567.05,33.37L564.78,30.15L566.8,28.23L572.92,28.83ZM518.15,29.02L518.2,30.62L503.03,30.25L516.3,28.47ZM512.51,31.82L514.57,32.58L510.48,34.84L502.18,35.78L498.11,34.81L499.94,32.86ZM573.25,33.44L582.12,33.71L580.01,35.1L569.73,35.05ZM487.2,35.68L482.67,37.07L483.74,37.77L480.25,39.67L471.73,40.55L464.78,41.76L460.45,43.72L452.94,42.77L450.35,41.73L456.49,40.58L472.04,35.99L479.12,35.93L484.8,34.74ZM574.24,38.07L579.53,39.72L585.83,39.3L586.69,40.6L592.78,41.33L587.64,42.67L594.16,45.6L598.62,45.03L603.24,45.66L610.08,44.84L613.59,43.94L621.22,43.87L628.28,44.97L630.46,45.95L629.05,49.07L624.66,50.71L617.66,51.29L604.3,50.59L600.46,51.17L589.14,51.2L588.49,49.97L583.21,50.9L575.08,49.55L575.53,46.31L578.53,43.79L576.86,41.05L567.22,41.53L563.41,39.18L564.13,37.75L569.27,37.26ZM510.95,42.65L516.4,43.33L521.76,43.33L521.39,44.33L517.08,47.36L510.26,48.81L503.72,48.05L492.52,50.4L484.59,51.63L480.35,51.55L479.4,49.69L486.05,48.54L479.69,47.92L473.57,48.58L471.43,47.46L467.14,46.92L475.68,42.56L482.01,40.6L487.95,40.53L488.23,41.84L492.98,41.87L496.61,45.41L504.81,45.64L506.38,44.59L504.39,40.71L510.09,38.88L513.65,39ZM557.84,40.45L554.96,45.39L551.35,47.76L547.57,48.36L540.4,48.36L540.17,46.18L544.83,44.69L532.84,45.59L535.31,44.16L539.81,43L538.2,41.42L547.16,39.66L552.93,39.65ZM536.54,42.87L530.72,44.23L528.31,41.97L536.29,41.44ZM569.25,48.25L567.81,50.11L562.64,50.38L557.06,48.85L556.57,47.86L562.28,45.52L567.88,45.16L569.73,46.49ZM451.75,53.31L460.23,52.46L463.06,52.99L467.56,56.07L466.93,57.08L447.65,61.34L444.01,63.18L439.83,64.03L434.23,68.08L420.69,70.28L420.05,67.09L414.74,64.45L420.6,61.89L423.92,59.13L432.23,55.24L431.53,52.01L447.15,51ZM567.23,53.05L570.57,54.1L575.65,53.89L578.27,54.68L566.1,60.95L560.92,60.68L554.71,65.08L549.59,65.08L551.28,62.38L551.13,60.79L554.58,55.65L558.91,53.71ZM536.65,54.24L539.37,55.44L546.91,54.57L548.49,55.81L543.39,57.95L543.9,61.61L542.49,66.19L531.15,69.25L529.18,68.87L526.2,64.37L521.91,63.44L519.62,60.78L524.31,59.23L525.45,60.99L529.38,60.84L531.78,58.88L528.04,57.13L532.05,55.03ZM583.95,70.93L588.69,70.11L592.3,70.45L594.64,67.35L592.35,67.1L590.56,65.32L594.69,62.84L594.66,60.83L599.49,57.67L611.24,55.46L616.36,55.99L618.17,61L613.37,64.04L617.03,64.02L621.14,63.01L625.61,63.19L626.15,61.82L629.2,61.11L633.74,61.28L639.55,62.76L639.72,64.67L643.78,66.84L652.37,68.01L654.9,70.39L654.85,72.5L657.9,71.89L661.17,72.35L664.11,73.75L667.19,76.6L666.43,78.43L663.01,78.23L660.7,79.27L667.92,80.68L662.63,82.44L659.95,85.32L663.93,86.65L666.64,88.83L670.84,88.94L674.06,89.7L675.24,92.48L679.43,93.15L677.88,94.41L681.66,95.12L683.85,94.44L686.03,96.67L682.58,98.69L681.29,100.37L677.17,102.76L673.61,103.35L672.36,105.93L668.69,106.25L666.54,105.62L664.62,102.01L665.71,100.53L660.95,98.89L660.24,97.23L657.12,98.75L656.99,100.37L651.7,100.95L654.94,103.72L655.98,106.09L658.36,107.54L660.51,107.55L662.27,108.91L661.93,112.72L663.56,112.6L662.41,117.31L659.76,117.32L657.43,120.71L654.73,118.94L652.7,118.78L646.99,116.17L644.59,114.46L642.54,114.6L644.8,117.88L646.83,118.37L651.49,123.28L650.19,125.97L645.51,124.22L641.19,123.7L638.25,122.64L636.92,120.53L633.65,120.41L629.53,118.68L627.16,116.29L626.75,114.57L622.99,110.18L618.65,108.67L615.39,109.97L606.88,111.29L602.19,110.52L601.15,108.99L602.51,107.03L606.26,105.67L607.73,103.89L614.09,105.27L625.7,103.35L623.37,99.74L631.66,96.19L633.68,94.37L636.98,93.03L634.88,87L630.18,84.39L629.8,82.77L622.11,84.48L622.41,82.61L625.23,82.48L626.89,80.79L621.87,78.83L616.56,73.41L614.58,73.99L615.99,75.76L614.96,76.93L611.41,77.41L605.37,76.26L599.81,77.73L596.07,76.77L592.46,77.01L581.99,75.95L581.56,74.46L575.27,75.33L572.01,73.75L571.74,70.6L577.24,71.27L578.95,69.78L573.86,69.33L571.22,68.15L572.18,65.53L574.59,64.34L574.7,62.89L579.89,59.17L583.63,57.28L589.17,55.49L593.74,54.87L600.86,55.01L590.69,60.29L589.16,64.54L589.21,66.55L592.19,68.95ZM624.58,55.87L630.07,55.81L634.22,56.74L636.82,59.1L635.47,60.57L629.42,60.14L621.62,60.94L620.07,60.33L620.25,58.29L618,57.41L619.1,55.5ZM508.92,60.01L506.79,57.84L504.37,56.85L506.72,55.64L511.85,55.25L514.91,56.1L514,57.56ZM466.74,61.86L471.74,61.29L476.46,59.64L481.65,61.18L486.09,61.47L488.5,59.65L491.96,62.39L490.63,66.67L495.31,65.84L494.76,64.39L496.84,58.96L500.17,57.7L504.96,58.45L507.76,60.75L506.86,62.87L506.37,68.49L503.92,70.39L505.17,72.36L509.52,73.76L513.21,76.01L515.42,76.62L514.26,78.46L510.96,78.56L508.92,77.72L506.4,79.86L508.24,80.27L507.16,82.52L501.57,83.7L498.89,83.79L492.99,82.18L488.24,81.71L487.11,80.08L481.62,82.65L477.1,83.05L473.66,84.08L468.45,84.85L461.86,85.37L453.32,85.65L452.69,83.62L454.02,81.52L447.69,81.11L442.3,80.16L441.48,77.94L442.78,76.21L455.28,74.98L463.67,75.48L467.07,74.2L460.86,72.78L450.32,73.39L443.36,73.13L441.62,71.64L444.99,70.07L453.06,68.92L444.71,68.48L442.95,67.03L444.14,65.32L448.79,63.74L449.46,62.2L454.61,60.51L470.13,57.46L471.69,58.03L469.89,60.34ZM567.61,237.01L564.85,237.73L556.14,243.5L553.32,246.44L542.97,246.47L540.18,247.56L539.53,252.13L532,255.14L526.03,256.23L518.54,259.91L517.16,259.91L515.32,257.83L516.39,255.59L519.97,253.36L521.69,250.27L524.26,246.85L526.02,234.66L521.51,231.45L522.1,229.4L520.08,229.62L520.04,226.45L517.84,227.08L517.24,224.06L507.2,217.62L502.17,214.54L495.63,216.62L492.57,215.79L489.07,215.89L488.82,215.23L484.83,216.2L478.52,212.45L476.51,212.42L474.5,213.04L470.28,211.57L470.68,207.78L469.28,207.34L468.14,209.89L451.11,209.88L435.33,209.88L424.06,209.88L410.53,209.88L401.51,209.88L392.49,209.88L378.96,209.88L363.18,209.88L351.91,209.88L338.38,209.88L322.06,209.88L320.68,209.88L320.93,206.74L318.26,206.58L317.96,204.49L316.22,204.39L315.01,199.9L308.97,199.54L310.11,197.69L306.9,197.28L304.65,195.39L306.33,193.2L305.94,192.37L307.77,188.72L305.44,188.67L309.68,184.03L307.98,183.91L308.52,181.48L305.91,180.5L303.86,181.43L301.94,178.31L305.24,175.62L304.53,173.73L310.61,168.86L311.69,165.8L313.19,164.14L312.47,161.91L308.64,159.52L308.08,158.27L307.84,149.06L307.48,145.97L304.8,142.25L305.72,140.41L304.71,139.05L299.59,140.24L296.04,143.12L290.53,144.71L291.4,142.65L287.96,137.21L289.83,135.56L286.83,135.66L284.61,136.58L280.18,135.84L291.13,123.01L300.74,112.17L308.9,103.25L318.86,92.68L332.44,78.84L339.9,79.63L342.59,81.77L347.52,83.32L351.52,83.15L354.58,80.83L357.96,79.91L363.91,79.68L366.75,80.11L369.42,78.84L374.09,78.24L382.72,75.96L385.76,76.81L380.71,78.81L391.26,77.03L395.47,75.5L398.39,75.4L398.06,78.37L399.62,80.2L407.77,76.86L408.86,78.83L406.14,80.43L409.84,80.44L414.71,77.91L419.07,77.87L423.29,78.78L425.12,80.19L430.78,81.15L433.25,82.41L441.6,83.52L444.14,82.82L447.67,84.16L449.04,86.22L444.76,86.98L440.08,89.04L440.95,89.66L446.14,90.33L452.76,90.46L459.9,89.83L465.11,88.72L465.91,90.17L468.34,90.3L471.38,93.02L468.37,94.18L473.61,95.26L473.55,90.18L475.85,88.39L480.52,87.82L482.57,86.46L477.82,86.62L474.07,87.69L472.69,86.94L475.88,84.96L480.25,84.5L487.07,83.14L489.04,84.32L488.42,85.86L492.25,88.4L495.91,87.9L498.23,89.71L502.98,90.41L508.64,89.54L514.21,90.23L517.98,89.62L521.58,90.87L523.67,89.45L518.85,88.2L520.88,86.7L525.79,85.9L526.32,87.07L530.26,87.65L526.33,91.24L527.65,93.4L530.34,92.98L530.38,90.15L532.36,88.46L535.85,88.16L542.69,85.36L543.89,83.33L543.19,79.87L536.85,77.79L536.04,76.07L538.92,73.64L538.56,72.09L541.11,69.41L549.04,65.79L552.44,66.58L555.91,68.33L556.49,69.47L554.72,71.84L556.59,73.01L558.47,75.76L551.32,78.47L554.42,79.54L560.47,79.7L558.45,80.96L558.46,83.47L556.52,85.77L559.88,85.49L562.68,82.58L566.39,81.1L569.35,83.77L568.93,86.18L566.05,86.87L564.85,89.98L567.06,93.45L571.62,91.47L576.27,88.15L579.24,84.85L581.73,84.19L584.79,82.23L582.95,81.3L584.59,77.7L590.28,77.76L592.41,78.55L597.13,78.6L596.22,79.97L601.04,81.95L599.7,84.69L593.17,85.94L593.84,89.41L595.76,91.8L593.55,94.14L589.15,95.97L582.21,98.34L576.55,99.5L572.63,97.15L567.71,97.37L567.2,98.64L568.7,100.44L560.53,104.49L557.31,104.53L551.04,100.97L549.13,101.29L552.58,104.53L561.23,105.45L558.75,107.71L552.61,111.65L549.4,112.72L543.46,112.28L542.2,113.98L534.86,115.81L537.11,116.77L535.08,119.28L531.8,120.16L527.47,120.07L518.38,127L515.19,128.4L513.22,130.56L507.82,135.1L505.5,138.03L502.17,144.71L503.64,145.9L508.78,145.65L507.98,155.15L508.06,156.87L514.53,155.37L517.08,155.48L520.32,157.05L524.14,157.89L527.33,160.38L528.66,163.04L536.2,165.64L539.01,168.07L544.94,167.87L551.24,168.96L552.12,171.15L549.81,174.15L549.73,177.69L546.76,183.35L548.75,186.85L548.06,187.78L551.86,191.34L552.25,194.19L554.63,195.24L557.41,192.59L560.53,191.5L564.38,188.05L564.15,185.56L565.01,178.36L566.37,176.48L565.37,175.84L564.82,171.91L569.18,170.71L575.32,168.39L580.16,165.6L583.96,162.71L586.23,158.82L587.26,155.76L587.26,152.04L586.66,150.36L581.78,146.12L582.83,144.71L587.52,141.67L588.54,139.79L590.83,139.02L591.64,137.47L591.06,132.77L593.64,128.68L593.69,124.49L594.77,122.95L598.77,121.6L605.51,123.2L610.57,124.02L616.46,122.33L621.91,126.86L623.56,130.43L628.89,130.99L631.01,133.38L628.25,138.08L628.68,141.94L626.83,144.92L631.05,144.7L632.12,146.67L634.93,149.12L640.54,146.97L646.86,143.38L652.95,136.14L655.11,136.04L656.42,139.99L657.6,141.97L658.25,145L660.3,147.45L659.55,148.44L660.6,150.66L662.38,151.38L661.55,154.47L663.33,156.86L661.06,160.88L662.09,164.28L663.59,163.68L666.69,168.23L671.21,168.96L671.68,170.99L674.72,170.81L678.17,172.75L676.3,173.95L673.92,174.19L670.86,176.17L666,177.59L664.32,177.58L663.63,179.76L666.51,178.84L669.04,177.31L672.43,176.15L673.47,174.99L677.31,175.42L678.07,177.5L675.91,178.91L676.4,179.99L679.45,178.21L681.42,178.04L682.91,179.21L683.82,181.69L681.97,187.66L682.37,188.81L674.47,193.34L670.28,193.55L666.17,194.43L661.78,197.87L656,201.39L649.55,201.74L647.08,202.4L646.3,201.54L642.26,201.08L639.4,201.47L636.92,201.05L630.91,201.25L628.9,200.95L624.16,201.75L622.24,201.68L619.44,203.14L615.83,207.48L610.71,208.5L606.52,210.99L603.23,213.98L600.5,215.93L599.25,217.73L593.55,222.43L589.83,224.77L586.33,225.51L581.21,228.23L579.43,228.77L575.79,231.98L572.27,233.6L572.29,234.67ZM529.8,78.89L533.76,80.64L534.14,84.22L529.82,85.79L525.21,85.36L518.36,83.47L517.65,82.46L523.93,80.7L526.5,78.23ZM611.89,78.04L607.74,79.51L606.23,78.26ZM609.78,83.58L614.29,80.48L615.75,80.87ZM624.28,86.67L626.4,87.19L624.38,91.34L620.59,92.86L614.87,92.96L614.86,90.33L619.11,87.21ZM632.08,89.87L627.83,89.6L629.53,88.03L633.5,88.76ZM571.37,105.06L573.45,103.93L575.16,105.33L577.98,106.02L580.4,108L582.88,108.83L583.42,110.16L582.46,112.64L586.9,112.22L588.37,114.24L583.87,116.09L578.29,114.58L578.58,113.23L574.25,112.16L572.2,113.92L568.69,115.33L566.22,117.03L561.53,118.09L562.21,114.88L555.22,114.79L557.52,113.24L561.26,111.93L562.14,109.31L567.98,102.37L571.68,101.82L570.71,103.55ZM599.05,116.04L600.12,117.17L597.66,118.24L595.88,116.73ZM577.69,119.23L576.19,121.1L570.43,123.85L566.98,124.16L567.03,122.2L570.93,119.53ZM587.81,122.6L587.71,125L584.87,127.39L582.51,126.3L585.3,123.02ZM572.85,161.68L570.58,164.16L567.38,164.67L566.53,163.85L569.45,161.82ZM291.83,175.66L296.09,176.58L291.31,181.34L288.37,181.81L287.71,181.04L288.23,177.95L289.82,175.55ZM307.73,183.49L306.17,186.28L304.49,184.27L306.71,181.24ZM292.33,181.8L291.75,183.61L289.19,186.13L288.45,183.71L289.02,182.19ZM554.08,184.77L548.93,183.37L549.51,181.86L553.23,181.73Z" class="land" id="CA" title="Canada"/>
    <path d="M472.31,474.32L473.24,477.45L476.87,482.99L478.11,483.64L475.81,484.52L475.65,489.45L475.02,492.04L475.61,494.1L474.26,492.14L474.12,490.51L470.71,490.32L471.46,487.4L470.02,485.73L465.63,483.15L465.41,481.39L462.88,483.6L461.79,482.01L459.98,481.37L459.06,479.77L458.99,477.93L460.14,475.52L459.84,473.31L460.64,472.46L464.77,474.12L466.06,473.38L468.13,473.88L469.1,475.27L471.21,475.53Z" class="land" id="CR" title="Costa Rica"/>
    <path d="M492.73,389.01L496.48,389.73L499.62,389.42L501.11,390.54L502.81,390.55L504.93,391.94L506.94,394.28L510.35,394.56L513.28,396.36L514.7,397.82L516.83,398.02L521.26,402.12L524.49,403.17L526.53,403.33L526.66,405.96L531.06,406.54L533,408.4L534.95,409.04L534.27,410.52L532,410.67L529.03,411.77L526.46,411.84L522.97,411.15L517.94,411.83L513.69,412.09L514.84,410.51L517.04,408.99L517.25,406.59L512.8,406.09L510.22,403.73L509.8,400.5L508.81,399.78L506.1,400.18L500.8,398.02L499.42,396.68L496.69,396.75L494.02,395.84L491.84,395.73L492.46,393.87L491.83,392.38L486.95,392.31L482.7,395.57L479.59,395.94L478.59,397.52L476.99,396.61L477.11,394.48L479.28,392.47L484.22,390.37L487.76,389.84L491.22,388.81ZM486.82,400.12L484.98,401.01L483.99,398.58L486.25,397.89Z" class="land" id="CU" title="Cuba"/>
    <path d="M561.66,466.37L561.34,466.47L560.25,465.8L559.37,464.72L559.85,464.41L560.18,465.18L561.25,465.69Z" class="land" id="CW" title="Curaçao"/>
    <path d="M491.71,415.62L493.12,415.63L492.03,416.16Z" class="land" id="KY" title="Cayman Islands"/>
    <path d="M607.67,444.18L606.63,442.26L607.62,441.84Z" class="land" id="DM" title="Dominica"/>
    <path d="M547.31,424.75L547.57,422.64L546.36,420.86L547.98,419.92L547.8,418.15L548.79,417.14L548.54,413.04L549.98,411.81L553.55,411.68L558.19,413.62L559.24,413.37L560.23,415.97L562.61,416.65L566.15,418.72L567.81,421.27L565.81,423.48L564.32,422.18L559.41,421.93L556.83,423.27L555.05,423.51L554.17,422.68L551.86,423.12L549.23,427.49L547.93,426.6Z" class="land" id="DO" title="Dominican Republic"/>
    <path d="M607.93,437.35L606.77,437.37L606.85,435.93L607.59,435.7Z" class="land" id="GP" title="Guadeloupe"/>
    <path d="M603.57,466.7L603.64,465.51L604.3,465.24L604.11,466.41Z" class="land" id="GD" title="Grenada"/>
    <path d="M857.47,71.44L857.32,73L853.44,74.15L851.81,73.57L845.88,74.15L847.25,71.58L850.49,71.78L855.87,70.74ZM894.29,46.18L895.73,48.45L891.07,48.4L890.55,46.66ZM856.01,6.13L870.98,7.27L876.07,9.01L887.18,10.23L872.1,12.86L887.23,12.56L887.52,14.24L891.85,14.84L902.8,15.46L909.81,13.61L922.99,14.45L925.47,15.49L913.1,18.59L903.86,19.5L907.04,20.35L903.09,21.3L892.78,21.02L889.43,23.24L892.79,23.83L893.12,26.48L884.77,29.5L880.68,33.45L884.5,32.82L886.59,35.66L894.38,36.46L893.28,38.78L886.87,37.99L883.13,38.2L878.87,39.88L879.89,41.37L886.04,41.77L888.14,44.27L888.03,47.15L883.56,46.68L881.61,47.55L885.4,48.55L888.24,51.28L887.45,52.36L874.63,53.78L882.73,54.79L881.79,56.78L877.2,57.12L874.25,58.03L866.89,57.31L874.57,60.02L872.67,64.56L865.2,62.4L862.5,62.75L873.5,67.02L874.47,68.23L874.62,73.73L872.65,74.21L866.43,74.17L864.45,73.57L862.43,70.14L856.16,67.69L856.37,69.93L851.75,71.27L847.45,71.03L843.02,74.02L845.29,74.45L851.08,74.03L852.29,75.51L856.42,74.74L866.8,76.13L866.96,77.48L863.9,78.98L850.28,84.58L837.18,86.81L834.35,86.73L828.95,88.22L824.05,86.3L822.8,89.04L818.34,90.81L812.73,96.2L809.86,97.96L800.83,101.61L794.03,103.05L789.93,102.86L783.6,103.27L785.06,104.58L779.31,107.17L780.85,109.83L778.23,111.97L777.9,114.46L775.18,115.77L774.52,117.25L768.36,121.62L766.87,124.21L767.42,126.06L765.4,128.06L762.71,132.89L759.86,135.63L758.4,138.19L754.73,138.21L748.75,136.45L748.25,134.46L746.18,133.84L747.19,130.82L742.49,132.58L738.01,132.5L733.35,129.68L732.15,127.73L732.08,123.71L728.85,122.22L729.45,120.01L727.94,118.63L725.64,114.98L726.26,113.36L725.56,111.06L724.24,110.22L724.99,105.71L723.54,103.06L721.49,103.04L722.74,100.72L720.74,99.65L721.2,98.08L724.87,95.6L721.61,93.75L724.72,91.12L724.56,89.56L727.34,87.35L728.73,84.96L732.3,84.43L734.35,85.33L737.19,84.2L738.97,81.43L743.13,77.17L735.47,76.45L732.54,75.04L728.35,74.34L726.7,72.97L728.58,72.03L734.53,72.43L739.59,74.24L742.51,71.15L734.39,69.18L736.45,68.1L733.53,67.3L727.5,68.87L723.91,67.8L726.47,64.61L726.02,62.65L730.05,61.59L730.83,60.28L727.07,59.51L729.31,58.08L726.51,56.41L728.1,54.53L725.54,52.72L726.28,50.22L720.39,46.3L721.58,44.64L710.77,41.99L702.48,41.13L686.97,43.13L681.65,42.6L677.3,41.17L678.96,39.27L673.07,38.3L674.95,36.58L681.78,36.57L685.92,35.6L693.01,35.53L692.94,34.02L687.04,34.87L681.12,35.14L673,32.88L669.19,31.35L672.05,29.76L687.34,27.96L694.45,26.65L700.71,26.58L703.66,25.53L708.45,22.27L700.4,21.9L700.99,20.26L713.06,17.47L719.88,16.5L725.85,16.84L728.91,14.01L739.94,12.45L756.5,11.3L764.07,11.43L770.18,13.34L775.15,12.99L771.5,10.82L779.69,11.06L792.15,13.64L795.21,13.54L797.72,11.22L790.58,8.69L804.17,7.41L811.1,8.06L815.35,7.09L825.5,6.46L844.41,5.99ZM733.06,77.12L735.86,77.92L734.87,79.79L727.7,81.15L727.33,79.69L723.25,79.07L724.07,75.86L726.5,74.95L730.77,75.51Z" class="land" id="GL" title="Greenland"/>
    <path d="M444.34,426.31L442.26,439.69L444.3,439.72L448.12,440.84L443.23,444.92L441.56,446.85L441.67,448.66L440.4,449.98L437.1,452.56L435.56,454.71L432.65,453.37L429.44,453.4L425.66,451.29L423.42,449.08L424.78,445.4L424.31,443.69L427.59,438.47L435.24,438.45L435.68,436.24L434.21,434.02L430.55,430.2L433.01,430.23L433.54,426.3Z" class="land" id="GT" title="Guatemala"/>
    <path d="M477.66,445.97L476.14,445.86L471.8,447.79L469.21,448.47L467.42,447.24L465.43,449.22L465.2,450.49L461.25,453.96L459.19,452.92L457.96,454.48L455.57,454.52L455.41,457.66L453.13,459.89L451.47,459.98L450.8,457.38L448.9,457.06L449.76,454.18L447.29,452.97L445.43,453.92L442.15,450.59L440.4,449.98L441.67,448.66L441.56,446.85L443.23,444.92L448.12,440.84L451.88,439.58L455.98,440.61L459.26,440.47L462.82,438.94L464.52,439.66L467.62,439.03L471.71,440.19L474.24,444.39L476.58,444.25Z" class="land" id="HN" title="Honduras"/>
    <path d="M548.54,413.04L548.79,417.14L547.8,418.15L547.98,419.92L546.36,420.86L547.57,422.64L547.31,424.75L545.73,423.43L540.85,423.96L537.92,423.27L535.73,423.7L534.81,424.73L531.89,422.61L533.26,420.4L536.91,421.38L541.57,422L544.37,420.32L541.94,417.56L542.87,414.98L540.95,413.79L540.8,411.75L543.63,411.77L545.96,412.86Z" class="land" id="HT" title="Haiti"/>
    <path d="M515.19,421.84L517.22,422.31L520.33,423.96L520.97,425.63L519.08,425.95L517.22,425.21L514.1,426.18L511.73,425.88L509.54,421.9L511.63,421.39Z" class="land" id="JM" title="Jamaica"/>
    <path d="M600.8,430.32L599.63,429.63L599.93,429.19L600.38,429.53Z" class="land" id="KN" title="Saint Kitts and Nevis"/>
    <path d="M609.25,454.12L608.3,453.46L609.39,452.8Z" class="land" id="LC" title="Saint Lucia"/>
    <path d="M599.07,424.55L598.41,424.55L598.8,424.22Z" class="land" id="MF" title="Saint Martin"/>
    <path d="M407.05,369.45L406.04,372.08L403.59,376.07L401.79,380.44L399.77,388.01L399.42,390.55L398.35,392.76L398.38,399.89L400.26,406.79L403.34,411.99L403.76,415.66L405.25,417.67L405.91,419.76L409.63,420.14L411.71,421.44L412.86,423.8L414.99,423.66L418.98,422.02L422.96,421.76L424.13,420.76L428.57,420.03L429.35,421.75L430.92,421.84L432.61,420.67L432.48,418.75L436.48,415.6L437.14,412.96L438.42,411.7L439.22,407.2L440.48,404.04L443.9,402.19L449.58,401.22L454.18,399.8L459.17,400.98L460.07,399.77L461.65,401.16L461.67,403.05L460.85,404.91L458.36,407.54L456.51,410.37L456.24,413.99L453.18,421.91L452.48,423.15L450.87,420.01L450.06,421.73L448.69,421.92L446.58,425.27L445.16,425.03L444.34,426.31L433.54,426.3L433.01,430.23L430.55,430.2L434.21,434.02L435.68,436.24L435.24,438.45L427.59,438.47L424.31,443.69L424.78,445.4L423.42,449.08L420.48,444.95L414.66,438.58L412.14,436.97L410.37,437.55L409.14,436.05L405.41,439.14L400.73,441.09L398.93,441.38L395.16,439.59L391.83,439.19L389.76,437.52L387.59,436.83L386.37,435.23L381.04,433.94L379.26,432.55L374.65,430.6L370.65,427.45L369.47,425.56L364.58,424.59L360.48,422.76L358.24,419.25L352.74,415.9L350.32,411.25L349.71,408.39L352.35,407.04L351.23,405.66L353.17,403.27L353.81,400.68L352.66,399.79L351.87,397.21L352.35,394.84L351.9,392.74L349.12,388.78L346.99,383.99L344.25,380.65L344.53,379.74L342.16,378.86L340.6,374.82L338.77,373.21L337.24,372.82L335.57,371.09L335.83,368.96L337.6,367.05L336.63,364.22L335.04,364.27L334.59,361.64L331.92,359.94L331.71,357.63L332.58,356.16L329.35,355.44L328.09,352.52L327.04,351.92L325.29,348.08L325.42,346.33L323.85,341.33L323.98,339.12L323.34,335.67L324.5,332.98L321.55,331.81L320.29,329.83L318.88,330.69L315.56,328.65L313.95,333.14L314.03,337.68L313.39,339.56L314.16,342.41L316.51,345.14L317.41,348.72L318.86,349.62L318.97,351.63L320.09,352.24L319.77,356.42L321.57,358.54L322.43,362.43L324.53,364.24L324.92,368.31L324.59,370.65L325.65,372.49L326.55,377.65L325.9,379.04L326.41,381.66L329.41,381.94L331.88,386.79L331.27,388.64L328.08,390.94L327.3,390.11L326.56,385.92L325.2,384.99L323.39,382.43L321.5,380.86L318.5,377.29L318.5,375.87L319.65,372.76L319.67,369.8L319,367.69L315.9,365.11L315.31,363.2L312.79,364.14L311.82,362.43L308.77,360.67L308.61,359.18L306.55,357.05L310.81,356.09L313.3,352.22L313.08,350.97L309.7,345.53L306.53,342.93L306.83,339.1L306.02,338.33L306.46,335.6L305.46,334.44L305.75,332.82L304.65,330.29L305.51,328.28L304.53,327.26L304.13,323.52L318.22,322.24L317.13,323.69L329.06,328.86L336.27,331.96L342.34,331.95L352.45,331.93L353.37,328.79L363.39,328.85L364.08,330.42L368.25,335.58L369.65,336.71L370.4,340.28L370.58,343.48L372.32,345.51L376.55,348.21L379.04,346.7L380.7,343.71L383.78,342.13L388.37,342.78L391.64,347.74L392.48,352.91L394.64,357.09L395.79,358.36L395.34,361.94L396.38,366.06L401.76,368.74L403.36,368.89L405.68,370.09Z" class="land" id="MX" title="Mexico"/>
    <path d="M603.36,433.8L603.29,434.21L602.9,434.09L602.92,433.72Z" class="land" id="MS" title="Montserrat"/>
    <path d="M609.99,449.44L608.56,449.63L607.81,447.28L609.56,447.76Z" class="land" id="MQ" title="Martinique"/>
    <path d="M477.66,445.97L476.65,447.66L477.03,450.51L475.47,452.91L474.12,457.61L473.91,463.93L472.09,467.27L472.64,469.28L471.16,471.66L472.31,474.32L471.21,475.53L469.1,475.27L468.13,473.88L466.06,473.38L464.77,474.12L460.64,472.46L459.84,473.31L458.69,471.44L455.89,468.61L454.43,465.7L449.45,460.5L451.47,459.98L453.13,459.89L455.41,457.66L455.57,454.52L457.96,454.48L459.19,452.92L461.25,453.96L465.2,450.49L465.43,449.22L467.42,447.24L469.21,448.47L471.8,447.79L476.14,445.86Z" class="land" id="NI" title="Nicaragua"/>
    <path d="M475.61,494.1L475.02,492.04L475.65,489.45L475.81,484.52L478.11,483.64L479.2,484.67L479.79,487.42L482.53,487.94L485,489.17L488.13,488.43L489.95,487.07L492.51,486.18L495.96,483.49L502.29,484.82L504.74,486L508.75,490.02L508.47,491.62L509.5,494.35L508.56,496.64L506.15,497.81L505.11,499.94L503.6,497.76L502.27,494.17L504.23,491.95L502.13,491.49L501.93,490.23L498.65,487.66L496.53,487.6L495,488.68L494.52,490.45L492.18,492.16L490.71,492.58L490.1,494.06L492.24,496.9L489.94,499.63L487.49,500.01L486.52,496.6L485.09,497.19L483.71,496.53L482.53,493.63L476.9,492.35Z" class="land" id="PA" title="Panama"/>
    <path d="M580.91,421.92L583.82,422.37L583.77,423.33L581.52,425.2L578.92,425.37L574.29,425.06L574.87,421.54Z" class="land" id="PR" title="Puerto Rico"/>
    <path d="M440.4,449.98L442.15,450.59L445.43,453.92L447.29,452.97L449.76,454.18L448.9,457.06L448.06,458.58L444.61,458.56L440.25,456.51L437.17,455.94L435.56,454.71L437.1,452.56Z" class="land" id="SV" title="El Salvador"/>
    <path d="M670.21,224.48L669.94,222.92L670.48,222.9L670.14,223.7Z" class="land" id="PM" title="Saint Pierre and Miquelon"/>
    <path d="M598.41,424.55L599.07,424.55L598.97,424.89Z" class="land" id="SX" title="Sint Maarten"/>
    <path d="M550.96,398.77L549.99,398.59L550.19,398.16L550.98,398.29Z" class="land" id="TC" title="Turks and Caicos Islands"/>
    <path d="M607.05,479.76L606.06,480.15L604.19,478.83L604.49,476.95L603.81,475.5L607.11,476.04Z" class="land" id="TT" title="Trinidad and Tobago"/>
    <path d="M300.55,149.45L302.65,149.56L302.1,151.91L300.32,154.75L296.42,156.56L298.21,153.82L298.1,152.82ZM295.72,148.92L298.4,150.16L295.36,153.63L294.03,152.66L291.2,152.58L290.2,150.67L291.1,149.87ZM207.94,151.62L210.02,151.44L208.34,153.99L206.48,154L203.95,155.39L198.87,157L195.75,157.44L196.19,154.76L200,152.82L202.08,153.09ZM295.16,154.66L293.87,158.75L291.84,161.45L290.79,158.08L292.44,156.75L290.9,154.88L294.15,153.49ZM301.54,156.9L303.02,157.7L299.76,160.39L297.79,160.4L299.34,156.48ZM297.65,157.93L297.08,159.63L294.56,160.72L295.69,157.97ZM303.66,162.7L300.74,162.9L304.12,160.17ZM297.39,161.21L299.13,161.33L300.09,165.45L299.21,166.78L300.2,168.57L298.34,171.21L295.36,169.62L295.45,164.73L297.07,163.92ZM306.54,166.74L305.01,168.19L301.1,168.48L304.84,164.51L307.21,163.7ZM138.72,170.06L137.95,171.66L133.66,172.41L129.8,173.84L129.42,172.5L132.79,170.71L137.06,169.68ZM116.6,177.15L116.08,178.79L113.42,179.94L111.83,179.61L115.09,176.74ZM476.51,212.42L478.52,212.45L484.83,216.2L488.82,215.23L489.07,215.89L492.57,215.79L495.63,216.62L502.17,214.54L507.2,217.62L517.24,224.06L517.84,227.08L520.04,226.45L520.08,229.62L522.1,229.4L521.51,231.45L526.02,234.66L524.26,246.85L521.69,250.27L519.97,253.36L516.39,255.59L515.32,257.83L517.16,259.91L518.54,259.91L526.03,256.23L532,255.14L539.53,252.13L540.18,247.56L542.97,246.47L553.32,246.44L556.14,243.5L564.85,237.73L567.61,237.01L578.12,236.99L584.87,236.98L586.46,235.05L588.72,235.24L593.24,230.84L594.19,228.48L596.4,225.36L602.02,220.24L603.71,222L606.78,220.97L608.93,222.82L606.36,232.23L608.06,232.91L607.23,235.15L608.91,235.88L608.48,237.82L603.34,240.78L601.44,240.41L599.25,241.76L597.59,240.91L596.38,243.22L591.9,245.23L589.72,245.5L587.07,248.37L584.41,251.98L584.63,253.05L582.31,255.38L583.81,256.09L584.55,260.24L583,260.88L578.95,260.2L577.96,261.96L570.47,262.74L565.97,264.43L561.66,267.29L562.64,269.23L560.35,273.4L558.34,275.76L555.31,277.43L553.13,276.08L552.47,277.8L553.41,281.89L548.77,287.96L548.98,285.71L546.61,282.88L547.72,279.47L545.85,279.15L545.3,281.69L545.5,286.14L544.57,289.87L543.56,290.87L545.3,292.96L545.48,294.74L543.41,297.37L541.13,299.12L544.9,300.02L544.48,301.78L541.75,303.83L539.71,304.41L537.87,306.7L537.56,308.34L535.3,308.33L531.14,311.28L529.06,313.89L525.8,314.16L523.52,315.66L520.68,319.31L515.64,322.91L514.39,323.22L510.15,326.44L507.53,329.31L507.4,330.52L504.44,335.11L504.43,342.66L505.41,347.86L506.81,351.81L505.68,353.94L506.87,360.75L507.29,361.62L507.14,365.21L505.76,370.35L503.76,373.86L501.41,375.08L499.5,373.94L498.56,370.36L496.71,369.3L496.39,366.14L493.85,361.78L493.45,357.17L492.56,356.28L494.48,351.81L495.09,349L492.21,345.05L490.58,341.74L488.83,340.5L486.59,341.87L480.88,343.46L480.97,342.09L479.1,340.06L476.94,338.9L476.72,337.78L472.44,338.21L467.61,339.18L465.75,338.66L461.41,338.32L458.92,338.81L457.1,340.07L453.78,338.57L452.32,340.24L456.7,341.82L455.48,343.88L456.36,345.28L458.9,346.8L456.75,347.73L454.33,345.01L452.61,346.94L451.19,346.15L448.8,347.3L445.94,346.19L446.05,344.62L443.34,342.37L440.78,344.32L438.48,344.04L435.87,342.77L432.87,342.83L430.38,343.53L425.36,345.62L422.48,348.47L417.57,351.1L415.12,351.05L414.1,352.64L410.31,354.2L409.81,356.05L407.88,359.26L406.89,360L406.18,362.42L406.2,366.41L407.05,369.45L405.68,370.09L403.36,368.89L401.76,368.74L396.38,366.06L395.34,361.94L395.79,358.36L394.64,357.09L392.48,352.91L391.64,347.74L388.37,342.78L383.78,342.13L380.7,343.71L379.04,346.7L376.55,348.21L372.32,345.51L370.58,343.48L370.4,340.28L369.65,336.71L368.25,335.58L364.08,330.42L363.39,328.85L353.37,328.79L352.45,331.93L342.34,331.95L336.27,331.96L329.06,328.86L317.13,323.69L318.22,322.24L304.13,323.52L304.33,319.56L303.94,318.19L301.45,315.21L299.63,315.06L299.74,313.15L296.36,312.49L294.48,310.36L289.66,309.98L289,309.22L290.31,305.76L289.76,303.74L286.55,297.01L288.11,294.22L288.16,292.77L286.71,292.41L286.01,290.91L287.35,286.52L285.28,284.72L285.68,283.47L283.52,279.09L285.31,272.47L284.06,269.76L284.53,268.1L287.32,264.79L288.96,261.92L289.73,256.82L290.93,253.64L290.95,252.06L295.98,246.01L300.14,238.56L303.6,233.09L305.49,229.24L305.3,228.29L307.65,225.7L306.97,225.12L308.67,218.91L308.27,217.24L309.97,214.05L312.69,215.46L318.32,215.98L318.64,217.4L321.32,216.52L322.06,209.88L338.38,209.88L351.91,209.88L363.18,209.88L378.96,209.88L392.49,209.88L401.51,209.88L410.53,209.88L424.06,209.88L435.33,209.88L451.11,209.88L468.14,209.89L469.28,207.34L470.68,207.78L470.28,211.57L474.5,213.04ZM571.82,264.68L567.44,266.98L564.17,267.4L563.92,266.02L565.83,265.14ZM36.75,397.6L34.53,396.83L36.12,395.56L37.45,395.59ZM45.05,400.92L42.95,401.88L42.52,400.02L44.56,399.21ZM51.76,404.58L53.03,404.44L53.46,406.58L51.46,406.77ZM53.69,417.97L52.02,417.56L52.49,415.39L52.2,412.83L54.01,410.98L54.41,409.16L57.64,411.12L59.14,414.4L57.32,415.82L55.71,416.24ZM332.44,78.84L318.86,92.68L308.9,103.25L300.74,112.17L291.13,123.01L280.18,135.84L284.61,136.58L286.83,135.66L289.83,135.56L287.96,137.21L291.4,142.65L290.53,144.71L296.04,143.12L299.59,140.24L304.71,139.05L305.72,140.41L304.8,142.25L307.48,145.97L307.84,149.06L308.08,158.27L308.64,159.52L312.47,161.91L313.19,164.14L311.23,166.11L310.46,167.99L308.34,169.76L305.35,171.44L304.12,171.19L304.69,168.9L306.56,167.61L307.98,165.13L307.37,163.33L301.3,165.22L305.24,162.37L304.48,156.67L301.84,155.82L303.9,152.45L303.86,149.13L301.5,147.58L297.91,148.85L296.72,146.79L294.26,148.24L291.49,148.91L288.38,146.76L286.94,143.53L282.15,140.61L281.03,139.47L278.06,139.33L275.16,137.93L269.56,137.12L264.9,137.65L261.26,135.62L257.15,134.71L255.29,131.4L251.86,131.46L247.28,132.35L244.18,136.67L242.04,137.8L237.19,137.73L231,140.48L229.1,140.5L225.44,142.54L221.28,142.89L221.95,141.5L225.8,137.81L228.41,136.45L232.11,133.05L238.01,131.28L238.76,129.53L231.06,131.99L230.09,132.97L222.71,136.23L220.38,138.24L218.42,138.53L210.66,141.78L209.07,143.32L211.72,144.83L206.08,147.33L203.08,149.46L198.49,150.38L192.12,153.26L187.27,154.81L186.04,156.25L177.86,159.29L172.54,160.58L171.91,162.13L168.14,163.49L160.54,164.95L157.27,166.29L153.19,167.28L149.85,167.38L144.93,169.61L138.84,170.74L149.59,165.24L156.07,163.27L156.51,164.89L158.36,164.23L162.34,161.37L169.59,158.94L177.87,155L183.16,153.05L188.26,147.79L192.79,145.77L192.78,144.87L187.04,146.39L185.87,145.04L180.79,147.48L180.45,144.66L177.84,143.76L170.64,146.2L168.34,146.57L170.58,143.99L171.01,142.28L173.8,140.34L175.32,136.61L172.57,137.8L168.5,138.71L164.89,138.96L164.22,135.81L162.31,134.31L167.17,132.11L164.77,130.78L166.7,126.39L169.38,125.98L170.38,124.54L175.23,122.21L183.74,117.61L185.48,117.33L187.69,118.66L196.9,116.14L201.74,115.5L204.92,113.89L206.65,111.23L208.99,109.22L209.99,107.12L206.59,107.78L198.8,110.48L195.88,109.17L189.43,109.95L184.34,109.2L185.31,107.1L184.48,106.07L186.85,104.59L183.94,104.08L182.3,102.65L188.52,101.33L191.22,100.27L204.25,97.23L208.28,97.38L205,99.28L205.71,100.07L214.3,100.26L216.79,99.07L224.08,98.04L222.76,96.53L219.5,97.25L218.33,96.35L220.12,94.26L215.16,94.39L212.94,93.39L213.82,90.93L210.97,88.31L209.08,87.66L208.99,86.06L212.93,83.34L221.98,83.04L230.24,80.38L233.7,78.21L242.45,74.86L246.24,75.02L257.68,71.69L263.35,71.88L271.95,69.15L277.71,70.41L280.11,72.14L285.27,71.38L288.96,72.09L287.96,74.17L290.98,74.36L300.3,73.88L305.57,75.53L313.7,75.86L315.6,76.75L325.18,76.12L330.61,78.82ZM152.78,114.99L158.11,114.63L158.7,115.91L162.16,117.89L157.21,118.37ZM213.31,148.18L213.74,149.45L208.47,150.51L206.99,149.93L212.53,147.6ZM157.5,135.31L159.06,135.75L157.25,138.29L153.46,139.17L150.24,137.68L155.83,135.32Z" class="land" id="US" title="United States"/>
    <path d="M607.28,458.74L606.7,458.38L607.33,457.36L607.65,457.79Z" class="land" id="VC" title="Saint Vincent and the Grenadines"/>
    <path d="M591.16,421.79L591.01,421.45L591.61,421.42Z" class="land" id="VG" title="British Virgin Islands"/>
    <path d="M588.53,426.46L588.94,427.07L587.74,427.1L587.81,426.61Z" class="land" id="VI" title="US Virgin Islands"/>
    <path d="M564.95,465.78L564.48,465.6L564.02,465L564.05,464.69L564.91,465.18Z" class="land" id="BQ" title="Bonair, Saint Eustachius and Saba"/>
  </g>
</svg>