<?xml version="1.0" encoding="UTF-8"?>
<svg xmlns="http://www.w3.org/2000/svg" width="545.19" height="499.02" viewBox="207.4 3.49 545.19 499.02">
  <!-- Created using SVG Map Generator: dojo.amcharts.com/svg-map-generator -->
  <style>
    .land { fill: #ffffff; stroke: #000000; stroke-width: 0.5; }
  </style>
  <g id="polygons">
    <path d="M750,214.77L749.95,214.11L750.1,214.4Z" class="land" id="TV" title="Tuvalu"/>
    <path d="M653.97,6.31L653.6,6.12L653.69,5.99L653.91,6.09Z" class="land" id="UM-WQ" title="Wake Island"/>
    <path d="M662.23,261.77L664.23,264.09L664.12,266.72L661.5,267.84L660.61,266.12L660.8,261.95Z" class="land" id="VU" title="Vanuatu"/>
    <path d="M400.38,221.94L399.84,217.68L401.68,215.47L405.82,214.31L411.09,214.06L412.83,215.98L402.74,220.18Z" class="land" id="TL" title="Timor-Leste"/>
    <path d="M625.37,214.62L619.73,210.93L620.9,209.9L625.3,213.07ZM623.91,220.15L629.26,222.52L629.09,225.06L624.1,224.04L622.85,222.09ZM631.15,212.97L632.51,215.21L633.58,220.48L631.25,219.28L630.08,213.41Z" class="land" id="SB" title="Solomon Islands"/>
    <path d="M583.12,186.35L581.39,184.42L581.05,180.65L584.35,182.58ZM601.41,200.8L599.76,202.11L597.43,201.05L596.77,197.96L594.25,195.43L595.86,192.21L598.57,196.74L600.73,198.5ZM576.53,182.91L579.67,183.24L579.48,186.16L576.86,188.2L577.53,190.84L575.63,192.4L573.38,192.3L571.34,195.05L565.98,197.72L560.96,197.83L557.65,196.61L553.16,193.9L552.91,192.25L557.17,191.8L558.71,192.46L565.53,192.18L569.81,191.34L572.44,187.87L574.7,187.3L574.16,183.27ZM503.12,219L504.61,202.43L505.87,182.38L506.33,170.29L507.69,170.42L514.21,173.83L522.5,176.43L525.67,179.07L528.64,179.38L532.4,183.3L533.98,183.57L536.59,186.85L536.86,191.7L540.34,192.78L544.26,195.05L546.45,195.28L549,198.01L549.08,200.61L544.36,201.05L543.22,202.61L544.41,205.97L547.52,209.7L549.96,211.39L550.39,214.77L552.17,218.5L556.44,218.64L555.87,221.16L559.67,225.7L564.54,227.52L563,230.37L560.06,229.92L558.58,228.24L546.06,226.12L540.04,218.3L536.48,211.2L529.84,209.14L527,207.38L520.8,212.12L517.37,212.95L518.64,217.82L513.72,220.56L511.16,219.38L504.05,219.77Z" class="land" id="PG" title="Papua New Guinea"/>
    <path d="M463.18,95.54L462.57,95.13L462.8,93.96L463.42,93.44Z" class="land" id="PW" title="Palau"/>
    <path d="M621.75,460.59L626.8,458.42L630.01,458.65L626.47,462.27L626.48,464.03L618.36,469.81L614.21,473.21L609.87,475.3L607.9,480L605.08,479.53L598.02,481.81L591.52,488.48L585.79,493.24L575.38,499.61L567.56,500.01L565.66,496.98L560.13,497.01L563.48,492.2L569.08,487.92L580.29,481.41L583.31,480.74L590.28,477.77L596.41,474.18L599.86,472.85L605.13,469.41L609.67,464.43L614.42,461.82L617.5,458.11L622.46,454.91L623.01,457.37ZM649.88,413.06L653.02,413.75L655.05,415.4L653.38,419.37L653.7,423.39L651.02,427.38L653.87,428.52L657,424.64L657.5,428.26L655.98,433.41L661.87,436L667.82,432.74L670.4,433.77L664.99,440.2L662.48,441.48L660.52,444.63L657.46,444.17L653.44,446.32L652.98,448.6L649.14,452.22L639.06,460.1L633.18,463.06L630.71,460.66L636.98,455.68L639.07,453.2L639.16,450.69L634.75,447.37L635.86,444.61L641.94,441.95L648.19,434.61L648.51,431.94L650.95,428.15L649.11,428.14L650.97,424.45L649.05,422.39L647.89,415.09Z" class="land" id="NZ" title="New Zealand"/>
    <path d="M674.61,154.63L674.34,154.85L674.32,154.5Z" class="land" id="NR" title="Nauru"/>
    <path d="M637.63,368.5L637.69,368.94L637.31,369Z" class="land" id="NF" title="Norfolk Island"/>
    <path d="M636.45,302.47L637.86,302.74L641.64,306.4L643.56,310.15L649.82,316.34L648.11,318.49L640.33,312.09L636.84,306.85Z" class="land" id="NC" title="New Caledonia"/>
    <path d="M527.47,37.46L527.05,37.52L527.11,36.85L527.61,37.15Z" class="land" id="MP" title="Northern Mariana Islands"/>
    <path d="M698.81,97.36L699.65,97.75L699.51,97.85L698.79,97.58Z" class="land" id="MH" title="Marshall Islands"/>
    <path d="M723.41,156.77L723.23,156.55L723.06,155.61L723.2,155.57Z" class="land" id="KI" title="Kiribati"/>
    <path d="M506.33,170.29L505.87,182.38L504.61,202.43L503.12,219L497.15,211.38L493.55,212.04L490.17,211.71L492.03,207.53L490.04,205.02L491.02,202.08L488.56,198.22L486.55,191.65L480.51,187.6L473.49,184.66L468.46,184.06L461.9,179.17L458.83,175.94L456.01,181.15L454.19,181.4L452.92,178.47L453.02,175.41L450.49,173.02L456.06,169L458.74,169.82L460.84,166.49L454.61,167.77L450.38,167.54L448.59,165.66L448.05,162.43L443.95,161.19L443.76,157.17L447.31,156.03L449.42,154.16L452.63,153.45L458.09,156.2L461.34,156.34L463.13,160.96L462.09,163.64L462.34,167.19L467.78,175.7L470.68,175.79L475.76,170.09L476.77,167.77L479.71,167.21L481.58,164.54L486.04,161.86L491.46,164.16L498.73,168.33L504.09,169.06ZM225.34,139.81L228.29,143.48L227.95,146.07L224.89,143.69ZM402.58,143.32L399.62,147.25L395.27,148.48L392.11,148.33L390.93,147.13L382.91,147.5L380.21,147.07L373.25,147.41L371.83,149.52L371.08,153.06L371.62,155.63L374.31,158.54L375.25,161.02L377.62,161.29L380.8,157.17L383.7,157.75L385.72,156.43L389.66,156.42L387.15,160.85L381.99,164.7L382.76,168.21L386.14,174.71L385.09,177.85L388.99,181.5L389.04,183.3L384.54,184.4L382.54,187.03L379.85,185.04L380.85,181.38L376.46,177.37L377.53,171.35L374.98,170.72L372.31,173.6L373.33,178.5L372.95,185.31L371.86,189.27L371.92,192.22L368.02,193.36L365.93,191.35L367.79,183.86L367.99,180.95L366.82,176.77L364.06,177.23L362.87,171.45L364.92,169.34L366.49,165.2L366.47,161.3L369.52,154.39L369.77,148.98L372.71,143.51L374.32,144.65L376.84,141.13L381.26,142.78L386.72,143.15L389.68,144.41L392.17,143.83L395.85,144.5L398.6,143.12L403.16,138.04L404.76,139.53ZM420.97,144.43L423.72,142.11L425.38,139.42L427.23,142.49L424.63,144.21L427.2,148.08L419.85,147.1L418.92,141.4L420.22,136.98L422.69,138.04L422.74,140.81ZM348.06,118.16L351.6,118.33L353.9,119.41L355.22,123.57L352.23,123.9L355.22,127.85L358.31,133.43L357.06,136.05L358.49,138.04L364.41,143.42L361.51,144.68L359.31,144.23L356.41,145.31L354.98,149L354.6,153.19L355.22,156.53L348.65,161.79L347.73,166.12L348.61,167.97L344.41,177.66L336.1,181.96L335.26,176.91L332.38,175.29L330.48,176.62L328.8,174.58L325.22,174.61L322.77,176.2L320.75,175.61L317.71,177.19L317.82,173.64L314.9,172.71L312.79,173.62L309.78,172.4L307.57,172.65L306.41,161.23L304.94,158.33L302.79,157.27L300.91,154.47L301.55,150.54L299.52,148.11L299.25,144.83L300.3,139.58L302.21,136.39L309.59,144.32L312.38,143.16L317.76,143.29L319.74,142.22L322.27,139.11L329.72,141.52L331.51,140.04L335.67,139.79L337.44,135.96L337.12,133.94L339.44,132.12L338.96,129.52L341.3,128.07L341.82,121.3L343.82,118.24ZM218.22,111.65L224.41,111.6L227.47,114.27L229.79,117.75L230.25,120.15L239.65,126.96L244.49,133.88L245.99,134.91L248.3,133.88L251.15,138.1L253.15,138.64L257.64,144.94L261.51,147.09L264.18,147.18L266.17,150.42L263.86,152.2L263.87,154.76L265.73,157.4L269.85,158.54L271.7,168.61L276.41,168.57L280.47,174L279.06,177.8L278.96,188.24L278.28,193.23L275.31,192.28L273.51,193.75L270.74,192.07L270.35,194.94L265.66,188.77L257.57,181.83L255.05,177.69L251.59,174.46L247.03,166.8L247.11,165.24L243.66,156.95L239.09,150L236.25,148.14L233.84,139.59L232.3,136.54L226.66,133.13L225.88,129.48L221.72,124.03L218.28,122.22L211.91,115.15L209.9,111.24L209.95,109.14L212.53,108.8L215.88,111.17ZM367.93,220.92L370.89,223.16L372.74,225.88L370.02,227.8L368.2,227.1L365,223.9L361.73,223.4L362.6,220.99ZM400.38,221.94L395.79,226.71L391.98,228.17L390.53,225.35L391.56,222.71L393.86,220.67L396.59,219.53L399.84,217.68ZM346.69,215.22L344.8,217.58L342.98,216.2L343.07,213.9L345.39,212.15ZM386.27,215.2L378.8,217.35L374.81,217.63L367.05,215.84L367.92,213.96L372.5,212.42L377.67,214.95L381.11,214.03L382.91,215.3L385.25,213.64ZM357.19,213L361.99,213.15L361.85,216.24L356.54,216.91L349.1,218.85L347.4,218.16L348,214.61L350.22,213.37L352.78,213.82L356.5,211.54ZM339.27,211.78L340.78,213.67L337.53,216.6L333.03,211.52ZM488.01,212.67L486.38,213.66L482.54,212.59L485.03,207.94L487.01,206.42L490.1,206.06L491.32,208.35ZM441.72,210.62L440.26,209.61L441.62,206.66L444.42,206.42ZM329.49,203.92L327.02,204.77L322.5,204.18L323.28,202.39L330.44,202.18ZM463.33,198.96L461.96,201.75L460.07,201.41L461.08,196.97ZM288.21,195.71L290.02,197.26L294.05,197.64L296.3,201.57L307.51,202.74L309.72,199.19L312.33,200.66L314.83,200.51L318.25,202.34L321.15,202.59L322.49,207.27L325.33,208.51L330.68,207.88L332.95,209.84L332.29,213.66L333.35,216.39L325.06,212.77L321.28,213.68L313.81,212.91L308.08,211.74L304.55,209.8L299.76,208.41L296.3,208.13L294.36,209.1L290.96,208.56L287,206.67L282.81,206.25L282.26,203.54L275.7,201.5L279.86,195.01L284.63,196.39L286.13,194.94ZM465.04,193.46L464.88,196.93L462.76,198.16L462.42,193.5ZM387.09,190.19L385.49,186.43L387.69,185.32ZM415.01,173.87L417.3,176.13L417.25,177.94L413.68,179.37L410.7,177.73L409.59,174.48ZM433.76,172.21L437.77,173.13L440.72,177.48L440.29,179.62L434.23,175.66L431.76,176.6L428.56,175.65L424.99,176.32L422.87,174.58L423.7,172.21L431.66,171.64ZM294.46,173.19L290.59,174.78L291.05,169.96L293.68,170.19ZM403.03,163.53L399.42,165.77L399.22,163.39ZM470.95,162.67L475.65,163.15L475.56,164.68ZM280.69,163.25L282.66,169.2L284.64,170.99L283.72,173.62L280.22,171.9L278.95,167.09L274.75,166.05L277.73,162.19ZM423.61,163.19L419.78,163.7L420.38,160.73ZM236.19,164.06L234.33,163.21L232.61,159.73L234.35,157.62L236.87,162.94ZM470.45,155.64L473.75,156.2L473.36,159.14Z" class="land" id="ID" title="Indonesia"/>
    <path d="M523.34,51.52L522.55,50.24L523.34,49.51Z" class="land" id="GU" title="Guam"/>
    <path d="M616.54,99.8L615.7,99.89L615.29,98.81L616.32,98.77Z" class="land" id="FM" title="Federated States of Micronesia"/>
    <path d="M731.61,280.88L733.06,282.98L732.72,286.2L727.15,287.51L724.15,286.17L724.2,284.57L727.22,281.55ZM744.78,271.84L742.68,273.93L743.29,276.17L737.13,277.34L736.33,275.32L741.78,272.45Z" class="land" id="FJ" title="Fiji"/>
    <path d="M275.22,229.29L274.99,229.82L274.3,229.44L275.13,228.82Z" class="land" id="CX" title="Christmas Island"/>
    <path d="M216.95,241.95L217.02,241.98L217.12,241.94L217.16,241.99L217,242.06Z" class="land" id="CC" title="Cocos (Keeling) Islands"/>
    <path d="M457.19,456.92L458.68,456.79L463.28,459.73L470.68,458.52L474.61,456.86L475.87,458.11L471.5,466.25L467.07,470.21L464.96,474.55L462.69,472.6L456.53,477.93L451.93,477.45L451.53,470L453.48,466.1L453.14,461.63L454.08,458.36ZM430.21,419.1L428.24,421.63L424.17,421.32L424.36,419.18L429.08,418ZM471.25,254.11L471.84,257.77L468.51,257.29L469.33,254.56ZM434.6,235.91L438.94,234.51L440.45,236.36L436.22,240.03L434.43,238.65ZM514.74,240.24L513.93,242.86L515.44,245.38L515.72,251.4L515.12,253.63L515.71,258.19L516.88,259.05L520.45,257.31L521.24,259.27L524.75,262.65L523.94,266.65L524.32,271L523.62,273.63L525.67,278.61L526.22,282.85L524.61,287.65L526.07,289.75L526.12,293.7L529.76,296.06L531.56,295.95L533.85,299.64L538.43,302.8L537.41,304.99L539.68,309.08L540.19,318.98L543.12,316.9L545.24,319.87L546.6,320L545.21,326.63L546.45,329.09L550.22,332.22L550.74,335.21L552.31,336.75L553.68,341.5L553.95,345.5L552.6,348.06L550.53,354.77L550.6,362.65L549.09,367.28L546.28,370.56L544.09,375.1L540.63,380.15L537.48,386.72L533.24,391.32L531.46,394.28L525.96,397.76L522.52,401.12L518.75,406.25L516.21,408.26L511.6,414.89L506.35,419.81L501.36,427.41L498.73,432.54L493.91,434.59L487.57,434.81L480.94,437.71L476.07,441.04L469.66,442.83L469.66,441.07L464.56,437.65L455.6,442.22L451.36,439.46L446.67,438.11L444.54,438.8L440.92,436.28L438.52,430.42L440.91,426.04L440.9,421.79L439.11,418.73L434.18,418.15L438.01,413.73L438.69,411.77L438.06,407.31L432.66,414.63L427.44,415.35L429.24,412.92L431.54,412.9L434.45,407.24L438.87,402.86L439.49,400.01L437,399.96L434.47,403.24L428.36,406.25L420.84,413.1L421.11,405.33L420.37,400.97L417.84,399.75L417.78,396.61L419.16,395.1L415.98,392.35L411.71,390.64L408.24,391.03L406.03,388.69L403,387.18L388.93,388.73L382.58,391.47L377.46,392.96L368.76,393.21L355.6,399.48L350.82,404.8L347.71,405.94L345.34,405.21L341.24,405.97L337.12,404.72L327.26,405.84L323.76,408.8L320.08,409.64L314.12,413.45L310.45,414.29L304.26,413.46L301.54,412.01L300.64,409.99L296.95,407.95L299.54,403.34L301.86,402.5L303.72,399.95L307.39,388.67L306.2,382L306.39,377.54L307.86,371.64L307.11,364.93L305.73,361.45L306.33,355.92L305.05,349.98L306.51,342.95L309.52,347.95L310.32,344.65L307.84,333.99L309.88,328.7L311.69,326.33L312.48,320.46L315.32,315.2L317.34,318.23L321.32,313.67L325.47,311.84L329.68,308.37L334.65,305.54L338.98,306.04L344.52,303.44L348.19,302.59L350.82,300.59L353.81,300.91L362.56,298.11L367.27,293.91L370.31,289.18L373.57,285.36L373.94,280.44L380.21,273.86L382.41,281.73L384.82,277.09L383.46,274.26L390.86,271.43L390.04,268.76L393.66,264.28L396.5,262.66L396.34,260.94L399.92,258.48L401.98,259.29L402.97,256.43L405.86,256.78L408.44,253.66L412.88,257.04L415.63,261.21L423.48,262.58L425.54,261.5L423.59,258.52L426.17,255.43L427.44,252.37L430.42,250.34L430.19,247.76L431.95,245.74L435.31,244.51L436.58,242L439.02,242.65L445.05,242.38L446.54,241.41L447.74,236.88L449.99,236.48L450.79,238.37L455.28,239.32L457.25,240.64L460.44,240.47L463.34,242.24L467.31,239.89L468.68,243.75L472.09,240.27L474.32,243.2L471.23,246.46L471.37,248.1L466.76,250.36L466.6,254.15L465.52,256.73L461.75,261.26L462.25,263.08L466.06,266.1L469.13,269.79L470.54,269.67L474.55,272.32L477.33,275.97L481.96,277.33L482.86,280.55L487.32,283.36L490.47,282.77L492.82,281.2L496.41,275.43L498.46,271.1L501.17,263.5L501.75,254.06L503.48,250.02L504.54,244.26L506.91,239.8L509.23,232.69L511.31,230.9L513.19,235.39L512.9,239.24Z" class="land" id="AU" title="Australia"/>
  </g>
</svg>