<?xml version="1.0" encoding="UTF-8"?>
<svg xmlns="http://www.w3.org/2000/svg" width="298.28" height="499.02" viewBox="330.86 3.49 298.28 499.02">
  <!-- Created using SVG Map Generator: dojo.amcharts.com/svg-map-generator -->
  <style>
    .land { fill: #ffffff; stroke: #000000; stroke-width: 0.5; }
  </style>
  <g id="polygons">
    <path d="M459.61,259.27L465.67,266.23L470.87,270.45L478.16,272.92L481.67,275.57L491.77,280.59L493.44,282.56L490.57,289.74L490.87,291.56L488.75,295.25L491.63,296.29L502.43,298.35L503.87,296.64L506.69,297.33L508.07,294.35L511.74,290.85L511.76,283.82L516.27,284.5L518.08,288.59L517.85,295.17L512.21,298.33L510.84,300.65L507.37,303.13L501.41,313.35L497.99,317.71L496.43,330.47L496.99,334.5L496.35,343.25L499.19,350.74L505.65,354.44L507.11,361.45L510.82,363.51L511.53,366.63L508.48,373.17L508.06,375.66L504.84,378.22L495.77,381.16L488.5,382.29L482.81,381.75L483.05,388.87L484.02,396.12L481.11,397.71L476.47,398L469.64,395.56L468.13,396.05L470.44,403.96L474.94,407.33L479.64,407.13L479.78,410.02L477.36,410.43L472.14,415.99L473.27,422.11L472.7,425.93L469.48,425.62L465.79,427.73L463.72,432.85L464.45,435.54L470.23,440.27L474.78,440.9L476.75,442.69L477.57,446.95L472.18,451.84L469.89,456.23L470.69,460.56L465.48,464.26L465.16,468.25L467.87,473.07L472.78,478.11L463.68,475.68L452.94,475.54L449.17,472.4L448.35,467.97L446.34,465.84L443.12,466.76L437.99,458.61L441.47,453.01L441.93,449.97L439.9,446.48L441.83,441.67L441.64,437.21L439.36,431.09L440.69,427.54L438.79,425.73L439.86,421.85L436.28,421.43L436.15,418.16L431.58,411.36L430.34,406.35L432.05,404.92L430.31,401.65L428.37,394.67L429.08,392.08L427.66,386.97L428.21,382.23L430.55,380.43L427.6,373.29L426.19,364.23L429.29,360.84L427.74,355.45L427.9,351.1L429.73,347.37L428.84,341.3L427.33,340.37L425.29,334.5L421.54,327.86L422.57,319.57L423.69,318.96L421.94,311.36L423.06,304.67L425.4,301.07L426.5,295.41L429.4,294.49L427.4,290.74L428.02,288.06L426.17,283.15L427.08,280.26L425.72,278.39L427.18,275.12L432.31,272.49L433.46,264.91L432.15,263.59L434.58,259.14L438.02,256.35L440.27,258.29L447.57,259.24L449.46,263.14L451.31,258.09L458.23,257.54ZM477.69,495.42L472.47,480.17L478.02,486.51L483.03,489.87L495.47,495.59L489.6,496.65L487.1,495.91Z" class="land" id="AR" title="Argentina"/>
    <path d="M485.76,244.09L485.39,241.55L479.39,237.65L473.71,237.73L463.12,240.28L460.59,247.01L460.97,250.7L459.61,259.27L458.23,257.54L451.31,258.09L449.46,263.14L447.57,259.24L440.27,258.29L438.02,256.35L434.58,259.14L432.15,263.59L427.94,263.6L424.61,252.42L422.15,247.37L420.5,246.25L420.18,240.84L421.41,238.72L417.91,235.32L416.43,228.59L413.44,224.6L412.51,222.36L415.89,218.28L412.72,210.67L414.02,207.99L412.59,205.98L415.23,200.39L413.72,196.61L413.89,190.74L415.53,187.98L409.19,176.65L416.63,177.13L426.66,169.51L434.94,167.59L435.59,178.8L438.41,184.13L442.21,187.52L450.79,189.2L452.83,191.6L456.59,192.6L459.19,195.47L463.64,195.2L467.35,197.4L469.07,203.46L470.74,215.54L480.98,215.98L482.39,222.61L486.06,224.65L488.14,230.27L487.25,236.14L485.64,241.01Z" class="land" id="BO" title="Bolivia"/>
    <path d="M489.42,82.51L491.67,79.91L498.78,77.76L501.22,79.71L504.27,81.21L506.57,79.5L511.63,80.75L513.3,79.44L517.9,69.67L520.08,67.05L522.81,66.81L523.77,72.73L526.16,81.14L527.41,83.33L530.56,84.57L530.91,88.2L528.41,90.59L525.1,95.43L522.16,97.31L519.52,102.25L518.01,108.26L524.48,104.82L525.95,109.54L527.77,111.39L532.08,110.74L534.63,109.32L536.66,110.04L542.15,102.07L546.67,101.26L550.38,102.38L557.75,106.52L561.34,107.38L564.03,109.42L566.24,115.19L567.48,115.65L574.88,114.67L579.24,117.06L581.59,116.73L585.12,118.11L590.43,117.09L593.65,117.57L603.1,123.81L605.84,127.45L611.42,132.54L615.12,133.89L621.68,134.12L623.71,137.31L626.64,149.88L626.56,154.87L623.6,164.07L617.22,173.23L613.91,175.69L611.1,180.63L609.53,185.04L606.28,190.48L602.83,190.03L601.19,195.92L602.25,199.16L601.72,203.73L603.27,212.58L601.74,223.21L602.28,226.05L600.33,228.15L599.04,232.91L599.57,237.59L595.88,247.06L593.62,249.53L592.34,253.93L592.18,258.18L588.72,259.83L587.01,264.51L577.9,265.23L575.76,264.24L571.11,265.31L566.68,269.93L563.38,270.74L558.18,273.98L552.53,279.57L549.05,285.58L548.93,292.1L550.08,295.72L550.39,302.19L549.73,305.86L544.69,311.65L542.32,319.46L537.09,319.01L535.91,324.07L533.19,326.5L533.06,332.26L530.95,339.39L527.32,343.83L525.73,339.63L527.68,336.44L523.14,331.45L517.57,327.24L509.39,324.19L507.1,320.95L502.59,317.12L497.99,317.71L501.41,313.35L507.37,303.13L510.84,300.65L512.21,298.33L517.85,295.17L518.08,288.59L516.27,284.5L511.76,283.82L512.8,272.59L510.26,270.86L505.85,272.18L501.58,259.81L497.27,258.31L494.85,259.55L488.22,257.9L488.39,250.2L485.76,244.09L485.64,241.01L487.25,236.14L488.14,230.27L486.06,224.65L482.39,222.61L480.98,215.98L470.74,215.54L469.07,203.46L467.35,197.4L463.64,195.2L459.19,195.47L456.59,192.6L452.83,191.6L450.79,189.2L442.21,187.52L438.41,184.13L435.59,178.8L434.94,167.59L426.66,169.51L416.63,177.13L409.19,176.65L402.55,177.07L401.93,165.88L398.35,169.44L392.44,169.72L391,166.11L385.74,165.39L387.06,162.33L383.2,157.61L380.08,151.84L381.6,150.23L381.41,147.09L385.19,143.88L384.48,141.19L386.44,134.07L392.88,129.56L398.34,128.43L399.41,127.14L404.67,127.6L407.91,105.4L406.19,100.2L403.65,97.7L403.76,92.46L409.39,90.38L405.05,88.96L405.11,84.22L415.65,84.14L420.88,81.46L423.83,87.76L426.63,90.69L435,88.6L441.27,84.87L441.79,82.79L445.85,80.47L442.53,78.79L440.75,73.3L440.79,70.51L438.64,68.23L446.67,68.06L448.68,70.46L450.36,67.37L453.89,66.78L461.21,63.59L463.8,60.24L462.97,58.72L467.68,59.59L466.83,63.76L468.57,64.02L470.27,67.98L468.32,70.51L467.34,77.05L468.77,82.82L472.05,86.65L474.37,87.9L477.68,85.1L482.4,84.25L485.41,81.99ZM532.6,98.36L535.82,97.88L540.48,99.26L537.04,107.5L532.9,109.18L527.1,109.73L525.48,105.74L526.18,98.68L528.69,97.54ZM518.72,107.15L520.51,101.43L522.22,104.14Z" class="land" id="BR" title="Brazil"/>
    <path d="M432.15,263.59L433.46,264.91L432.31,272.49L427.18,275.12L425.72,278.39L427.08,280.26L426.17,283.15L428.02,288.06L427.4,290.74L429.4,294.49L426.5,295.41L425.4,301.07L423.06,304.67L421.94,311.36L423.69,318.96L422.57,319.57L421.54,327.86L425.29,334.5L427.33,340.37L428.84,341.3L429.73,347.37L427.9,351.1L427.74,355.45L429.29,360.84L426.19,364.23L427.6,373.29L430.55,380.43L428.21,382.23L427.66,386.97L429.08,392.08L428.37,394.67L430.31,401.65L432.05,404.92L430.34,406.35L431.58,411.36L436.15,418.16L436.28,421.43L439.86,421.85L438.79,425.73L440.69,427.54L439.36,431.09L441.64,437.21L441.83,441.67L439.9,446.48L441.93,449.97L441.47,453.01L437.99,458.61L443.12,466.76L446.34,465.84L448.35,467.97L449.17,472.4L452.94,475.54L463.68,475.68L472.78,478.11L468.08,477.05L466.85,478.56L460.98,480.98L462.41,488L455.67,486.98L458.53,483.34L449.92,484.28L443.16,480.08L444.34,475.9L441.21,474.11L440.5,470.93L434.78,469.04L432.29,466.36L434.74,461.38L431.39,451.61L427.54,445.25L428.69,440.05L419.39,437.44L422.49,434.21L421.05,432.17L425.95,431.39L428.78,429.36L428.75,425.72L431.78,423.96L431.58,421.81L427.59,419.88L428.01,416L426.54,406.37L427.55,404.04L423.73,400.87L421.3,402.71L417.4,397.78L417.13,390.23L418.12,383.98L412.84,372.83L412.3,369.09L414.54,368.94L415.39,357.35L416.98,353.76L416.84,346.93L418.08,343.17L416.78,339.07L417.88,335.88L414.51,324.93L413.32,318.76L414.7,317.38L414.56,313.76L412.4,308.44L413.73,304.41L414.59,289.35L413.57,285.35L414.55,280.85L413.2,276.97L412.84,270.64L411.65,265.31L412.87,263.79L413.11,253.84L411.75,248.21L411.27,241.45L408.43,230.75L411.38,229.73L411.47,226.05L413.44,224.6L416.43,228.59L417.91,235.32L421.41,238.72L420.18,240.84L420.5,246.25L422.15,247.37L424.61,252.42L427.94,263.6ZM422.97,413.94L419.47,413.34L418.32,402.7L421.46,403.43L424.07,410.97ZM425.39,421.51L426.98,426.74L425.32,428.22L420.9,423.34ZM431.95,455.53L433.48,461.49L429.08,460.48L427.86,455.07ZM472.47,480.17L477.69,495.42L471.6,494.45L467.7,495.12L464.34,491.87L463.36,488.73L466.4,485.5L463.81,482.77L466.5,480.72ZM472.23,495.87L480.67,498.18L481.28,500.01L475.11,499.48Z" class="land" id="CL" title="Chile"/>
    <path d="M398.7,10.07L394.61,11.5L392.56,14.94L389.62,17.57L387.17,25.22L384.74,29.33L388.22,30.19L390.33,35.5L389.86,42.27L392,44.89L398.71,45.63L400.99,44.99L404.48,46.05L408.39,51.91L414.49,51.75L418.38,50.78L420.96,52.71L418.36,58.22L418.02,63.79L419.14,68.49L421.28,71.76L417.92,75.58L421.8,79.24L423.83,87.76L420.88,81.46L415.65,84.14L405.11,84.22L405.05,88.96L409.39,90.38L403.76,92.46L403.65,97.7L406.19,100.2L407.91,105.4L404.67,127.6L402.25,124.52L399.75,124.28L403.78,116.76L398.43,112.88L395.39,113.72L393.13,112.39L389.11,114.41L384.3,113.31L384,110.04L382.1,109.04L381.01,105.8L377.33,103.77L373.8,98.15L370.76,97.46L364.29,93.41L363.13,94.97L357.27,93.58L357,92.04L351.69,89.05L348.25,86.07L350.06,83.74L349.86,79.85L353.01,78.53L355.9,75.68L359.22,68.5L357.61,67.05L358.63,62.23L358.06,57.16L359.12,54.5L357.84,51.6L358.62,49.21L355.44,43.92L362.34,37.63L362.31,33.77L366.3,31.07L367.3,29.05L370.49,27.7L370.62,22.25L372.22,19.22L376.23,15.57L378.62,16.45L381.27,13.88L385.93,14.21L392.73,9.87L396.52,5.99L399.3,6.61Z" class="land" id="CO" title="Colombia"/>
    <path d="M370.76,97.46L370.9,100.74L369.01,107.86L365.78,112.25L362.11,115.39L354.71,118.45L351.71,121.72L351.31,124.25L347.41,133.11L345.8,132.65L343.75,129.19L338.18,126.38L340.23,124.98L339.23,121.41L341.73,119.23L342.87,115.51L338.34,115.85L336.25,111.84L335.35,104.56L337.53,102.87L337.97,99.37L340.17,96.73L340.47,90.96L347.99,87.88L348.25,86.07L351.69,89.05L357,92.04L357.27,93.58L363.13,94.97L364.29,93.41Z" class="land" id="EC" title="Ecuador"/>
    <path d="M515.38,471.85L520.89,471.6L518.41,475.4ZM522.87,470.5L529.28,473.58L523.49,476.82Z" class="land" id="FK" title="Falkland Islands"/>
    <path d="M520.08,67.05L517.9,69.67L513.3,79.44L511.63,80.75L506.57,79.5L504.27,81.21L501.22,79.71L503.91,76.12L505.29,70.49L503.07,67.1L502.57,60.1L504.49,57.58L506.51,54.48L512.42,57.09L516.18,60.62Z" class="land" id="GF" title="French Guiana"/>
    <path d="M485.38,56.19L484.43,60.05L482.03,60.26L479.74,66.24L488.03,81.83L489.42,82.51L485.41,81.99L482.4,84.25L477.68,85.1L474.37,87.9L472.05,86.65L468.77,82.82L467.34,77.05L468.32,70.51L470.27,67.98L468.57,64.02L466.83,63.76L467.68,59.59L462.97,58.72L459.11,53.58L460.74,51.33L460.75,47.83L465.53,45.99L463.63,41.95L465.01,39.66L468.11,37.9L468.34,34.28L473.34,37.75L476.81,41.61L477.6,45.32L480.68,47.16L485.52,52.18Z" class="land" id="GY" title="Guyana"/>
    <path d="M404.67,127.6L399.41,127.14L398.34,128.43L392.88,129.56L386.44,134.07L384.48,141.19L385.19,143.88L381.41,147.09L381.6,150.23L380.08,151.84L383.2,157.61L387.06,162.33L385.74,165.39L391,166.11L392.44,169.72L398.35,169.44L401.93,165.88L402.55,177.07L409.19,176.65L415.53,187.98L413.89,190.74L413.72,196.61L415.23,200.39L412.59,205.98L414.02,207.99L412.72,210.67L415.89,218.28L412.51,222.36L413.44,224.6L411.47,226.05L411.38,229.73L408.43,230.75L402.22,225.9L400.72,223.05L394.47,218.76L385.62,214.7L377.13,209.27L371.43,203.57L368.89,199.91L369.16,195.39L364.42,186.86L362.26,184.75L361.62,181.85L358.84,179.1L357.96,175.8L354.78,170.34L350.53,159.59L346.36,153.88L343.68,148.26L341.35,145.22L336.82,142.54L333.36,128.23L336.3,123.91L339.23,121.41L340.23,124.98L338.18,126.38L343.75,129.19L345.8,132.65L347.41,133.11L351.31,124.25L351.71,121.72L354.71,118.45L362.11,115.39L365.78,112.25L369.01,107.86L370.9,100.74L370.76,97.46L373.8,98.15L377.33,103.77L381.01,105.8L382.1,109.04L384,110.04L384.3,113.31L389.11,114.41L393.13,112.39L395.39,113.72L398.43,112.88L403.78,116.76L399.75,124.28L402.25,124.52Z" class="land" id="PE" title="Peru"/>
    <path d="M485.76,244.09L488.39,250.2L488.22,257.9L494.85,259.55L497.27,258.31L501.58,259.81L505.85,272.18L510.26,270.86L512.8,272.59L511.76,283.82L511.74,290.85L508.07,294.35L506.69,297.33L503.87,296.64L502.43,298.35L491.63,296.29L488.75,295.25L490.87,291.56L490.57,289.74L493.44,282.56L491.77,280.59L481.67,275.57L478.16,272.92L470.87,270.45L465.67,266.23L459.61,259.27L460.97,250.7L460.59,247.01L463.12,240.28L473.71,237.73L479.39,237.65L485.39,241.55Z" class="land" id="PY" title="Paraguay"/>
    <path d="M504.49,57.58L502.57,60.1L503.07,67.1L505.29,70.49L503.91,76.12L501.22,79.71L498.78,77.76L491.67,79.91L489.42,82.51L488.03,81.83L479.74,66.24L482.03,60.26L484.43,60.05L485.38,56.19L486.88,52.95L493.33,54.39L494.07,53.17L500.33,52.98L505.21,54.3Z" class="land" id="SR" title="Suriname"/>
    <path d="M527.32,343.83L525.58,348.51L523.64,350.64L519.59,352.56L514.82,351.41L512.34,352.38L505.52,349.04L501.64,349.22L497.53,345.08L497.02,340.29L498.2,337.6L496.99,334.5L496.43,330.47L497.99,317.71L502.59,317.12L507.1,320.95L509.39,324.19L517.57,327.24L523.14,331.45L527.68,336.44L525.73,339.63Z" class="land" id="UY" title="Uruguay"/>
    <path d="M468.34,34.28L468.11,37.9L465.01,39.66L463.63,41.95L465.53,45.99L460.75,47.83L460.74,51.33L459.11,53.58L462.97,58.72L463.8,60.24L461.21,63.59L453.89,66.78L450.36,67.37L448.68,70.46L446.67,68.06L438.64,68.23L440.79,70.51L440.75,73.3L442.53,78.79L445.85,80.47L441.79,82.79L441.27,84.87L435,88.6L426.63,90.69L423.83,87.76L421.8,79.24L417.92,75.58L421.28,71.76L419.14,68.49L418.02,63.79L418.36,58.22L420.96,52.71L418.38,50.78L414.49,51.75L408.39,51.91L404.48,46.05L400.99,44.99L398.71,45.63L392,44.89L389.86,42.27L390.33,35.5L388.22,30.19L384.74,29.33L387.17,25.22L389.62,17.57L392.56,14.94L394.61,11.5L398.7,10.07L394.55,13.34L396.41,18.88L392.79,25.03L395.17,30.46L397.64,30.07L399.41,25.83L397.54,21.75L397.33,16.64L405.28,13.64L405.19,9.9L407.11,7.76L409.1,12.86L414.12,13.22L416.69,15.2L417.46,19.52L419.69,20.23L429.96,19.06L432.28,21.8L438.51,22.97L444.86,18.83L452.24,18.2L451.23,20.63L453.2,22.39L463.73,28.35L462,30.29L460.21,35.3L463.43,33.96Z" class="land" id="VE" title="Venezuela"/>
  </g>
</svg>